STARTFONT 2.3
FONT -FontForge-Righteous-Book-R-Normal--36-360-72-72-P-194-ISO10646-1
SIZE 36 72 72  4
FONTBOUNDINGBOX 46 45 -6 -10
COMMENT "Generated by fontforge, http://fontforge.sourceforge.net"
COMMENT "Copyright (c) 2011 by Brian J. Bonislawsky DBA Astigmatic (AOETI) (astigma@astigmatic.com), with ReservedFont Name "Righteous""
STARTPROPERTIES 40
FOUNDRY "FontForge"
FAMILY_NAME "Righteous"
WEIGHT_NAME "Book"
SLANT "R"
SETWIDTH_NAME "Normal"
ADD_STYLE_NAME ""
PIXEL_SIZE 36
POINT_SIZE 360
RESOLUTION_X 72
RESOLUTION_Y 72
SPACING "P"
AVERAGE_WIDTH 194
CHARSET_REGISTRY "ISO10646"
CHARSET_ENCODING "1"
FONTNAME_REGISTRY ""
CHARSET_COLLECTIONS "ISO8859-2 ISO8859-9 ISO8859-4 ISO10646-1"
BITS_PER_PIXEL 4
FONT_NAME "Righteous-Regular"
FACE_NAME "Righteous"
COPYRIGHT "Copyright (c) 2011 by Brian J. Bonislawsky DBA Astigmatic (AOETI) (astigma@astigmatic.com), with ReservedFont Name "Righteous""
FONT_VERSION "1.000"
FONT_ASCENT 29
FONT_DESCENT 7
UNDERLINE_POSITION -5
UNDERLINE_THICKNESS 1
X_HEIGHT 18
CAP_HEIGHT 25
RAW_ASCENT 799
RAW_DESCENT 200
NORM_SPACE 10
RELATIVE_WEIGHT 40
RELATIVE_SETWIDTH 50
SUPERSCRIPT_X 0
SUPERSCRIPT_Y 17
SUPERSCRIPT_SIZE 23
SUBSCRIPT_X 0
SUBSCRIPT_Y 5
SUBSCRIPT_SIZE 23
AVG_LOWERCASE_WIDTH 191
AVG_UPPERCASE_WIDTH 229
ENDPROPERTIES
CHARS 372
STARTCHAR space
ENCODING 32
SWIDTH 279 0
DWIDTH 10 0
BBX 1 1 0 0
BITMAP
00
ENDCHAR
STARTCHAR exclam
ENCODING 33
SWIDTH 274 0
DWIDTH 10 0
BBX 7 28 1 -2
BITMAP
03333330
1FFFFFE0
0FFFFFE0
0EFFFFD0
0DFFFFC0
0CFFFFB0
0BFFFFA0
0BFFFF90
0AFFFF80
09FFFF70
08FFFF70
07FFFF60
06FFFF50
06FFFF40
05FFFF30
04FFFF20
03FFFF10
02FFFF10
01FFFF00
00CCCB00
00000000
005AA400
07FFFF50
0EFFFFC0
0FFFFFD0
0BFFFF90
02CFFB10
00022000
ENDCHAR
STARTCHAR quotedbl
ENCODING 34
SWIDTH 409 0
DWIDTH 15 0
BBX 12 9 1 17
BITMAP
133333033333
3FFFFC1FFFFD
1FFFFA0EFFFC
0FFFF90DFFFB
0EFFF80CFFF9
0CFFF60AFFF8
0BFFF509FFF7
09FFF308FFF5
06BBB205BBB3
ENDCHAR
STARTCHAR numbersign
ENCODING 35
SWIDTH 561 0
DWIDTH 20 0
BBX 18 17 1 4
BITMAP
000000BCCC206CCC70
000002FFFE00CFFF50
000006FFFA01FFFF10
00055CFFFA58FFFD55
004FFFFFFFFFFFFFFC
008FFFFFFFFFFFFFF7
00DFFFFFFFFFFFFFF3
0044DFFF749FFFB440
0001FFFF10BFFF6000
0006FFFB01FFFF2000
0EFFFFFFFFFFFFFF20
3FFFFFFFFFFFFFFD00
7FFFFFFFFFFFFFF800
69CFFFC9AFFFE99300
00BFFF506FFFB00000
01FFFF10AFFF700000
04EEEC00DEEE300000
ENDCHAR
STARTCHAR dollar
ENCODING 36
SWIDTH 458 0
DWIDTH 16 0
BBX 15 26 1 0
BITMAP
0000013330000000
000003FFF0000000
000003FFF0000000
000003FFF0000000
000003FFF0000000
000158FFF7777100
007EFFFFFFFFF200
06FFFFFFFFFFF200
1EFFFFFFFFFFF200
5FFFC66666666100
6FFF700000000000
4FFFEBBBBA830000
0DFFFFFFFFFF9000
03FFFFFFFFFFF700
003CFFFFFFFFFE00
0000123333DFFF20
1333333334EFFF10
6FFFFFFFFFFFFC00
6FFFFFFFFFFFF400
6FFFFFFFFFFE5000
49999AFFF9710000
000003FFF0000000
000003FFF0000000
000003FFF0000000
000003FFF0000000
000003FFF0000000
ENDCHAR
STARTCHAR percent
ENCODING 37
SWIDTH 685 0
DWIDTH 25 0
BBX 23 27 1 -1
BITMAP
000589730000000023331000
01CFFFFF90000001EFFD0000
0BFFFFFFF7000008FFF40000
3FFFEBFFFE00002EFFB00000
7FFF206FFF30009FFF300000
9FFC000FFF5003FFFA000000
AFFA000EFF600BFFF2000000
AFFB000EFF604FFF80000000
8FFE002FFF40CFFE10000000
5FFF94BFFF15FFF700000000
0EFFFFFFFB0DFFD000000000
05FFFFFFE27FFF5000000000
004CFFFA21EFFC0000000000
0000110008FFF40155400000
000000002FFFB09FFFFD4000
00000000AFFF39FFFFFFF300
00000003FFF93FFFFFFFFB00
0000000BFFE17FFF409FFF10
0000005FFF80AFFB002FFF40
000000DFFE10BFF9000FFF50
000006FFF600BFFA000FFF50
00001EFFD000AFFC003FFF40
00008FFF50007FFF51AFFF10
0002EFFB00002FFFFFFFFB00
0009FFF3000009FFFFFFF300
003FFFA00000009FFFFD4000
000000000000000145300000
ENDCHAR
STARTCHAR ampersand
ENCODING 38
SWIDTH 485 0
DWIDTH 17 0
BBX 14 26 2 0
BITMAP
00000034420000
000000CFF70000
000000CFF70000
000000CFF70000
0017DFFFFFFFF4
02DFFFFFFFFFF4
0DFFFFFFFFFFF4
6FFFFDCCCCCCC3
BFFF7000000000
DFFF0000000000
CFFF2000000000
9FFFD655552000
2FFFFFFFFF6000
09FFFFFFFF6000
2EFFFFFFFF6000
8FFFE877773000
CFFF3000000000
DFFF0000000000
BFFF6000000000
7FFFFCBBBBBBB3
1DFFFFFFFFFFF4
03EFFFFFFFFFF4
0019EFFFFFFFF4
000001CFF72220
000000CFF70000
000000CFF70000
ENDCHAR
STARTCHAR quotesingle
ENCODING 39
SWIDTH 238 0
DWIDTH 9 0
BBX 6 9 1 17
BITMAP
133333
3FFFFC
1FFFFA
0FFFF9
0EFFF8
0CFFF6
0BFFF5
09FFF3
06BBB2
ENDCHAR
STARTCHAR parenleft
ENCODING 40
SWIDTH 351 0
DWIDTH 13 0
BBX 11 33 1 -4
BITMAP
000007CCCCA0
00005FFFFF30
0001EFFFF700
0009FFFFD000
003FFFFF5000
009FFFFD0000
01FFFFF60000
05FFFFE10000
0AFFFFA00000
0EFFFF500000
2FFFFF100000
5FFFFD000000
7FFFFA000000
8FFFF8000000
9FFFF7000000
AFFFF6000000
AFFFF6000000
9FFFF7000000
8FFFF8000000
7FFFFB000000
4FFFFE000000
1FFFFF200000
0DFFFF600000
09FFFFB00000
04FFFFF10000
00EFFFF60000
009FFFFD0000
003FFFFF4000
000BFFFFC000
0003FFFFF400
0000AFFFFC00
00001EFFFF70
000005999980
ENDCHAR
STARTCHAR parenright
ENCODING 41
SWIDTH 351 0
DWIDTH 13 0
BBX 12 33 0 -4
BITMAP
2CCCCC300000
08FFFFD10000
00DFFFFA0000
004FFFFF4000
000BFFFFC000
0003FFFFF300
0000BFFFFA00
00005FFFFE00
00001FFFFF40
00000AFFFF80
000007FFFFB0
000003FFFFE0
000000FFFFF2
000000EFFFF3
000000DFFFF4
000000CFFFF5
000000CFFFF5
000000DFFFF4
000000EFFFF3
000001FFFFF1
000004FFFFD0
000008FFFFB0
00000CFFFF70
00002FFFFF30
00006FFFFE00
0000CFFFF900
0003FFFFF300
000AFFFFC000
002FFFFF5000
00AFFFFC0000
03FFFFF40000
0CFFFFA00000
399999100000
ENDCHAR
STARTCHAR asterisk
ENCODING 42
SWIDTH 589 0
DWIDTH 21 0
BBX 19 19 1 11
BITMAP
0000000DEEEE10000000
0000000EFFFF10000000
0000000EFFFF10000000
0020000EFFFF10002000
00DD500EFFFF103AF500
06FFFC5EFFFF5AFFFC00
1EFFFFFFFFFFFFFFFF40
8FFFFFFFFFFFFFFFFFB0
18FFFFFFFFFFFFFFFC40
002BFFFFFFFFFFFC5000
00004DFFFFFFFD500000
000009FFFFFFFA000000
00007FFFFFFFFF900000
0005FFFFFFFFFFF80000
003FFFFFF5DFFFFF8000
00CFFFFF703FFFFFF300
002DFFFA0006FFFF5000
0001CFD10000AFE40000
00001A2000001B200000
ENDCHAR
STARTCHAR plus
ENCODING 43
SWIDTH 485 0
DWIDTH 17 0
BBX 16 16 1 5
BITMAP
0000034444100000
00000AFFFF200000
00000AFFFF200000
00000AFFFF200000
00000AFFFF200000
12222AFFFF422220
9FFFFFFFFFFFFFF2
9FFFFFFFFFFFFFF2
9FFFFFFFFFFFFFF2
9FFFFFFFFFFFFFF2
6AAAADFFFFBAAAA1
00000AFFFF200000
00000AFFFF200000
00000AFFFF200000
00000AFFFF200000
0000047777100000
ENDCHAR
STARTCHAR comma
ENCODING 44
SWIDTH 264 0
DWIDTH 10 0
BBX 7 10 1 -5
BITMAP
007B9300
0AFFFF20
2FFFFF90
3FFFFFA0
1EFFFF90
04EFFF60
000EFF20
005FFA00
008FE200
00043000
ENDCHAR
STARTCHAR hyphen
ENCODING 45
SWIDTH 528 0
DWIDTH 19 0
BBX 15 6 2 10
BITMAP
2222222222222220
DFFFFFFFFFFFFFD0
DFFFFFFFFFFFFFD0
DFFFFFFFFFFFFFD0
DFFFFFFFFFFFFFD0
9AAAAAAAAAAAAA90
ENDCHAR
STARTCHAR period
ENCODING 46
SWIDTH 263 0
DWIDTH 9 0
BBX 7 7 1 -2
BITMAP
007B9300
0AFFFF20
2FFFFF90
3FFFFFA0
1EFFFF60
04DFF900
00031000
ENDCHAR
STARTCHAR slash
ENCODING 47
SWIDTH 490 0
DWIDTH 18 0
BBX 16 26 1 0
BITMAP
0000000000233332
0000000000DFFFF5
0000000004FFFFE0
000000000AFFFF80
000000002FFFFF20
000000008FFFFA00
00000000EFFFF400
00000005FFFFD000
0000000BFFFF7000
0000003FFFFE1000
0000009FFFF90000
000001EFFFF30000
000006FFFFC00000
00000CFFFF500000
00004FFFFE000000
0000AFFFF8000000
0001FFFFF2000000
0007FFFFB0000000
000DFFFF40000000
005FFFFD00000000
00BFFFF700000000
02FFFFF100000000
08FFFFA000000000
1EFFFF3000000000
6FFFFC0000000000
CFFFF60000000000
ENDCHAR
STARTCHAR zero
ENCODING 48
SWIDTH 642 0
DWIDTH 23 0
BBX 21 27 1 -1
BITMAP
0000000257876200000000
000004CFFFFFFFC5000000
00009FFFFFFFFFFFA00000
000AFFFFFFFFFFFFFB0000
006FFFFFFFFFFFFFFF7000
00EFFFFF94238FFFFFF100
06FFFFF4000003EFFFF700
0CFFFF800000006FFFFD00
1FFFFF100000000DFFFF20
3FFFFB0000000009FFFF50
5FFFF80000000006FFFF70
7FFFF60000000004FFFF90
7FFFF50000000003FFFF90
8FFFF50000000003FFFF90
7FFFF60000000003FFFF90
6FFFF70000000004FFFF80
5FFFF90000000006FFFF70
3FFFFC000000000AFFFF50
0EFFFF200000001EFFFF10
0AFFFFA00000008FFFFC00
04FFFFF7000005FFFFF600
00DFFFFFC757BFFFFFE100
003FFFFFFFFFFFFFFF5000
0007FFFFFFFFFFFFF90000
00006FFFFFFFFFFF800000
0000029EFFFFFEA2000000
0000000024543000000000
ENDCHAR
STARTCHAR one
ENCODING 49
SWIDTH 317 0
DWIDTH 11 0
BBX 8 26 1 0
BITMAP
23333333
9FFFFFFE
9FFFFFFE
9FFFFFFE
9FFFFFFE
8DDFFFFE
002FFFFE
002FFFFE
002FFFFE
002FFFFE
002FFFFE
002FFFFE
002FFFFE
002FFFFE
002FFFFE
002FFFFE
002FFFFE
002FFFFE
002FFFFE
002FFFFE
002FFFFE
002FFFFE
002FFFFE
002FFFFE
002FFFFE
002FFFFE
ENDCHAR
STARTCHAR two
ENCODING 50
SWIDTH 570 0
DWIDTH 21 0
BBX 19 26 1 0
BITMAP
01333333333200000000
05FFFFFFFFFFE9200000
05FFFFFFFFFFFFF60000
05FFFFFFFFFFFFFF6000
05FFFFFFFFFFFFFFF200
05DDDDDDDDDFFFFFF900
000000000001AFFFFE00
0000000000001FFFFF20
0000000000000EFFFF30
0000000000003FFFFF10
000000012225DFFFFD00
000039EFFFFFFFFFF700
0008FFFFFFFFFFFFD100
009FFFFFFFFFFFFE3000
05FFFFFFFFFFFFC20000
0CFFFFFFEEEDA5000000
3FFFFF91000000000000
5FFFFC00000000000000
7FFFF900000000000000
7FFFF900000000000000
7FFFF911111111111000
7FFFFFFFFFFFFFFFF800
7FFFFFFFFFFFFFFFF800
7FFFFFFFFFFFFFFFF800
7FFFFFFFFFFFFFFFF800
7FFFFFFFFFFFFFFFF800
ENDCHAR
STARTCHAR three
ENCODING 51
SWIDTH 586 0
DWIDTH 21 0
BBX 19 26 1 0
BITMAP
13333333333200000000
4FFFFFFFFFFFFA300000
4FFFFFFFFFFFFFF80000
4FFFFFFFFFFFFFFF9000
4FFFFFFFFFFFFFFFF500
3DDDDDDDDDDEFFFFFC00
0000000000008FFFFF20
0000000000000DFFFF50
0000000000000AFFFF60
0000000000001EFFFF40
000022222224BFFFFF10
0000FFFFFFFFFFFFFA00
0000FFFFFFFFFFFFE200
0000FFFFFFFFFFFFA000
0000FFFFFFFFFFFFF400
0000EEEEEEEFFFFFFB00
0000000000019FFFFF20
0000000000000DFFFF50
0000000000000AFFFF60
0000000000001DFFFF40
011111111113BFFFFF10
4FFFFFFFFFFFFFFFFB00
4FFFFFFFFFFFFFFFF300
4FFFFFFFFFFFFFFF6000
4FFFFFFFFFFFFFE50000
4FFFFFFFFFFEC7100000
ENDCHAR
STARTCHAR four
ENCODING 52
SWIDTH 630 0
DWIDTH 23 0
BBX 21 26 1 0
BITMAP
0003333300000000000000
004FFFFC00000000000000
006FFFFA00000000000000
008FFFF700004AAAA70000
00AFFFF500005FFFFA0000
00CFFFF300005FFFFA0000
00EFFFF100005FFFFA0000
01FFFFE000005FFFFA0000
04FFFFC000005FFFFA0000
06FFFF9000005FFFFA0000
08FFFF7000005FFFFA0000
0AFFFF5000005FFFFA0000
0CFFFF3000005FFFFA0000
0EFFFF1000005FFFFA0000
1FFFFE0000005FFFFA0000
3FFFFC1111116FFFFB1100
5FFFFFFFFFFFFFFFFFFF30
7FFFFFFFFFFFFFFFFFFF30
9FFFFFFFFFFFFFFFFFFF30
CFFFFFFFFFFFFFFFFFFF30
DEEEEEEEEEEEFFFFFFEE30
0000000000005FFFFA0000
0000000000005FFFFA0000
0000000000005FFFFA0000
0000000000005FFFFA0000
0000000000005FFFFA0000
ENDCHAR
STARTCHAR five
ENCODING 53
SWIDTH 585 0
DWIDTH 21 0
BBX 19 26 1 0
BITMAP
00233333333333333200
00DFFFFFFFFFFFFFFC00
00EFFFFFFFFFFFFFFC00
01FFFFFFFFFFFFFFFC00
02FFFFFFFFFFFFFFFC00
04FFFFEDDDDDDDDDDA00
05FFFFA0000000000000
07FFFF90000000000000
08FFFF70000000000000
0AFFFF60000000000000
0BFFFFDDDDDCA6100000
0DFFFFFFFFFFFFE60000
0EFFFFFFFFFFFFFF9000
1FFFFFFFFFFFFFFFF700
2FFFFFFFFFFFFFFFFE10
133333333335BFFFFF60
0000000000000BFFFFA0
00000000000005FFFFC0
00000000000004FFFFC0
00000000000009FFFFA0
0111111111128FFFFF70
4FFFFFFFFFFFFFFFFF20
4FFFFFFFFFFFFFFFF800
4FFFFFFFFFFFFFFFB000
4FFFFFFFFFFFFFF90000
4FFFFFFFFFFEC9300000
ENDCHAR
STARTCHAR six
ENCODING 54
SWIDTH 615 0
DWIDTH 22 0
BBX 20 27 1 -1
BITMAP
00000002333333000000
0000006FFFFFE5000000
000006FFFFFD20000000
00004FFFFFD200000000
0001EFFFFD1000000000
000AFFFFE30000000000
003FFFFF600000000000
00BFFFFB4ACBA6200000
02FFFFFDFFFFFFF91000
08FFFFFFFFFFFFFFD200
0CFFFFFFFFFFFFFFFD10
1FFFFFFFFEDFFFFFFF90
4FFFFFFC30016EFFFFF1
6FFFFFD1000004FFFFF6
8FFFFF400000009FFFFA
9FFFFE000000004FFFFC
AFFFFC000000002FFFFD
9FFFFD000000003FFFFD
7FFFFF100000006FFFFB
3FFFFF80000000DFFFF8
0DFFFFF600000AFFFFF3
06FFFFFFB657DFFFFFB0
00CFFFFFFFFFFFFFFF30
001DFFFFFFFFFFFFF600
0001CFFFFFFFFFFF6000
000006EFFFFFFFB30000
000000048AA972000000
ENDCHAR
STARTCHAR seven
ENCODING 55
SWIDTH 516 0
DWIDTH 19 0
BBX 19 26 0 0
BITMAP
03333333333333333310
2FFFFFFFFFFFFFFFFF40
2FFFFFFFFFFFFFFFFE00
2FFFFFFFFFFFFFFFF900
2FFFFFFFFFFFFFFFF400
2DDDDDDDDDDEFFFFD000
00000000000AFFFF8000
00000000001EFFFF3000
00000000005FFFFD0000
0000000000BFFFF80000
0000000001FFFFF30000
0000000006FFFFD00000
000000000BFFFF800000
000000002FFFFF200000
000000007FFFFC000000
00000000CFFFF7000000
00000002FFFFF2000000
00000008FFFFC0000000
0000000DFFFF70000000
0000003FFFFF20000000
0000009FFFFC00000000
000000EFFFF600000000
000004FFFFF100000000
000009FFFFB000000000
00000EFFFF6000000000
00005FFFFF1000000000
ENDCHAR
STARTCHAR eight
ENCODING 56
SWIDTH 618 0
DWIDTH 22 0
BBX 20 27 1 -1
BITMAP
00000049DEFDA6000000
00002CFFFFFFFFD40000
0003EFFFFFFFFFFF7000
001EFFFFFFFFFFFFF500
009FFFFFFDCEFFFFFD00
01EFFFFC20019FFFFF40
03FFFFE100000BFFFF70
03FFFFB0000006FFFF80
01FFFFD0000008FFFF50
00CFFFF800004FFFFF10
005FFFFFC87AFFFFFA00
000BFFFFFFFFFFFFE200
0004FFFFFFFFFFFF8000
005FFFFFFFFFFFFFF900
04FFFFFFDAACFFFFFF70
0DFFFFE600003CFFFFF2
5FFFFE20000000CFFFF8
9FFFF8000000004FFFFD
BFFFF5000000001FFFFE
AFFFF6000000002FFFFE
7FFFFD100000009FFFFB
2FFFFFB3000019FFFFF6
09FFFFFFB88AEFFFFFC0
01BFFFFFFFFFFFFFFD20
001AFFFFFFFFFFFFC200
00004BFFFFFFFFC60000
00000025899863000000
ENDCHAR
STARTCHAR nine
ENCODING 57
SWIDTH 616 0
DWIDTH 22 0
BBX 20 26 1 0
BITMAP
00000049CDDB83000000
00004CFFFFFFFFB20000
0007FFFFFFFFFFFE5000
006FFFFFFFFFFFFFF400
03FFFFFFFFFFFFFFFE20
0AFFFFFC5237EFFFFFA0
2FFFFF9000002DFFFFF2
6FFFFD00000004FFFFF7
9FFFF800000000DFFFFA
BFFFF5000000009FFFFB
BFFFF5000000009FFFFC
AFFFF700000000CFFFFB
7FFFFD00000003FFFFFA
3FFFFF8000001CFFFFF8
0DFFFFFB4126DFFFFFF6
05FFFFFFFFFFFFFFFFF2
009FFFFFFFFFFFFFFFD0
0009FFFFFFFFFFFFFF80
00005DFFFFFFCFFFFF30
000000378983BFFFFB00
000000000006FFFFF400
00000000003EFFFFA000
0000000002DFFFFE1000
000000002DFFFFF40000
00000003DFFFFF500000
0000007FFFFFF5000000
ENDCHAR
STARTCHAR colon
ENCODING 58
SWIDTH 276 0
DWIDTH 10 0
BBX 6 17 2 -2
BITMAP
06CC60
7FFFF7
DFFFFD
EFFFFE
9FFFF9
1AFFA1
001100
000000
000000
000000
05AA50
6FFFF6
DFFFFD
EFFFFE
AFFFFA
1CFFC1
002200
ENDCHAR
STARTCHAR semicolon
ENCODING 59
SWIDTH 276 0
DWIDTH 10 0
BBX 6 20 2 -5
BITMAP
06CC60
7FFFF7
DFFFFD
EFFFFE
9FFFF9
1AFFA1
001100
000000
000000
000000
05AA50
6FFFF6
DFFFFD
EFFFFE
AFFFFD
1CFFFA
00BFF6
02FFD0
05EF50
002500
ENDCHAR
STARTCHAR less
ENCODING 60
SWIDTH 478 0
DWIDTH 17 0
BBX 15 22 1 3
BITMAP
0000000000400000
0000000005FB1000
000000004FFFB100
00000004FFFFFC10
0000003EFFFFFD20
000003EFFFFFD200
00003EFFFFFD2000
0002EFFFFFD20000
002DFFFFFD200000
02DFFFFFD2000000
1DFFFFFD20000000
AFFFFFF900000000
1CFFFFFF90000000
01BFFFFFFA000000
000BFFFFFFB10000
0000AFFFFFFC1000
000009FFFFFFD200
0000008FFFFFFE20
00000007FFFFFB00
000000006FFFC100
0000000005FD2000
0000000000520000
ENDCHAR
STARTCHAR equal
ENCODING 61
SWIDTH 539 0
DWIDTH 19 0
BBX 16 13 2 6
BITMAP
8BBBBBBBBBBBBBB1
BFFFFFFFFFFFFFF1
BFFFFFFFFFFFFFF1
BFFFFFFFFFFFFFF1
BFFFFFFFFFFFFFF1
1111111111111110
0000000000000000
5888888888888880
BFFFFFFFFFFFFFF1
BFFFFFFFFFFFFFF1
BFFFFFFFFFFFFFF1
BFFFFFFFFFFFFFF1
3444444444444440
ENDCHAR
STARTCHAR greater
ENCODING 62
SWIDTH 478 0
DWIDTH 17 0
BBX 15 22 1 3
BITMAP
0000400000000000
0008F80000000000
009FFF7000000000
0AFFFFF700000000
1BFFFFFF60000000
01BFFFFFF5000000
001BFFFFFF500000
0001BFFFFFF50000
00001BFFFFFF4000
000001BFFFFFE400
0000001BFFFFFE30
00000005FFFFFFD0
0000006FFFFFFE30
000007FFFFFFD200
00009FFFFFFD2000
000AFFFFFFC10000
01BFFFFFFB100000
1CFFFFFFB1000000
09FFFFFA00000000
00AFFF9000000000
000BF80000000000
0001600000000000
ENDCHAR
STARTCHAR question
ENCODING 63
SWIDTH 603 0
DWIDTH 22 0
BBX 20 28 1 -2
BITMAP
23333333333321000000
9FFFFFFFFFFFFFB40000
9FFFFFFFFFFFFFFFA000
9FFFFFFFFFFFFFFFFB00
9FFFFFFFFFFFFFFFFF60
8DDDDDDDDDDDEFFFFFE0
00000000000007FFFFF4
00000000000000BFFFF6
000000000000009FFFF7
00000000000000DFFFF6
0000000000013AFFFFF3
000000003AEFFFFFFFC0
00000008FFFFFFFFFF40
0000008FFFFFFFFFF700
000004FFFFFFFFFE5000
00000BFFFFFFDB710000
00001FFFFF8100000000
00003FFFFE0000000000
00004FFFFC0000000000
00003CCCC90000000000
00000000000000000000
0000039B700000000000
00003FFFFA0000000000
00009FFFFF2000000000
0000AFFFFF3000000000
00006FFFFE0000000000
000009FFD40000000000
00000013000000000000
ENDCHAR
STARTCHAR at
ENCODING 64
SWIDTH 629 0
DWIDTH 23 0
BBX 21 21 1 -1
BITMAP
0000000145653000000000
000003AEFFFFFE92000000
00009FFFFFFFFFFF700000
000BFFFFFFEFFFFFF90000
009FFFFA40014BFFFF7000
04FFFE400002448EFFF200
0CFFF3028BBBFFD5FFFA00
2FFF803EFFFFFFD0AFFE00
6FFF20CFFFFFFFD04FFF40
8FFD02FFF96DFFD00FFF60
9FFC04FFF007FFD00DFF70
8FFC03FFF51BFFD00EFF70
6FFF10EFFFFFFFFCCFFF40
2FFF606FFFFFFFFFFFFE10
0CFFE106DFFEFFFFFFF900
04FFFC1001101111111000
009FFFE600000000000000
000BFFFFEBAC8000000000
00009FFFFFFFC000000000
000004CFFFFFF100000000
0000000379A97100000000
ENDCHAR
STARTCHAR A
ENCODING 65
SWIDTH 673 0
DWIDTH 24 0
BBX 21 26 2 0
BITMAP
0000000012210000000000
0000017CFFFFD930000000
00007EFFFFFFFFF9100000
000AFFFFFFFFFFFFC20000
009FFFFFFFFFFFFFFC1000
05FFFFFFFEDFFFFFFF9000
0DFFFFF920017EFFFFF300
5FFFFF60000003EFFFF900
9FFFFB000000007FFFFE00
CFFFF4000000001FFFFF10
EFFFF2000000000DFFFF30
EFFFF1000000000CFFFF30
EFFFF1000000000CFFFF30
EFFFF1000000000CFFFF30
EFFFF1000000000CFFFF30
EFFFF2111111111DFFFF30
EFFFFFFFFFFFFFFFFFFF30
EFFFFFFFFFFFFFFFFFFF30
EFFFFFFFFFFFFFFFFFFF30
EFFFFFFFFFFFFFFFFFFF30
EFFFFEEEEEEEEEEFFFFF30
EFFFF1000000000CFFFF30
EFFFF1000000000CFFFF30
EFFFF1000000000CFFFF30
EFFFF1000000000CFFFF30
EFFFF1000000000CFFFF30
ENDCHAR
STARTCHAR B
ENCODING 66
SWIDTH 666 0
DWIDTH 24 0
BBX 21 26 2 0
BITMAP
2333333333333210000000
AFFFFFFFFFFFFFFB400000
AFFFFFFFFFFFFFFFF90000
AFFFFFFFFFFFFFFFFFA000
AFFFFFFFFFFFFFFFFFF600
AFFFFEDDDDDDDEFFFFFD00
AFFFF6000000007FFFFF40
AFFFF6000000000BFFFF60
AFFFF60000000009FFFF70
AFFFF6000000000DFFFF50
AFFFF722222223BFFFFE10
AFFFFFFFFFFFFFFFFFF800
AFFFFFFFFFFFFFFFFFC100
AFFFFFFFFFFFFFFFFF2000
AFFFFFFFFFFFFFFFFFE200
AFFFFEEEEEEEEFFFFFFA00
AFFFF6000000018FFFFF20
AFFFF6000000000CFFFF60
AFFFF60000000009FFFF70
AFFFF6000000000CFFFF60
AFFFF611111112AFFFFF30
AFFFFFFFFFFFFFFFFFFC00
AFFFFFFFFFFFFFFFFFF400
AFFFFFFFFFFFFFFFFF8000
AFFFFFFFFFFFFFFFE60000
AFFFFFFFFFFFFEC8200000
ENDCHAR
STARTCHAR C
ENCODING 67
SWIDTH 640 0
DWIDTH 23 0
BBX 22 27 1 -1
BITMAP
0000000001478864100000
00000005BFFFFFFFFB4000
000002CFFFFFFFFFFFFC20
00005FFFFFFFFFFFFFFFE3
0006FFFFFFFFFFFFFFFFD0
004FFFFFFFEA88AEFFFF40
01DFFFFFD50000005DFA00
08FFFFFA1000000001A200
1EFFFFB000000000000000
6FFFFF2000000000000000
AFFFF90000000000000000
DFFFF40000000000000000
FFFFF10000000000000000
FFFFF00000000000000000
FFFFF10000000000000000
DFFFF40000000000000000
AFFFF90000000000000000
6FFFFF2000000000000000
1EFFFFC000000000000000
08FFFFFB1000000001A200
01DFFFFFD50000005DFA00
004FFFFFFFEA88AEFFFF50
0006FFFFFFFFFFFFFFFFD1
00005FFFFFFFFFFFFFFFE3
000002CFFFFFFFFFFFFC20
00000004BFFFFFFFFB4000
0000000001478864100000
ENDCHAR
STARTCHAR D
ENCODING 68
SWIDTH 653 0
DWIDTH 24 0
BBX 21 26 2 0
BITMAP
2333333321000000000000
AFFFFFFFFFEA5000000000
AFFFFFFFFFFFFD50000000
AFFFFFFFFFFFFFFA100000
AFFFFFFFFFFFFFFFC10000
AFFFFEDDEFFFFFFFFB0000
AFFFF600015CFFFFFF7000
AFFFF60000006FFFFFE100
AFFFF600000005FFFFF800
AFFFF600000000AFFFFD00
AFFFF6000000002FFFFF30
AFFFF6000000000CFFFF60
AFFFF60000000009FFFF70
AFFFF60000000008FFFF80
AFFFF60000000009FFFF70
AFFFF6000000000DFFFF50
AFFFF6000000003FFFFF20
AFFFF600000000BFFFFC00
AFFFF600000008FFFFF700
AFFFF60000019FFFFFD100
AFFFF711138EFFFFFF5000
AFFFFFFFFFFFFFFFF80000
AFFFFFFFFFFFFFFF900000
AFFFFFFFFFFFFFF7000000
AFFFFFFFFFFFFA20000000
AFFFFFFFFDB72000000000
ENDCHAR
STARTCHAR E
ENCODING 69
SWIDTH 578 0
DWIDTH 21 0
BBX 18 26 2 0
BITMAP
233333333333333332
AFFFFFFFFFFFFFFFF9
AFFFFFFFFFFFFFFFF9
AFFFFFFFFFFFFFFFF9
AFFFFFFFFFFFFFFFF9
AFFFFEDDDDDDDDDDD8
AFFFF6000000000000
AFFFF6000000000000
AFFFF6000000000000
AFFFF6000000000000
AFFFF7222222210000
AFFFFFFFFFFFFA0000
AFFFFFFFFFFFFA0000
AFFFFFFFFFFFFA0000
AFFFFFFFFFFFFA0000
AFFFFEEEEEEEE90000
AFFFF6000000000000
AFFFF6000000000000
AFFFF6000000000000
AFFFF6000000000000
AFFFF6111111111110
AFFFFFFFFFFFFFFFF9
AFFFFFFFFFFFFFFFF9
AFFFFFFFFFFFFFFFF9
AFFFFFFFFFFFFFFFF9
AFFFFFFFFFFFFFFFF9
ENDCHAR
STARTCHAR F
ENCODING 70
SWIDTH 562 0
DWIDTH 20 0
BBX 18 26 2 0
BITMAP
233333333333333333
AFFFFFFFFFFFFFFFFF
AFFFFFFFFFFFFFFFFF
AFFFFFFFFFFFFFFFFF
AFFFFFFFFFFFFFFFFF
AFFFFEDDDDDDDDDDDC
AFFFF6000000000000
AFFFF6000000000000
AFFFF6000000000000
AFFFF6000000000000
AFFFF7222222200000
AFFFFFFFFFFFE00000
AFFFFFFFFFFFE00000
AFFFFFFFFFFFE00000
AFFFFFFFFFFFE00000
AFFFFEEEEEEED00000
AFFFF6000000000000
AFFFF6000000000000
AFFFF6000000000000
AFFFF6000000000000
AFFFF6000000000000
AFFFF6000000000000
AFFFF6000000000000
AFFFF6000000000000
AFFFF6000000000000
AFFFF6000000000000
ENDCHAR
STARTCHAR G
ENCODING 71
SWIDTH 665 0
DWIDTH 24 0
BBX 22 27 1 -1
BITMAP
0000000000367753000000
00000004AEFFFFFFEA3000
000002BFFFFFFFFFFFFB10
00005EFFFFFFFFFFFFFFE2
0006FFFFFFFFFFFFFFFFD0
004FFFFFFFEA89AEFFFF40
01DFFFFFD50000006EFA00
08FFFFFB1000000001B200
1EFFFFC000000000000000
6FFFFF2000000000000000
AFFFF90000000000000000
DFFFF40000000000000000
FFFFF10000000000000000
FFFFF00000000000488883
FFFFF100000000007FFFF6
DFFFF400000000007FFFF6
AFFFF900000000007FFFF6
6FFFFF20000000007FFFF6
1EFFFFB0000000007FFFF6
08FFFFFA100000007FFFF6
01EFFFFFD50000009FFFF6
004FFFFFFFD988AEFFFFF6
0006FFFFFFFFFFFFFFFFF6
00005FFFFFFFFFFFFFFFE3
000003CFFFFFFFFFFFFB20
00000005BFFFFFFFFB4000
0000000001478864100000
ENDCHAR
STARTCHAR H
ENCODING 72
SWIDTH 689 0
DWIDTH 25 0
BBX 21 26 2 0
BITMAP
2333310000000002333320
AFFFF60000000008FFFF80
AFFFF60000000008FFFF80
AFFFF60000000008FFFF80
AFFFF60000000008FFFF80
AFFFF60000000008FFFF80
AFFFF60000000008FFFF80
AFFFF60000000008FFFF80
AFFFF60000000008FFFF80
AFFFF60000000008FFFF80
AFFFF72222222229FFFF80
AFFFFFFFFFFFFFFFFFFF80
AFFFFFFFFFFFFFFFFFFF80
AFFFFFFFFFFFFFFFFFFF80
AFFFFFFFFFFFFFFFFFFF80
AFFFFEEEEEEEEEEEFFFF80
AFFFF60000000008FFFF80
AFFFF60000000008FFFF80
AFFFF60000000008FFFF80
AFFFF60000000008FFFF80
AFFFF60000000008FFFF80
AFFFF60000000008FFFF80
AFFFF60000000008FFFF80
AFFFF60000000008FFFF80
AFFFF60000000008FFFF80
AFFFF60000000008FFFF80
ENDCHAR
STARTCHAR I
ENCODING 73
SWIDTH 270 0
DWIDTH 10 0
BBX 6 26 2 0
BITMAP
233331
AFFFF6
AFFFF6
AFFFF6
AFFFF6
AFFFF6
AFFFF6
AFFFF6
AFFFF6
AFFFF6
AFFFF6
AFFFF6
AFFFF6
AFFFF6
AFFFF6
AFFFF6
AFFFF6
AFFFF6
AFFFF6
AFFFF6
AFFFF6
AFFFF6
AFFFF6
AFFFF6
AFFFF6
AFFFF6
ENDCHAR
STARTCHAR J
ENCODING 74
SWIDTH 416 0
DWIDTH 15 0
BBX 13 26 0 0
BITMAP
00000000333330
00000001FFFFE0
00000001FFFFE0
00000001FFFFE0
00000001FFFFE0
00000001FFFFE0
00000001FFFFE0
00000001FFFFE0
00000001FFFFE0
00000001FFFFE0
00000001FFFFE0
00000001FFFFE0
00000001FFFFE0
00000001FFFFE0
00000001FFFFE0
00000001FFFFE0
00000002FFFFD0
00000005FFFFC0
0000000CFFFF90
0000009FFFFF40
64125CFFFFFC00
AFFFFFFFFFF400
AFFFFFFFFF7000
AFFFFFFFF70000
AFFFFFFC400000
7DFED950000000
ENDCHAR
STARTCHAR K
ENCODING 75
SWIDTH 625 0
DWIDTH 23 0
BBX 21 26 2 0
BITMAP
2333310000000013333310
AFFFF600000000BFFFFD10
AFFFF600000008FFFFF400
AFFFF60000004FFFFF7000
AFFFF6000001EFFFFB0000
AFFFF600000BFFFFD10000
AFFFF600007FFFFF400000
AFFFF60004FFFFF7000000
AFFFF6001DFFFFB0000000
AFFFF600BFFFFD10000000
AFFFF607FFFFF400000000
AFFFF63FFFFFA000000000
AFFFF7DFFFFFF200000000
AFFFFEFFFFFFFA00000000
AFFFFFFFFFFFFF30000000
AFFFFFFFFFFFFFB0000000
AFFFFFFFB6FFFFF5000000
AFFFFFFD10DFFFFD000000
AFFFFFF3005FFFFF600000
AFFFFF70000BFFFFE10000
AFFFFB000003FFFFF70000
AFFFF6000000AFFFFE1000
AFFFF60000002FFFFF9000
AFFFF600000009FFFFF200
AFFFF600000001EFFFFA00
AFFFF6000000008FFFFF30
ENDCHAR
STARTCHAR L
ENCODING 76
SWIDTH 562 0
DWIDTH 20 0
BBX 18 26 2 0
BITMAP
233331000000000000
AFFFF6000000000000
AFFFF6000000000000
AFFFF6000000000000
AFFFF6000000000000
AFFFF6000000000000
AFFFF6000000000000
AFFFF6000000000000
AFFFF6000000000000
AFFFF6000000000000
AFFFF6000000000000
AFFFF6000000000000
AFFFF6000000000000
AFFFF6000000000000
AFFFF6000000000000
AFFFF6000000000000
AFFFF6000000000000
AFFFF6000000000000
AFFFF6000000000000
AFFFF6000000000000
AFFFF6111111111111
AFFFFFFFFFFFFFFFFF
AFFFFFFFFFFFFFFFFF
AFFFFFFFFFFFFFFFFF
AFFFFFFFFFFFFFFFFF
AFFFFFFFFFFFFFFFFF
ENDCHAR
STARTCHAR M
ENCODING 77
SWIDTH 819 0
DWIDTH 30 0
BBX 26 26 2 0
BITMAP
00000378751000036875100000
0004CFFFFFE803CFFFFFF81000
007FFFFFFFFFCFFFFFFFFFC200
05FFFFFFFFFFFFFFFFFFFFFC00
1EFFFFFFFFFFFFFFFFFFFFFF70
6FFFFFD8AFFFFFFFD8AFFFFFD0
AFFFFB0005FFFFFC1004FFFFF3
CFFFF40000DFFFF60000CFFFF5
DFFFF30000CFFFF40000AFFFF5
DFFFF30000CFFFF40000AFFFF5
DFFFF30000CFFFF40000AFFFF5
DFFFF30000CFFFF40000AFFFF5
DFFFF30000CFFFF40000AFFFF5
DFFFF30000CFFFF40000AFFFF5
DFFFF30000CFFFF40000AFFFF5
DFFFF30000CFFFF40000AFFFF5
DFFFF30000CFFFF40000AFFFF5
DFFFF30000CFFFF40000AFFFF5
DFFFF30000CFFFF40000AFFFF5
DFFFF30000CFFFF40000AFFFF5
DFFFF30000CFFFF40000AFFFF5
DFFFF30000CFFFF40000AFFFF5
DFFFF30000CFFFF40000AFFFF5
DFFFF30000CFFFF40000AFFFF5
DFFFF30000CFFFF40000AFFFF5
DFFFF30000CFFFF40000AFFFF5
ENDCHAR
STARTCHAR N
ENCODING 78
SWIDTH 689 0
DWIDTH 25 0
BBX 21 26 2 0
BITMAP
2333320000000002333320
AFFFFF2000000008FFFF80
AFFFFFB000000008FFFF80
AFFFFFF500000008FFFF80
AFFFFFFD00000008FFFF80
AFFFFFFF70000008FFFF80
AFFFFFFFE2000008FFFF80
AFFFFFFFFA000008FFFF80
AFFFFFFFFF400008FFFF80
AFFFFDFFFFC00008FFFF80
AFFFF7EFFFF60008FFFF80
AFFFF66FFFFE1008FFFF80
AFFFF60CFFFF9008FFFF80
AFFFF603FFFFF308FFFF80
AFFFF6009FFFFB08FFFF80
AFFFF6001EFFFF58FFFF80
AFFFF60007FFFFD9FFFF80
AFFFF60000DFFFFEFFFF80
AFFFF600004FFFFFFFFF80
AFFFF600000BFFFFFFFF80
AFFFF6000002FFFFFFFF80
AFFFF60000008FFFFFFF80
AFFFF60000001DFFFFFF80
AFFFF600000005FFFFFF80
AFFFF600000000CFFFFF80
AFFFF6000000003FFFFF80
ENDCHAR
STARTCHAR O
ENCODING 79
SWIDTH 777 0
DWIDTH 28 0
BBX 26 27 1 -1
BITMAP
00000000014677641000000000
00000004AFFFFFFFFB40000000
000002BFFFFFFFFFFFFC200000
00005EFFFFFFFFFFFFFFF50000
0006FFFFFFFFFFFFFFFFFF6000
004FFFFFFFEA88AEFFFFFFF400
01DFFFFFD50000005DFFFFFE10
08FFFFFA1000000001AFFFFF80
1EFFFFB000000000000BFFFFE1
6FFFFF20000000000002FFFFF6
AFFFF9000000000000009FFFFA
DFFFF4000000000000004FFFFD
FFFFF1000000000000001FFFFE
FFFFF0000000000000000FFFFF
FFFFF1000000000000001FFFFE
DFFFF4000000000000004FFFFD
AFFFF9000000000000009FFFFA
6FFFFF20000000000002FFFFF6
1EFFFFC000000000000CFFFFE1
08FFFFFB1000000001BFFFFF80
01DFFFFFD50000005DFFFFFE10
004FFFFFFFEA88AEFFFFFFF400
0006FFFFFFFFFFFFFFFFFF6000
00005FFFFFFFFFFFFFFFF50000
000002CFFFFFFFFFFFFC300000
00000004BFFFFFFFFB50000000
00000000014788741000000000
ENDCHAR
STARTCHAR P
ENCODING 80
SWIDTH 642 0
DWIDTH 23 0
BBX 21 26 2 0
BITMAP
2333333333320000000000
AFFFFFFFFFFFEB50000000
AFFFFFFFFFFFFFFC300000
AFFFFFFFFFFFFFFFE40000
AFFFFFFFFFFFFFFFFF3000
AFFFFEDDDDDEFFFFFFD100
AFFFF60000005DFFFFF700
AFFFF600000001CFFFFD00
AFFFF6000000003FFFFF30
AFFFF6000000000BFFFF60
AFFFF60000000009FFFF70
AFFFF60000000009FFFF70
AFFFF6000000000DFFFF50
AFFFF6000000005FFFFF20
AFFFF600000003EFFFFC00
AFFFF71111138FFFFFF500
AFFFFFFFFFFFFFFFFFB000
AFFFFFFFFFFFFFFFFD1000
AFFFFFFFFFFFFFFFC20000
AFFFFFFFFFFFFFF8100000
AFFFFFEEEEEDB610000000
AFFFF60000000000000000
AFFFF60000000000000000
AFFFF60000000000000000
AFFFF60000000000000000
AFFFF60000000000000000
ENDCHAR
STARTCHAR Q
ENCODING 81
SWIDTH 777 0
DWIDTH 28 0
BBX 26 32 1 -6
BITMAP
00000000014677641000000000
00000004AFFFFFFFFB40000000
000002BFFFFFFFFFFFFC200000
00005EFFFFFFFFFFFFFFF50000
0006FFFFFFFFFFFFFFFFFF6000
004FFFFFFFEA88AEFFFFFFF400
01DFFFFFD50000005DFFFFFE10
08FFFFFA1000000001AFFFFF80
1EFFFFB000000000000BFFFFE1
6FFFFF20000000000002FFFFF6
AFFFF9000000000000009FFFFA
DFFFF4000000000000004FFFFD
FFFFF1000000000000001FFFFE
FFFFF0000000000000000FFFFF
FFFFF1000000000000001FFFFE
DFFFF4000000000000004FFFFD
AFFFF9000000000000009FFFFA
6FFFFF20000000000002FFFFF6
1EFFFFC000000000000CFFFFE1
08FFFFFB1000000001BFFFFF80
01DFFFFFD50000005DFFFFFD10
004FFFFFFFEA88AEFFFFFFF400
0006FFFFFFFFFFFFFFFFFF6000
00005FFFFFFFFFFFFFFFE50000
000002CFFFFFFFFFFFFC300000
00000004BFFFFFFFFFE1000000
00000000014788EFFFF9000000
000000000000007FFFFF400000
000000000000000BFFFFD10000
0000000000000002EFFFF90000
00000000000000006FFFFF4000
00000000000000000111110000
ENDCHAR
STARTCHAR R
ENCODING 82
SWIDTH 651 0
DWIDTH 23 0
BBX 21 26 2 0
BITMAP
2333333333320000000000
AFFFFFFFFFFFEB50000000
AFFFFFFFFFFFFFFC300000
AFFFFFFFFFFFFFFFE40000
AFFFFFFFFFFFFFFFFF3000
AFFFFEDDDDDEFFFFFFD100
AFFFF60000005DFFFFF700
AFFFF600000001CFFFFD00
AFFFF6000000003FFFFF30
AFFFF6000000000BFFFF60
AFFFF60000000009FFFF70
AFFFF60000000009FFFF70
AFFFF6000000000DFFFF50
AFFFF6000000005FFFFF20
AFFFF600000003EFFFFC00
AFFFF71111138FFFFFF500
AFFFFFFFFFFFFFFFFFB000
AFFFFFFFFFFFFFFFFD2000
AFFFFFFFFFFFFFFFC20000
AFFFFFFFFFFFFFFE100000
AFFFFFEEEEEFFFFF400000
AFFFF600000BFFFFA00000
AFFFF6000004FFFFF20000
AFFFF6000000DFFFF80000
AFFFF60000006FFFFE0000
AFFFF60000001EFFFF6000
ENDCHAR
STARTCHAR S
ENCODING 83
SWIDTH 610 0
DWIDTH 22 0
BBX 21 26 0 0
BITMAP
0000000233333333333300
000029EFFFFFFFFFFFFF00
0005EFFFFFFFFFFFFFFF00
005FFFFFFFFFFFFFFFFF00
01EFFFFFFFFFFFFFFFFF00
08FFFFFFDDDDDDDDDDDC00
0DFFFFB100000000000000
1FFFFF2000000000000000
2FFFFE0000000000000000
0FFFFF3000000000000000
0CFFFFD522222200000000
06FFFFFFFFFFFFFC710000
00DFFFFFFFFFFFFFFD3000
002EFFFFFFFFFFFFFFE300
0002CFFFFFFFFFFFFFFD00
000005ADEEEEEEFFFFFF60
000000000000003DFFFFB0
0000000000000004FFFFE0
0000000000000001FFFFF0
0000000000000005FFFFE0
000111111111115EFFFFB0
00BFFFFFFFFFFFFFFFFF50
00BFFFFFFFFFFFFFFFFC00
00BFFFFFFFFFFFFFFFE200
00BFFFFFFFFFFFFFFC2000
00BFFFFFFFFFFFEA500000
ENDCHAR
STARTCHAR T
ENCODING 84
SWIDTH 578 0
DWIDTH 21 0
BBX 21 26 0 0
BITMAP
2333333333333333333310
AFFFFFFFFFFFFFFFFFFF70
AFFFFFFFFFFFFFFFFFFF70
AFFFFFFFFFFFFFFFFFFF70
AFFFFFFFFFFFFFFFFFFF70
9DDDDDDDFFFFFDDDDDDD60
00000002FFFFE000000000
00000002FFFFE000000000
00000002FFFFE000000000
00000002FFFFE000000000
00000002FFFFE000000000
00000002FFFFE000000000
00000002FFFFE000000000
00000002FFFFE000000000
00000002FFFFE000000000
00000002FFFFE000000000
00000002FFFFE000000000
00000002FFFFE000000000
00000002FFFFE000000000
00000002FFFFE000000000
00000002FFFFE000000000
00000002FFFFE000000000
00000002FFFFE000000000
00000002FFFFE000000000
00000002FFFFE000000000
00000002FFFFE000000000
ENDCHAR
STARTCHAR U
ENCODING 85
SWIDTH 673 0
DWIDTH 24 0
BBX 21 26 2 0
BITMAP
3333300000000003333310
EFFFF1000000000CFFFF30
EFFFF1000000000CFFFF30
EFFFF1000000000CFFFF30
EFFFF1000000000CFFFF30
EFFFF1000000000CFFFF30
EFFFF1000000000CFFFF30
EFFFF1000000000CFFFF30
EFFFF1000000000CFFFF30
EFFFF1000000000CFFFF30
EFFFF1000000000CFFFF30
EFFFF1000000000CFFFF30
EFFFF1000000000CFFFF30
EFFFF1000000000CFFFF30
EFFFF1000000000CFFFF30
EFFFF1000000000CFFFF30
DFFFF2000000000DFFFF20
CFFFF5000000002FFFFF10
9FFFFC000000008FFFFD00
4FFFFF90000006FFFFF800
0CFFFFFC5214AFFFFFE200
04FFFFFFFFFFFFFFFF8000
007FFFFFFFFFFFFFFB0000
0007FFFFFFFFFFFFA10000
00004CFFFFFFFFE6000000
00000059DEEDA610000000
ENDCHAR
STARTCHAR V
ENCODING 86
SWIDTH 602 0
DWIDTH 22 0
BBX 22 26 0 0
BITMAP
3333320000000001333332
BFFFFE0000000006FFFFF6
6FFFFF400000000AFFFFF1
1FFFFF900000000EFFFFB0
0BFFFFD00000004FFFFF60
06FFFFF30000009FFFFF10
02FFFFF7000000DFFFFB00
00CFFFFC000003FFFFF600
007FFFFF100007FFFFF100
002FFFFF60000CFFFFB000
000CFFFFA0001FFFFF6000
0007FFFFE0006FFFFF1000
0002FFFFF400AFFFFB0000
0000CFFFF800EFFFF70000
00007FFFFD04FFFFF20000
00002FFFFF29FFFFC00000
00000CFFFF7DFFFF700000
000008FFFFDFFFFF200000
000003FFFFFFFFFC000000
000000DFFFFFFFF7000000
0000008FFFFFFFF2000000
0000003FFFFFFFC0000000
0000000DFFFFFF70000000
00000008FFFFFF20000000
00000003FFFFFC00000000
00000000DFFFF700000000
ENDCHAR
STARTCHAR W
ENCODING 87
SWIDTH 819 0
DWIDTH 30 0
BBX 26 27 2 -1
BITMAP
33333100002333310000233331
DFFFF30000CFFFF40000AFFFF5
DFFFF30000CFFFF40000AFFFF5
DFFFF30000CFFFF40000AFFFF5
DFFFF30000CFFFF40000AFFFF5
DFFFF30000CFFFF40000AFFFF5
DFFFF30000CFFFF40000AFFFF5
DFFFF30000CFFFF40000AFFFF5
DFFFF30000CFFFF40000AFFFF5
DFFFF30000CFFFF40000AFFFF5
DFFFF30000CFFFF40000AFFFF5
DFFFF30000CFFFF40000AFFFF5
DFFFF30000CFFFF40000AFFFF5
DFFFF30000CFFFF40000AFFFF5
DFFFF30000CFFFF40000AFFFF5
DFFFF30000CFFFF40000AFFFF5
DFFFF30000CFFFF40000AFFFF5
DFFFF30000CFFFF40000AFFFF5
DFFFF30000CFFFF40000AFFFF5
CFFFF50000EFFFF60000CFFFF4
9FFFFD1008FFFFFD2006FFFFF2
5FFFFFEBDFFFFFFFEBCFFFFFC0
0CFFFFFFFFFFFFFFFFFFFFFF50
03EFFFFFFFFFFFFFFFFFFFFA00
004EFFFFFFFFADFFFFFFFFA100
00029EFFFFC5019EFFFFC50000
00000145420000003542000000
ENDCHAR
STARTCHAR X
ENCODING 88
SWIDTH 608 0
DWIDTH 22 0
BBX 22 26 0 0
BITMAP
3333330000000001333333
9FFFFF7000000009FFFFF7
1EFFFFF20000003FFFFFD0
05FFFFFA000000CFFFFF40
00BFFFFF400006FFFFFA00
002FFFFFD0001EFFFFE100
0007FFFFF7009FFFFF6000
0000DFFFFE23FFFFFC0000
00004FFFFFACFFFFF30000
00000AFFFFFFFFFF900000
000001EFFFFFFFFE100000
0000006FFFFFFFF5000000
0000000CFFFFFFB0000000
00000006FFFFFF50000000
0000001DFFFFFFD0000000
0000008FFFFFFFF7000000
000003FFFFFFFFFE200000
00000CFFFFFFFFFFB00000
00006FFFFF9AFFFFF50000
0001EFFFFE12EFFFFD1000
0009FFFFF6007FFFFF8000
004FFFFFC0000DFFFFF300
00CFFFFF300004FFFFFC00
07FFFFF9000000AFFFFF60
2EFFFFE10000002FFFFFE1
AFFFFF6000000008FFFFF9
ENDCHAR
STARTCHAR Y
ENCODING 89
SWIDTH 620 0
DWIDTH 22 0
BBX 21 26 1 0
BITMAP
3333300000000002333310
EFFFF2000000000CFFFF40
EFFFF2000000000CFFFF40
EFFFF2000000000CFFFF40
EFFFF2000000000CFFFF40
EFFFF2000000000CFFFF40
EFFFF2000000000CFFFF40
EFFFF2000000000CFFFF40
EFFFF2000000000CFFFF30
DFFFF4000000000EFFFF20
AFFFF9000000004FFFFE00
6FFFFF40000001DFFFFB00
1EFFFFE600003DFFFFF500
07FFFFFFEAACFFFFFFC000
00CFFFFFFFFFFFFFFE2000
001DFFFFFFFFFFFFE40000
0001AFFFFFFFFFFD300000
000004BFFFFFFC60000000
00000005FFFFA000000000
00000005FFFFA000000000
00000005FFFFA000000000
00000005FFFFA000000000
00000005FFFFA000000000
00000005FFFFA000000000
00000005FFFFA000000000
00000005FFFFA000000000
ENDCHAR
STARTCHAR Z
ENCODING 90
SWIDTH 586 0
DWIDTH 21 0
BBX 21 26 0 0
BITMAP
0333333333333333333310
3FFFFFFFFFFFFFFFFFFE10
3FFFFFFFFFFFFFFFFFF700
3FFFFFFFFFFFFFFFFFD000
3FFFFFFFFFFFFFFFFF6000
2DDDDDDDDDDEFFFFFC0000
00000000000CFFFFF50000
00000000005FFFFFC00000
0000000000CFFFFF400000
0000000006FFFFFB000000
000000000DFFFFF3000000
000000007FFFFFA0000000
00000001EFFFFF20000000
00000008FFFFF900000000
0000001EFFFFE100000000
0000009FFFFF8000000000
000002FFFFFE1000000000
00000AFFFFF70000000000
00003FFFFFD00000000000
0000BFFFFF600000000000
0004FFFFFD111111111100
000CFFFFFFFFFFFFFFFF50
005FFFFFFFFFFFFFFFFF50
00CFFFFFFFFFFFFFFFFF50
06FFFFFFFFFFFFFFFFFF50
0DFFFFFFFFFFFFFFFFFF50
ENDCHAR
STARTCHAR bracketleft
ENCODING 91
SWIDTH 380 0
DWIDTH 14 0
BBX 11 33 2 -4
BITMAP
9CCCCCCCCC50
BFFFFFFFFF60
BFFFFFFFFF60
BFFFFFFFFF60
BFFFFFFFFF60
BFFFF7444410
BFFFF5000000
BFFFF5000000
BFFFF5000000
BFFFF5000000
BFFFF5000000
BFFFF5000000
BFFFF5000000
BFFFF5000000
BFFFF5000000
BFFFF5000000
BFFFF5000000
BFFFF5000000
BFFFF5000000
BFFFF5000000
BFFFF5000000
BFFFF5000000
BFFFF5000000
BFFFF5000000
BFFFF5000000
BFFFF5000000
BFFFF5000000
BFFFF9777730
BFFFFFFFFF60
BFFFFFFFFF60
BFFFFFFFFF60
BFFFFFFFFF60
799999999940
ENDCHAR
STARTCHAR backslash
ENCODING 92
SWIDTH 490 0
DWIDTH 18 0
BBX 16 26 1 0
BITMAP
3333310000000000
BFFFF70000000000
4FFFFD0000000000
0DFFFF5000000000
07FFFFB000000000
01FFFFF200000000
00AFFFF800000000
003FFFFE00000000
000CFFFF60000000
0006FFFFC0000000
0001EFFFF3000000
00009FFFF9000000
00002FFFFE100000
00000BFFFF700000
000005FFFFD00000
000000DFFFF40000
0000008FFFFA0000
0000002FFFFF2000
0000000AFFFF8000
00000004FFFFE000
00000000DFFFF500
000000006FFFFB00
000000001EFFFF30
0000000009FFFF90
0000000003FFFFE1
0000000000CFFFF6
ENDCHAR
STARTCHAR bracketright
ENCODING 93
SWIDTH 380 0
DWIDTH 14 0
BBX 11 33 1 -4
BITMAP
8CCCCCCCCC50
AFFFFFFFFF70
AFFFFFFFFF70
AFFFFFFFFF70
AFFFFFFFFF70
24444BFFFF70
00000AFFFF70
00000AFFFF70
00000AFFFF70
00000AFFFF70
00000AFFFF70
00000AFFFF70
00000AFFFF70
00000AFFFF70
00000AFFFF70
00000AFFFF70
00000AFFFF70
00000AFFFF70
00000AFFFF70
00000AFFFF70
00000AFFFF70
00000AFFFF70
00000AFFFF70
00000AFFFF70
00000AFFFF70
00000AFFFF70
00000AFFFF70
47777CFFFF70
AFFFFFFFFF70
AFFFFFFFFF70
AFFFFFFFFF70
AFFFFFFFFF70
699999999940
ENDCHAR
STARTCHAR asciicircum
ENCODING 94
SWIDTH 293 0
DWIDTH 11 0
BBX 11 9 0 17
BITMAP
000001000000
00009D200000
0009FFE30000
00AFFFFE4000
0BFFFFFFF500
BFFFFDFFFF40
5FFF61BFFD10
06F5000AE300
002000003000
ENDCHAR
STARTCHAR underscore
ENCODING 95
SWIDTH 598 0
DWIDTH 22 0
BBX 16 6 3 -9
BITMAP
4666666666666661
9FFFFFFFFFFFFFF2
9FFFFFFFFFFFFFF2
9FFFFFFFFFFFFFF2
9FFFFFFFFFFFFFF2
4666666666666661
ENDCHAR
STARTCHAR grave
ENCODING 96
SWIDTH 225 0
DWIDTH 8 0
BBX 8 8 0 17
BITMAP
00990000
06FFA000
3FFFFB10
BFFFFFC1
06EFFFFC
002AFFF8
00004DB0
00000110
ENDCHAR
STARTCHAR a
ENCODING 97
SWIDTH 607 0
DWIDTH 22 0
BBX 21 21 0 -1
BITMAP
0000000157863000000000
000003AFFFFFFD60005C10
00007FFFFFFFFFFB13FF10
0008FFFFFFFFFFFFDEFF10
005FFFFFFFFFFFFFFFFF10
01EFFFFFB657DFFFFFFF10
07FFFFF4000009FFFFFF10
0BFFFF70000000BFFFFF10
0FFFFE100000003FFFFF10
1FFFFC000000000DFFFF10
2FFFFB000000000CFFFF10
1FFFFC000000000EFFFF10
0FFFFF100000004FFFFF10
0BFFFF80000000CFFFFF10
07FFFFF700001BFFFFFF10
01EFFFFFD979EFFFFFFF10
006FFFFFFFFFFFFFFFFF10
0008FFFFFFFFFFFFCDFF10
00006FFFFFFFFFF913FF10
0000029EFFFFFA30007F10
0000000024531000000000
ENDCHAR
STARTCHAR b
ENCODING 98
SWIDTH 597 0
DWIDTH 22 0
BBX 20 28 1 -1
BITMAP
35555100000000000000
8FFFF400000000000000
8FFFF400000000000000
8FFFF400000000000000
8FFFF400000000000000
8FFFF400000000000000
8FFFF400000000000000
8FFFF401578630000000
8FFFF48FFFFFFD600000
8FFFFDFFFFFFFFFC2000
8FFFFFFFFFFFFFFFD200
8FFFFFFFFFFFFFFFFC00
8FFFFFFF9558EFFFFF60
8FFFFFE300001CFFFFD0
8FFFFF30000001EFFFF3
8FFFFA000000008FFFF7
8FFFF6000000004FFFF9
8FFFF5000000003FFFFA
7FFFF6000000004FFFF9
5FFFFB000000009FFFF7
1FFFFF40000003FFFFF3
0BFFFFE400003DFFFFD0
04FFFFFFC88BFFFFFF60
009FFFFFFFFFFFFFFB00
000BFFFFFFFFFFFFD100
00009FFFFFFFFFFA1000
000003AEFFFFFB400000
00000000355310000000
ENDCHAR
STARTCHAR c
ENCODING 99
SWIDTH 521 0
DWIDTH 19 0
BBX 19 21 0 -1
BITMAP
00000001578741000000
0000029EFFFFFE810000
00005EFFFFFFFFFE4000
0006FFFFFFFFFFFFF300
003FFFFFFFFFFFFFFD10
00CFFFFFB657DFFFFA00
05FFFFF6000009FFA000
0AFFFF90000000BA0000
0EFFFF10000000200000
1FFFFC00000000000000
3FFFFA00000000000000
2FFFFB00000000000000
1FFFFE10000000100000
0CFFFF80000000B70000
06FFFFF700001AFF7000
00DFFFFFD989EFFFF700
004FFFFFFFFFFFFFFE10
0006FFFFFFFFFFFFE300
00004EFFFFFFFFFC3000
0000018DFFFFFC600000
00000000245420000000
ENDCHAR
STARTCHAR d
ENCODING 100
SWIDTH 606 0
DWIDTH 22 0
BBX 20 28 0 -1
BITMAP
00000000000000045555
000000000000000CFFFF
000000000000000CFFFF
000000000000000CFFFF
000000000000000CFFFF
000000000000000CFFFF
000000000000000CFFFF
000000015787300CFFFF
000002AFFFFFFD4CFFFF
00007FFFFFFFFFEEFFFF
0008FFFFFFFFFFFFFFFF
005FFFFFFFFFFFFFFFFF
01EFFFFFB657DFFFFFFF
07FFFFF5000009FFFFFF
0BFFFF70000000BFFFFF
0FFFFE000000003FFFFF
2FFFFB000000000EFFFF
3FFFFA000000000DFFFF
2FFFFC000000000EFFFF
0FFFFF200000004FFFFF
0BFFFFA0000001CFFFFF
06FFFFF900001BFFFFFF
00DFFFFFD97AEFFFFFFF
004FFFFFFFFFFFFFFFFF
0006FFFFFFFFFFFFCDFF
00004EFFFFFFFFF904FF
0000018DFFFFEA30008F
00000000245310000000
ENDCHAR
STARTCHAR e
ENCODING 101
SWIDTH 524 0
DWIDTH 19 0
BBX 19 21 0 -1
BITMAP
00000001578751000000
000003BFFFFFFE910000
00007FFFFFFFFFFE5000
0009FFFFFFFFFFFFF600
006FFFFFFFFFFFFFFF20
01EFFFFFB65AFFFFF800
07FFFFF5001DFFFFA000
0BFFFF7000BFFFFC1000
0FFFFF1007FFFFE20000
1FFFFC004FFFFF300000
2FFFFB01EFFFF6000000
1FFFFC0BFFFF80000000
0EFFFF8FFFFB00100000
0AFFFFFFFFC100B80000
05FFFFFFFE201AFF7000
00DFFFFFFB79EFFFF700
004FFFFFFFFFFFFFFE10
0006FFFFFFFFFFFFE300
00004EFFFFFFFFFC3000
0000018DFFFFFC600000
00000000245420000000
ENDCHAR
STARTCHAR f
ENCODING 102
SWIDTH 395 0
DWIDTH 14 0
BBX 16 29 0 0
BITMAP
0000000000012220
000000018CFFFFF2
0000006EFFFFFFF2
000008FFFFFFFFF2
00005FFFFFFFFFF2
0001DFFFFFDAAAA2
0006FFFFE5000000
000AFFFF70000000
000CFFFF10000000
000DFFFE00000000
3CCFFFFFCCCCCA00
3FFFFFFFFFFFFC00
3FFFFFFFFFFFFC00
3FFFFFFFFFFFFC00
3EEFFFFFEEEEEC00
000DFFFE00000000
000DFFFE00000000
000DFFFE00000000
000DFFFE00000000
000DFFFE00000000
000DFFFE00000000
000DFFFE00000000
000DFFFE00000000
000DFFFE00000000
000DFFFE00000000
000DFFFE00000000
000DFFFE00000000
000DFFFE00000000
000DFFFE00000000
ENDCHAR
STARTCHAR g
ENCODING 103
SWIDTH 607 0
DWIDTH 22 0
BBX 21 28 0 -8
BITMAP
0000000157863000000000
000002AFFFFFFD60005C10
00006FFFFFFFFFFB13FF10
0007FFFFFFFFFFFFDEFF10
005FFFFFFFFFFFFFFFFF10
00DFFFFFB657DFFFFFFF10
06FFFFF4000009FFFFFF10
0BFFFF70000000BFFFFF10
0FFFFE100000003FFFFF10
1FFFFC000000000DFFFF10
2FFFFB000000000CFFFF10
1FFFFC000000000EFFFF10
0FFFFF100000004FFFFF10
0BFFFF90000000CFFFFF10
06FFFFF700001BFFFFFF10
01EFFFFFD979EFFFFFFF10
005FFFFFFFFFFFFFFFFF10
0008FFFFFFFFFFFFFFFF10
00006EFFFFFFFFFFFFFF00
0000018DFFFFFD8FFFFD00
00000000245520BFFFF900
00000000000019FFFFF300
00000000999AEFFFFFA000
00000000FFFFFFFFFD1000
00000000FFFFFFFFE30000
00000000FFFFFFFB200000
00000000FFFFEA40000000
0000000033320000000000
ENDCHAR
STARTCHAR h
ENCODING 104
SWIDTH 562 0
DWIDTH 20 0
BBX 18 27 1 0
BITMAP
155553000000000000
3FFFF9000000000000
3FFFF9000000000000
3FFFF9000000000000
3FFFF9000000000000
3FFFF9000000000000
3FFFF9000000000000
3FFFF9002310000000
3FFFFA8EFFFD810000
3FFFFFFFFFFFFE5000
3FFFFFFFFFFFFFF500
3FFFFFFFFFFFFFFF30
3FFFFFFFBADFFFFFB0
3FFFFFD30008FFFFF2
3FFFFF200000AFFFF7
3FFFFB0000004FFFF9
3FFFF90000003FFFFA
3FFFF90000003FFFFA
3FFFF90000003FFFFA
3FFFF90000003FFFFA
3FFFF90000003FFFFA
3FFFF90000003FFFFA
3FFFF90000003FFFFA
3FFFF90000003FFFFA
3FFFF90000003FFFFA
3FFFF90000003FFFFA
3FFFF90000003FFFFA
ENDCHAR
STARTCHAR i
ENCODING 105
SWIDTH 235 0
DWIDTH 8 0
BBX 7 28 1 0
BITMAP
00120000
08FFC300
7FFFFE10
DFFFFF60
DFFFFF60
9FFFFE20
1AFFE500
00230000
00000000
2CCCC800
3FFFFA00
3FFFFA00
3FFFFA00
3FFFFA00
3FFFFA00
3FFFFA00
3FFFFA00
3FFFFA00
3FFFFA00
3FFFFA00
3FFFFA00
3FFFFA00
3FFFFA00
3FFFFA00
3FFFFA00
3FFFFA00
3FFFFA00
3FFFFA00
ENDCHAR
STARTCHAR j
ENCODING 106
SWIDTH 237 0
DWIDTH 9 0
BBX 14 36 -6 -8
BITMAP
00000000012000
000000007EFD40
00000006FFFFE2
0000000CFFFFF7
0000000CFFFFF8
00000007FFFFF3
000000009FFE50
00000000013100
00000000000000
00000002CCCCA0
00000002FFFFC0
00000002FFFFC0
00000002FFFFC0
00000002FFFFC0
00000002FFFFC0
00000002FFFFC0
00000002FFFFC0
00000002FFFFC0
00000002FFFFC0
00000002FFFFC0
00000002FFFFC0
00000002FFFFC0
00000002FFFFC0
00000002FFFFC0
00000002FFFFC0
00000002FFFFB0
00000004FFFFA0
00000008FFFF80
0000003EFFFF40
000004EFFFFD00
3AAACFFFFFF500
5FFFFFFFFFA000
5FFFFFFFFA0000
5FFFFFFF600000
5FFFFD82000000
13321000000000
ENDCHAR
STARTCHAR k
ENCODING 107
SWIDTH 539 0
DWIDTH 19 0
BBX 19 27 1 0
BITMAP
15555300000000000000
3FFFFA00000000000000
3FFFFA00000000000000
3FFFFA00000000000000
3FFFFA00000000000000
3FFFFA00000000000000
3FFFFA00000000000000
3FFFFA00000000000000
3FFFFA0000006CCCCB10
3FFFFA000003FFFFF500
3FFFFA00001EFFFF8000
3FFFFA0000CFFFFB0000
3FFFFA0009FFFFD10000
3FFFFA005FFFFE300000
3FFFFA03EFFFF5000000
3FFFFA1DFFFF80000000
3FFFFABFFFFF50000000
3FFFFFFFFFFFD1000000
3FFFFFFFFFFFF7000000
3FFFFFFFFFFFFE200000
3FFFFFFFBCFFFFA00000
3FFFFFFE14FFFFF30000
3FFFFFF400AFFFFC0000
3FFFFF70002FFFFF5000
3FFFFC000009FFFFD000
3FFFFA000001EFFFF700
3FFFFA0000007FFFFE20
ENDCHAR
STARTCHAR l
ENCODING 108
SWIDTH 235 0
DWIDTH 8 0
BBX 6 27 1 0
BITMAP
155553
3FFFFA
3FFFFA
3FFFFA
3FFFFA
3FFFFA
3FFFFA
3FFFFA
3FFFFA
3FFFFA
3FFFFA
3FFFFA
3FFFFA
3FFFFA
3FFFFA
3FFFFA
3FFFFA
3FFFFA
3FFFFA
3FFFFA
3FFFFA
3FFFFA
3FFFFA
3FFFFA
3FFFFA
3FFFFA
3FFFFA
ENDCHAR
STARTCHAR m
ENCODING 109
SWIDTH 762 0
DWIDTH 27 0
BBX 25 20 1 0
BITMAP
00000002200000001210000000
2C403AEFFEA2006CFFFD810000
3FE9FFFFFFFF4AFFFFFFFE3000
3FFFFFFFFFFFFFFFFFFFFFE200
3FFFFFFFFFFFFFFFFFFFFFFC00
3FFFFFFBBFFFFFFFEADFFFFF40
3FFFFF4004FFFFFC100AFFFF90
3FFFFB0000BFFFF50002FFFFB0
3FFFF900009FFFF30000FFFFB0
3FFFF900009FFFF30000FFFFC0
3FFFF900009FFFF30000FFFFC0
3FFFF900009FFFF30000FFFFC0
3FFFF900009FFFF30000FFFFC0
3FFFF900009FFFF30000FFFFC0
3FFFF900009FFFF30000FFFFC0
3FFFF900009FFFF30000FFFFC0
3FFFF900009FFFF30000FFFFC0
3FFFF900009FFFF30000FFFFC0
3FFFF900009FFFF30000FFFFC0
3FFFF900009FFFF30000FFFFC0
ENDCHAR
STARTCHAR n
ENCODING 110
SWIDTH 562 0
DWIDTH 20 0
BBX 18 20 1 0
BITMAP
000000002310000000
2C4004BEFFFD810000
3FE4AFFFFFFFFE4000
3FFFFFFFFFFFFFF500
3FFFFFFFFFFFFFFF30
3FFFFFFFBADFFFFFB0
3FFFFFD30008FFFFF2
3FFFFF200000AFFFF7
3FFFFB0000004FFFF9
3FFFF90000002FFFFA
3FFFF90000002FFFFA
3FFFF90000002FFFFA
3FFFF90000002FFFFA
3FFFF90000002FFFFA
3FFFF90000002FFFFA
3FFFF90000002FFFFA
3FFFF90000002FFFFA
3FFFF90000002FFFFA
3FFFF90000002FFFFA
3FFFF90000002FFFFA
ENDCHAR
STARTCHAR o
ENCODING 111
SWIDTH 579 0
DWIDTH 21 0
BBX 20 21 0 -1
BITMAP
00000001578751000000
000002AFFFFFFFA20000
00007FFFFFFFFFFF6000
0008FFFFFFFFFFFFF700
005FFFFFFFFFFFFFFF40
01EFFFFFB657CFFFFFC0
07FFFFF5000007FFFFF4
0BFFFF70000000AFFFF9
0FFFFE100000002FFFFD
2FFFFB000000000EFFFE
3FFFFA000000000DFFFF
2FFFFC000000000EFFFE
0FFFFF100000003FFFFC
0BFFFF90000000BFFFF8
05FFFFF800001AFFFFF3
00DFFFFFD979EFFFFFA0
003FFFFFFFFFFFFFFE20
0005FFFFFFFFFFFFE300
00004EFFFFFFFFFC2000
0000017DFFFFFC600000
00000000245420000000
ENDCHAR
STARTCHAR p
ENCODING 112
SWIDTH 608 0
DWIDTH 22 0
BBX 21 28 1 -8
BITMAP
0000000036764100000000
2C40006DFFFFFFA2000000
3FE22CFFFFFFFFFF600000
3FFDEFFFFFFFFFFFF70000
3FFFFFFFFFFFFFFFFF4000
3FFFFFFFB656BFFFFFD000
3FFFFFF5000006FFFFF500
3FFFFF700000008FFFFA00
3FFFFF100000001FFFFE00
3FFFFC000000000CFFFF00
3FFFFB000000000BFFFF10
3FFFFC000000000DFFFF00
3FFFFF200000002FFFFD00
3FFFFF90000000AFFFFA00
3FFFFFF8000009FFFFF500
3FFFFFFFD979DFFFFFD000
3FFFFFFFFFFFFFFFFF4000
3FFFFFFFFFFFFFFFF70000
3FFFFEFFFFFFFFFE500000
3FFFFA3AFFFFFE91000000
3FFFFA0014653000000000
3FFFFA0000000000000000
3FFFFA0000000000000000
3FFFFA0000000000000000
3FFFFA0000000000000000
3FFFFA0000000000000000
3FFFFA0000000000000000
0333320000000000000000
ENDCHAR
STARTCHAR q
ENCODING 113
SWIDTH 607 0
DWIDTH 22 0
BBX 21 28 0 -8
BITMAP
0000000156763000000000
000003AFFFFFFC50005C10
00007FFFFFFFFFFB13FF10
0009FFFFFFFFFFFFDEFF10
006FFFFFFFFFFFFFFFFF10
01EFFFFFB657DFFFFFFF10
07FFFFF5000009FFFFFF10
0BFFFF70000000BFFFFF10
0FFFFF100000003FFFFF10
1FFFFC000000000DFFFF10
2FFFFB000000000CFFFF10
1FFFFC000000000EFFFF10
0EFFFF100000004FFFFF10
0BFFFF80000000CFFFFF10
06FFFFF700001BFFFFFF10
00DFFFFFD979EFFFFFFF10
004FFFFFFFFFFFFFFFFF10
0007FFFFFFFFFFFFFFFF10
00005EFFFFFFFFFEFFFF10
0000018EFFFFF92CFFFF10
000000003564100CFFFF10
000000000000000CFFFF10
000000000000000CFFFF10
000000000000000CFFFF10
000000000000000CFFFF10
000000000000000CFFFF10
000000000000000CFFFF10
0000000000000002333300
ENDCHAR
STARTCHAR r
ENCODING 114
SWIDTH 414 0
DWIDTH 15 0
BBX 14 19 1 0
BITMAP
2C300049BCCCC6
3FD14DFFFFFFF8
3FFDFFFFFFFFF8
3FFFFFFFFFFFF8
3FFFFFFFFFFFF7
3FFFFFF7100000
3FFFFF60000000
3FFFFC00000000
3FFFFA00000000
3FFFF900000000
3FFFF900000000
3FFFF900000000
3FFFF900000000
3FFFF900000000
3FFFF900000000
3FFFF900000000
3FFFF900000000
3FFFF900000000
3FFFF900000000
ENDCHAR
STARTCHAR s
ENCODING 115
SWIDTH 523 0
DWIDTH 19 0
BBX 18 19 1 0
BITMAP
00028BCCCCCCCCCB00
008FFFFFFFFFFFFD00
08FFFFFFFFFFFFFD00
2FFFFFFFFFFFFFFD00
8FFFFFFFFFFFFFFD00
BFFFF4000000000000
BFFFF1000000000000
AFFFFC999998620000
5FFFFFFFFFFFFFA100
0CFFFFFFFFFFFFFC10
02DFFFFFFFFFFFFF70
0018EFFFFFFFFFFFD0
000002333334DFFFF1
000000000000CFFFF1
9CCCCCCCCCCDFFFFE0
CFFFFFFFFFFFFFFF80
CFFFFFFFFFFFFFFD10
CFFFFFFFFFFFFFD300
CFFFFFFFFFFFC71000
ENDCHAR
STARTCHAR t
ENCODING 116
SWIDTH 437 0
DWIDTH 16 0
BBX 15 27 0 0
BITMAP
0015555300000000
002FFFF900000000
002FFFF900000000
002FFFF900000000
002FFFF900000000
002FFFF900000000
002FFFF900000000
002FFFF900000000
6CCFFFFECCCCCCB0
7FFFFFFFFFFFFFE0
7FFFFFFFFFFFFFE0
7FFFFFFFFFFFFFE0
7FFFFFFFFFFFFFD0
002FFFF900000000
002FFFF900000000
002FFFF900000000
002FFFF900000000
002FFFF900000000
002FFFFA00000000
001FFFFB00000000
000EFFFF40000000
0009FFFFE4000000
0002FFFFFFDCCCB0
00008FFFFFFFFFE0
00000AFFFFFFFFE0
0000007EFFFFFFE0
000000028CEFFFE0
ENDCHAR
STARTCHAR u
ENCODING 117
SWIDTH 562 0
DWIDTH 20 0
BBX 18 20 1 -1
BITMAP
5CCCC40000005CCCC5
6FFFF50000006FFFF6
6FFFF50000006FFFF6
6FFFF50000006FFFF6
6FFFF50000006FFFF6
6FFFF50000006FFFF6
6FFFF50000006FFFF6
6FFFF50000006FFFF6
6FFFF50000006FFFF6
6FFFF50000006FFFF6
6FFFF50000006FFFF6
5FFFF70000008FFFF6
3FFFFC000001DFFFF6
0EFFFF70001AFFFFF6
09FFFFFC88DFFFFFF6
02FFFFFFFFFFFFFFF6
005FFFFFFFFFFFEFF6
0005FFFFFFFFFB1CF6
000029EFFFFC5002E6
000000035420000000
ENDCHAR
STARTCHAR v
ENCODING 118
SWIDTH 532 0
DWIDTH 19 0
BBX 19 19 0 0
BITMAP
ACCCC800000006CCCCC0
7FFFFE0000000CFFFFA0
2FFFFF4000002FFFFF40
0BFFFF9000007FFFFD00
05FFFFE00000DFFFF800
01EFFFF50003FFFFF200
009FFFFA0008FFFFB000
003FFFFF100DFFFF5000
000CFFFF603FFFFE1000
0007FFFFB09FFFF90000
0001FFFFF2EFFFF30000
0000AFFFFBFFFFD00000
00005FFFFFFFFF700000
00000EFFFFFFFF100000
000008FFFFFFFA000000
000002FFFFFFF5000000
000000CFFFFFE0000000
0000006FFFFF80000000
0000001EFFFF30000000
ENDCHAR
STARTCHAR w
ENCODING 119
SWIDTH 756 0
DWIDTH 27 0
BBX 25 20 1 -1
BITMAP
4CCCC500009CCCC00002CCCC70
5FFFF70000CFFFF00003FFFF90
5FFFF70000CFFFF00003FFFF90
5FFFF70000CFFFF00003FFFF90
5FFFF70000CFFFF00003FFFF90
5FFFF70000CFFFF00003FFFF90
5FFFF70000CFFFF00003FFFF90
5FFFF70000CFFFF00003FFFF90
5FFFF70000CFFFF00003FFFF90
5FFFF70000CFFFF00003FFFF90
5FFFF70000CFFFF00003FFFF90
5FFFF70000CFFFF00003FFFF90
5FFFF80000CFFFF10004FFFF80
3FFFFD1003FFFFF7000AFFFF70
0EFFFFD89EFFFFFFA7BFFFFF30
08FFFFFFFFFFFFFFFFFFFFFB00
01CFFFFFFFFFFFFFFFFFFFE300
002CFFFFFFFFBFFFFFFFFE4000
00018EFFFFC503BFFFFF920000
00000035520000014541000000
ENDCHAR
STARTCHAR x
ENCODING 120
SWIDTH 528 0
DWIDTH 19 0
BBX 19 19 0 0
BITMAP
BEEEED2000001DEEEEB0
2EFFFFB00000BFFFFE20
05FFFFF70006FFFFF500
008FFFFF302EFFFF9000
000CFFFFD1CFFFFC1000
0002EFFFFDFFFFE20000
00005FFFFFFFFF600000
000009FFFFFFFA000000
000001CFFFFFD1000000
0000006FFFFF70000000
000002EFFFFFE2000000
00000BFFFFFFFC000000
00007FFFFFFFFF800000
0003FFFFF9FFFFF40000
001DFFFFB0AFFFFD1000
009FFFFE201EFFFFA000
05FFFFF60005FFFFF600
2EFFFFB00000AFFFFE20
BFFFFE2000001EFFFFC0
ENDCHAR
STARTCHAR y
ENCODING 121
SWIDTH 562 0
DWIDTH 20 0
BBX 18 27 1 -8
BITMAP
5CCCC40000005CCCC5
6FFFF50000006FFFF7
6FFFF50000006FFFF7
6FFFF50000006FFFF7
6FFFF50000006FFFF7
6FFFF50000006FFFF7
6FFFF50000006FFFF7
6FFFF50000006FFFF7
6FFFF50000006FFFF7
6FFFF50000006FFFF7
6FFFF50000006FFFF7
5FFFF70000008FFFF7
3FFFFB000001DFFFF7
0EFFFF70001AFFFFF7
09FFFFFB88DFFFFFF7
02FFFFFFFFFFFFFFF7
005FFFFFFFFFFFFFF6
0005FFFFFFFFFFFFF5
000029EFFFFAEFFFF3
000000035517FFFFE0
00000000007FFFFF80
000006A9AEFFFFFE10
00000AFFFFFFFFF500
00000AFFFFFFFF7000
00000AFFFFFFD50000
00000AFFFFC7100000
000002332100000000
ENDCHAR
STARTCHAR z
ENCODING 122
SWIDTH 481 0
DWIDTH 17 0
BBX 17 19 0 0
BITMAP
2CCCCCCCCCCCCCCC40
3FFFFFFFFFFFFFFC00
3FFFFFFFFFFFFFF300
3FFFFFFFFFFFFFA000
3FFFFFFFFFFFFF2000
000000008FFFF80000
00000002FFFFE10000
0000000AFFFF600000
0000004FFFFC000000
000000CFFFF4000000
000006FFFFA0000000
00001DFFFF20000000
00008FFFF800000000
0002EFFFE100000000
0009FFFFECCCCCCC60
003FFFFFFFFFFFFF80
00BFFFFFFFFFFFFF80
05FFFFFFFFFFFFFF80
0DFFFFFFFFFFFFFF80
ENDCHAR
STARTCHAR braceleft
ENCODING 123
SWIDTH 466 0
DWIDTH 17 0
BBX 16 33 0 -4
BITMAP
000000006ACCCCC6
0000002CFFFFFFF7
000000CFFFFFFFF7
000005FFFFFFFFF7
000008FFFFFFFFF7
00000AFFFF944442
00000AFFFF700000
00000AFFFF700000
00000AFFFF700000
00000AFFFF700000
00000AFFFF700000
00000AFFFF600000
00001DFFFF500000
2555BFFFFF100000
5FFFFFFFF8000000
5FFFFFFF80000000
5FFFFFFD30000000
5FFFFFFFE3000000
3BBCFFFFFC000000
00003FFFFF300000
00000BFFFF500000
00000AFFFF600000
00000AFFFF700000
00000AFFFF700000
00000AFFFF700000
00000AFFFF700000
00000AFFFF700000
000009FFFFA77773
000008FFFFFFFFF7
000003FFFFFFFFF7
000000AFFFFFFFF7
00000009FFFFFFF7
0000000037999994
ENDCHAR
STARTCHAR bar
ENCODING 124
SWIDTH 267 0
DWIDTH 10 0
BBX 6 33 2 -4
BITMAP
9CCCC4
BFFFF5
BFFFF5
BFFFF5
BFFFF5
BFFFF5
BFFFF5
BFFFF5
BFFFF5
BFFFF5
BFFFF5
BFFFF5
BFFFF5
BFFFF5
BFFFF5
BFFFF5
BFFFF5
BFFFF5
BFFFF5
BFFFF5
BFFFF5
BFFFF5
BFFFF5
BFFFF5
BFFFF5
BFFFF5
BFFFF5
BFFFF5
BFFFF5
BFFFF5
BFFFF5
BFFFF5
799993
ENDCHAR
STARTCHAR braceright
ENCODING 125
SWIDTH 466 0
DWIDTH 17 0
BBX 16 33 1 -4
BITMAP
8CCCCCA500000000
AFFFFFFFB0000000
AFFFFFFFF9000000
AFFFFFFFFF200000
AFFFFFFFFF500000
24444BFFFF700000
00000AFFFF700000
00000AFFFF700000
00000AFFFF700000
00000AFFFF700000
00000AFFFF700000
000009FFFF700000
000008FFFFB00000
000004FFFFF95551
000000BFFFFFFFF2
0000001AFFFFFFF2
00000005EFFFFFF2
0000006FFFFFFFF2
000001EFFFFEBBB1
000006FFFFD10000
000009FFFF800000
00000AFFFF700000
00000AFFFF700000
00000AFFFF700000
00000AFFFF700000
00000AFFFF700000
00000AFFFF700000
47777CFFFF600000
AFFFFFFFFF500000
AFFFFFFFFE100000
AFFFFFFFF6000000
AFFFFFFF70000000
6999997200000000
ENDCHAR
STARTCHAR asciitilde
ENCODING 126
SWIDTH 451 0
DWIDTH 16 0
BBX 14 8 1 9
BITMAP
00168620014682
03DFFFF504FFF6
0CFFFFFF66FFF8
2FFFFFFFFFFFF7
3FFFF9EFFFFFF4
1FFFB02DFFFFB0
0CFFD001AEE810
01210000000000
ENDCHAR
STARTCHAR nonbreakingspace
ENCODING 160
SWIDTH 279 0
DWIDTH 10 0
BBX 1 1 0 0
BITMAP
00
ENDCHAR
STARTCHAR exclamdown
ENCODING 161
SWIDTH 274 0
DWIDTH 10 0
BBX 7 28 1 -6
BITMAP
00143000
03DFFC20
0CFFFFA0
0FFFFFE0
0DFFFFC0
06FFFF40
00498300
00000000
01EEED00
01FFFF00
02FFFF10
03FFFF10
04FFFF20
05FFFF30
06FFFF40
06FFFF50
07FFFF60
08FFFF70
09FFFF80
0AFFFF80
0BFFFF90
0CFFFFA0
0CFFFFB0
0DFFFFC0
0EFFFFD0
0FFFFFE0
1FFFFFF0
01111110
ENDCHAR
STARTCHAR cent
ENCODING 162
SWIDTH 462 0
DWIDTH 17 0
BBX 15 26 1 0
BITMAP
0000002443000000
0000008FFA000000
0000008FFA000000
0000008FFA000000
0000008FFA000000
000018DFFE920000
0006EFFFFFFF8000
007FFFFFFFFFF900
03FFFFFEEFFFFF30
0BFFFE4003CFF700
2FFFF300001D6000
6FFF900000010000
8FFF500000000000
9FFF500000000000
7FFF800000000000
3FFFE200001C4000
0CFFFE5104CFE400
04FFFFFFFFFFFE20
007FFFFFFFFFF900
0005EFFFFFFE7000
000016DFFE720000
0000008FFA000000
0000008FFA000000
0000008FFA000000
0000008FFA000000
0000008FFA000000
ENDCHAR
STARTCHAR sterling
ENCODING 163
SWIDTH 681 0
DWIDTH 25 0
BBX 23 26 1 0
BITMAP
000000000023310000000000
00000003BFFFF40000000000
0000008FFFFFF40000000000
000009FFFFFFF40000000000
00005FFFFFFFF40000000000
0000DFFFFFEDD30000000000
0002FFFFF800000000000000
0005FFFFC000000000000000
0006FFFF9000000000000000
0006FFFF9000000000000000
0006FFFF9000000000000000
266AFFFFB666100000000000
5FFFFFFFFFFF200000000000
5FFFFFFFFFFF200000000000
5FFFFFFFFFFF200000000000
5FFFFFFFFFFF200000000000
266AFFFFB666100000000000
0006FFFF9000000000000000
0006FFFF9000000007888830
0006FFFF900000001EFFFF30
0006FFFF91111113BFFFFF10
0006FFFFFFFFFFFFFFFFFA00
0006FFFFFFFFFFFFFFFFF200
0006FFFFFFFFFFFFFFFF5000
0006FFFFFFFFFFFFFFE40000
0006FFFFFFFFFFFEC7100000
ENDCHAR
STARTCHAR currency
ENCODING 164
SWIDTH 454 0
DWIDTH 16 0
BBX 15 15 1 5
BITMAP
0020000000013000
0AE30001001CE300
AFFE7DFFE9CFFE20
8FFFFFFFFFFFFB10
08FFFFEDFFFFB000
02FFF6003DFF7000
07FF900005FFB000
09FF500001FFD000
08FF600002FFD000
06FFC00007FFA000
02FFFA227FFF6000
1CFFFFFFFFFFE300
BFFFFFFFFFFFFE20
3EFB39BCA48FF800
03A0000000088000
ENDCHAR
STARTCHAR yen
ENCODING 165
SWIDTH 653 0
DWIDTH 24 0
BBX 21 26 1 0
BITMAP
1333320000000001333330
5FFFFB0000000003FFFFD0
5FFFFB0000000003FFFFD0
5FFFFB0000000003FFFFD0
5FFFFB0000000003FFFFD0
5FFFFB0000000003FFFFD0
5FFFFB0000000003FFFFD0
5FFFFB0000000003FFFFD0
4FFFFB0000000003FFFFC0
3FFFFD0000000005FFFFB0
1FFFFF400000000BFFFF90
0CFFFFC10000005FFFFF40
06FFFFFC300007FFFFFD00
00CFFFFFFCAAEFFFFFF500
002EFFFFFFFFFFFFFF9000
0003DFFFFFFFFFFFF90000
02556DFFFFFFFFFF955500
06FFFFFFFFFFFFFFFFFE00
06FFFFFFFFFFFFFFFFFE00
06FFFFFFFFFFFFFFFFFE00
06FFFFFFFFFFFFFFFFFE00
03666666DFFFF966666600
00000000BFFFF400000000
00000000BFFFF400000000
00000000BFFFF400000000
00000000BFFFF400000000
ENDCHAR
STARTCHAR brokenbar
ENCODING 166
SWIDTH 269 0
DWIDTH 10 0
BBX 6 33 2 -4
BITMAP
8CCCC5
BFFFF6
BFFFF6
BFFFF6
BFFFF6
BFFFF6
BFFFF6
BFFFF6
BFFFF6
BFFFF6
BFFFF6
BFFFF6
BFFFF6
BFFFF6
699994
000000
000000
000000
8CCCC5
BFFFF6
BFFFF6
BFFFF6
BFFFF6
BFFFF6
BFFFF6
BFFFF6
BFFFF6
BFFFF6
BFFFF6
BFFFF6
BFFFF6
BFFFF6
699994
ENDCHAR
STARTCHAR section
ENCODING 167
SWIDTH 569 0
DWIDTH 21 0
BBX 18 26 1 0
BITMAP
000001233333333310
0003AFFFFFFFFFFF70
005FFFFFFFFFFFFF70
02FFFFFFFFFFFFFF70
0AFFFFFFFFFFFFFF70
0EFFFFB99999999940
0FFFFC000000000000
0EFFFFA99999851000
0BFFFFFFFFFFFFE500
03FFFFFFFFFFFFFF60
04FFFFFFFFFFFFFFF2
0BFFFFFFFFFFFFFFF8
0EFFFE5333337FFFFC
0FFFFC0000000EFFFD
0EFFFF8666669FFFFC
0AFFFFFFFFFFFFFFF7
03FFFFFFFFFFFFFFE1
006FFFFFFFFFFFFFF3
0004DFFFFFFFFFFFF9
0000035666669FFFFC
0000000000000EFFFD
1BBBBBBBBBBBEFFFFB
1FFFFFFFFFFFFFFFF6
1FFFFFFFFFFFFFFFD0
1FFFFFFFFFFFFFFD20
1FFFFFFFFFFFFC7100
ENDCHAR
STARTCHAR dieresis
ENCODING 168
SWIDTH 300 0
DWIDTH 11 0
BBX 11 5 0 19
BITMAP
057200026300
9FFE202EFF60
EFFF707FFFB0
CFFF505FFFA0
3CE80009EB20
ENDCHAR
STARTCHAR copyright
ENCODING 169
SWIDTH 655 0
DWIDTH 24 0
BBX 21 21 1 2
BITMAP
000000038ACBA620000000
000004CFFFFFFFF9200000
00009FFFFDCCEFFFE40000
000AFFE8200004BFFF5000
007FFC2049BA8206FFE200
02FFD11BFFFFFF805FFB00
09FF31DFFEABEF7009FF30
0EFB09FF8000290002FF80
3FF61FFA0000000000BFC0
5FF34FF200000000009FE0
6FF26FF000000000008FF0
5FF34FF200000000009FE0
3FF61FF90000000000CFC0
0DFB09FF8000190002FF70
08FF51DFFEABEF700BFF20
01EFE21BFFFFFF807FF900
005FFE4049BB8208FFD100
0007FFFA410026DFFE3000
00006FFFFFEFFFFFD20000
000002AFFFFFFFE7000000
0000000157987300000000
ENDCHAR
STARTCHAR ordfeminine
ENCODING 170
SWIDTH 451 0
DWIDTH 16 0
BBX 12 18 2 8
BITMAP
00037A950012
009FFFFFB2A9
0AFFFFFFFFF9
4FFF956DFFF9
AFF80001EFF9
DFF200007FF9
EFF000006FF9
CFF300009FF9
9FFB1005FFF9
2FFFDABFFFF9
06FFFFFFFBF9
005DFFFE6089
000024300001
000000000000
555555555553
EFFFFFFFFFF9
EFFFFFFFFFF9
777777777774
ENDCHAR
STARTCHAR guillemotleft
ENCODING 171
SWIDTH 704 0
DWIDTH 25 0
BBX 23 19 1 0
BITMAP
000000001000000000010000
00000001DA000000003E8000
0000001CFFB1000002EFF900
000001CFFFFC00002DFFFF90
00001CFFFFF50002DFFFFE30
0000BFFFFF50002DFFFFE300
000BFFFFF50001DFFFFE3000
00AFFFFF50001CFFFFE30000
0AFFFFF50001CFFFFE300000
9FFFFF50001CFFFFE3000000
9FFFFFA0001CFFFFF7000000
09FFFFFB1001BFFFFF900000
008FFFFFC1000AFFFFFA0000
0007FFFFFD2000AFFFFFB100
00006FFFFFE30009FFFFFC10
000005FFFFFC00008FFFFF90
0000005FFFE2000007FFFC10
00000004EE300000006FD200
000000003400000000052000
ENDCHAR
STARTCHAR logicalnot
ENCODING 172
SWIDTH 529 0
DWIDTH 19 0
BBX 15 10 2 6
BITMAP
2222222222222220
DFFFFFFFFFFFFFD0
DFFFFFFFFFFFFFD0
DFFFFFFFFFFFFFD0
DFFFFFFFFFFFFFD0
9AAAAAAAAAFFFFD0
0000000000EFFFD0
0000000000EFFFD0
0000000000EFFFD0
0000000000333330
ENDCHAR
STARTCHAR uni00AD
ENCODING 173
SWIDTH 418 0
DWIDTH 15 0
BBX 11 6 2 10
BITMAP
222222222220
DFFFFFFFFFE0
DFFFFFFFFFE0
DFFFFFFFFFE0
DFFFFFFFFFE0
8AAAAAAAAA90
ENDCHAR
STARTCHAR registered
ENCODING 174
SWIDTH 439 0
DWIDTH 16 0
BBX 14 14 1 12
BITMAP
00000465300000
0006EFFFFD5000
00AFD7448EF800
07FAABBA61BF50
1EC0DECDF91ED0
6F50DB008F27F4
8F10DB003F53F6
9F00DB12BF23F6
7F30DFFFF606F5
2F90DD7AF20CE1
0AF5CA02E88F80
01DF93003BFB00
001AFFFFFF9000
000038AA720000
ENDCHAR
STARTCHAR macron
ENCODING 175
SWIDTH 247 0
DWIDTH 9 0
BBX 9 4 0 19
BITMAP
FFFFFFFFD0
FFFFFFFFD0
FFFFFFFFD0
BBBBBBBBA0
ENDCHAR
STARTCHAR degree
ENCODING 176
SWIDTH 381 0
DWIDTH 14 0
BBX 12 12 1 13
BITMAP
000269851000
007FFFFFD400
07FFFFFFFF40
2FFFFFFFFFD0
7FFFB35EFFF4
AFFF2006FFF6
AFFF2007FFF6
7FFFC46EFFF3
1EFFFFFFFFC0
06FFFFFFFE30
006EFFFFC300
000157740000
ENDCHAR
STARTCHAR plusminus
ENCODING 177
SWIDTH 516 0
DWIDTH 19 0
BBX 16 20 1 0
BITMAP
0000004444200000
000001FFFFB00000
000001FFFFB00000
000001FFFFB00000
022223FFFFB22221
1FFFFFFFFFFFFFFA
1FFFFFFFFFFFFFFA
1FFFFFFFFFFFFFFA
1FFFFFFFFFFFFFFA
1AAAAAFFFFDAAAA7
000001FFFFB00000
000001FFFFB00000
000001FFFFB00000
0000016666400000
0000000000000000
1CCCCCCCCCCCCCC8
1FFFFFFFFFFFFFFA
1FFFFFFFFFFFFFFA
1FFFFFFFFFFFFFFA
1FFFFFFFFFFFFFFA
ENDCHAR
STARTCHAR twosuperior
ENCODING 178
SWIDTH 355 0
DWIDTH 13 0
BBX 10 14 1 12
BITMAP
0244443000
09FFFFFE50
09FFFFFFF4
09FFFFFFFC
023333AFFE
0018CCEFFD
02DFFFFFF8
0AFFFFFFB0
0FFFDA9500
1FFF855553
1FFFFFFFFA
1FFFFFFFFA
1FFFFFFFFA
0222222222
ENDCHAR
STARTCHAR threesuperior
ENCODING 179
SWIDTH 354 0
DWIDTH 13 0
BBX 10 14 2 12
BITMAP
3333320000
EFFFFFE600
EFFFFFFF50
EFFFFFFFD0
444449FFF1
06CCCEFFF0
08FFFFFFA0
08FFFFFFA0
05AAADFFF0
444449FFF1
EFFFFFFFD0
EFFFFFFF50
EFFFFFE500
3333320000
ENDCHAR
STARTCHAR acute
ENCODING 180
SWIDTH 225 0
DWIDTH 8 0
BBX 8 8 0 17
BITMAP
00008B00
0009FF80
009FFFF5
0AFFFFFC
BFFFFF80
6FFFB200
0AE60000
01100000
ENDCHAR
STARTCHAR mu
ENCODING 181
SWIDTH 571 0
DWIDTH 21 0
BBX 17 27 2 -8
BITMAP
ACCCC0000000ACCCC0
CFFFF0000000CFFFF0
CFFFF0000000CFFFF0
CFFFF0000000CFFFF0
CFFFF0000000CFFFF0
CFFFF0000000CFFFF0
CFFFF0000000CFFFF0
CFFFF0000000CFFFF0
CFFFF0000000CFFFF0
CFFFF0000000CFFFF0
CFFFF0000000CFFFF0
CFFFF1000000EFFFF0
CFFFF6000005FFFFF0
CFFFFE30003EFFFFF0
CFFFFFFA79EFFFFFF0
CFFFFFFFFFFFFFFFF0
CFFFFFFFFFFFFFEFF0
CFFFFFFFFFFFF63FF0
CFFFABFFFFFA2008F0
CFFF60145410000000
CFFF50000000000000
CFFF40000000000000
CFFF30000000000000
CFFF20000000000000
CFFF10000000000000
CFFF00000000000000
BEED00000000000000
ENDCHAR
STARTCHAR paragraph
ENCODING 182
SWIDTH 808 0
DWIDTH 29 0
BBX 26 26 1 0
BITMAP
00000000023444433333333332
0000005BEFFFFFFFFFFFFFFFF8
00003CFFFFFFFFFFFFFFFFFFF8
0005FFFFFFFFFFFFFFFFFFFFF8
005FFFFFFFFFFFFFFFFFFFFFF8
02EFFFFFFEDFFFFFDDDDEFFFF8
09FFFFFC400CFFFF30008FFFF8
1FFFFFB0000CFFFF30008FFFF8
5FFFFE10000CFFFF30008FFFF8
8FFFFA00000CFFFF30008FFFF8
9FFFF700000CFFFF30008FFFF8
9FFFF700000CFFFF30008FFFF8
7FFFFB00000CFFFF30008FFFF8
4FFFFF30000CFFFF30008FFFF8
0EFFFFD2000CFFFF30008FFFF8
07FFFFFE731DFFFF30008FFFF8
00DFFFFFFFFFFFFF30008FFFF8
002EFFFFFFFFFFFF30008FFFF8
0003DFFFFFFFFFFF30008FFFF8
000019FFFFFFFFFF30008FFFF8
00000027BDEFFFFF30008FFFF8
00000000000CFFFF30008FFFF8
00000000000CFFFF30008FFFF8
00000000000CFFFF30008FFFF8
00000000000CFFFF30008FFFF8
00000000000CFFFF30008FFFF8
ENDCHAR
STARTCHAR periodcentered
ENCODING 183
SWIDTH 261 0
DWIDTH 9 0
BBX 7 7 1 9
BITMAP
00486100
08FFFD10
2FFFFF70
4FFFFFA0
1FFFFF60
06FFFB00
00254000
ENDCHAR
STARTCHAR cedilla
ENCODING 184
SWIDTH 208 0
DWIDTH 7 0
BBX 8 10 0 -9
BITMAP
000AF700
001FF200
006FE600
00CFFFB0
0057FFF4
3A22FFF7
9FFFFFF5
DFFFFFC0
19EFEA20
00010000
ENDCHAR
STARTCHAR onesuperior
ENCODING 185
SWIDTH 231 0
DWIDTH 8 0
BBX 6 14 1 12
BITMAP
144441
6FFFF2
6FFFF2
6FFFF2
17FFF2
04FFF2
04FFF2
04FFF2
04FFF2
04FFF2
04FFF2
04FFF2
04FFF2
012220
ENDCHAR
STARTCHAR ordmasculine
ENCODING 186
SWIDTH 432 0
DWIDTH 16 0
BBX 12 18 2 8
BITMAP
00038A961000
009FFFFFE500
0AFFFFFFFF40
5FFF956DFFD0
BFF80001DFF4
EFF100007FF7
EFF000006FF8
DFF300009FF6
9FFC1004FFF2
2EFFEABFFFA0
05FFFFFFFC10
003CFFFE9100
000024310000
000000000000
555555555553
FFFFFFFFFFF9
FFFFFFFFFFF9
777777777774
ENDCHAR
STARTCHAR guillemotright
ENCODING 187
SWIDTH 703 0
DWIDTH 25 0
BBX 24 19 1 0
BITMAP
000100000000001000000000
004E6000000006E400000000
05FFF60000007FFE40000000
4FFFFF500007FFFFE3000000
1BFFFFF50002DFFFFE300000
01BFFFFF40002DFFFFE20000
001BFFFFF40002DFFFFE2000
0001BFFFFE40002DFFFFD200
00001BFFFFE30002DFFFFD20
000001CFFFFE30002DFFFFD1
000003EFFFFE30005FFFFFD2
00004EFFFFE30007FFFFFC10
0005FFFFFD20008FFFFFC100
007FFFFFD2000AFFFFFB1000
08FFFFFC1001BFFFFFA00000
4FFFFFC10007FFFFF9000000
08FFFB100000BFFF90000000
00AFA00000001CF800000000
000700000000016000000000
ENDCHAR
STARTCHAR onequarter
ENCODING 188
SWIDTH 648 0
DWIDTH 23 0
BBX 21 26 1 0
BITMAP
0244441000000033330000
06FFFF20000003FFF90000
06FFFF2000000CFFE10000
06FFFF2000005FFF700000
017FFF200000DFFD100000
005FFF200006FFF6000000
005FFF20001EFFC0000000
005FFF20008FFF40000000
005FFF2002FFFB00000000
005FFF2009FFF300000000
005FFF203FFF9000000000
005FFF20BFFF2000000000
005FFF24FFF80000000000
0012220CFFE15664000000
0000006FFF60EFF8244400
000001DFFD01FFF68FFE00
000007FFF503FFF48FFE00
00001EFFC005FFF18FFE00
00009FFF4007FFE08FFE00
0002FFFA0009FFC08FFE00
000AFFF2000CFFEBDFFFB0
003FFF90000EFFFFFFFFF0
00CFFE10001FFFFFFFFFF0
05FFF700002CCCCCDFFFC0
0DFFD100000000008FFE00
6FFF6000000000008FFE00
ENDCHAR
STARTCHAR onehalf
ENCODING 189
SWIDTH 637 0
DWIDTH 23 0
BBX 21 26 1 0
BITMAP
0244441000000033330000
06FFFF20000003FFF90000
06FFFF2000000CFFE10000
06FFFF2000005FFF700000
017FFF200000DFFD100000
005FFF200006FFF6000000
005FFF20001EFFC0000000
005FFF20008FFF40000000
005FFF2002FFFB00000000
005FFF2009FFF300000000
005FFF203FFF9000000000
005FFF20BFFF2000000000
005FFF24FFF80000000000
0012220CFFE16666640000
0000006FFF60FFFFFFD300
000001DFFD00FFFFFFFD10
000007FFF500FFFFFFFF70
00001EFFC00011112EFF90
00009FFF400005CEFFFF70
0002FFFA00007FFFFFFE20
000AFFF20002FFFFFFE400
003FFF900006FFF9761000
00CFFE100007FFF7777720
05FFF7000007FFFFFFFF50
0DFFD1000007FFFFFFFF50
6FFF60000007FFFFFFFF50
ENDCHAR
STARTCHAR threequarters
ENCODING 190
SWIDTH 708 0
DWIDTH 26 0
BBX 24 26 1 0
BITMAP
133333100000000023330000
6FFFFFFB20000001EFFC0000
6FFFFFFFD0000009FFF40000
6FFFFFFFF700002FFFA00000
244444EFF90000AFFF200000
00CCCCFFF80004FFF9000000
00FFFFFFF3000CFFE1000000
00FFFFFFF3005FFF70000000
00AAABFFF800DFFD10000000
244445EFF907FFF600000000
6FFFFFFFF61EFFC000000000
6FFFFFFFC08FFF4000000000
6FFFFFFA12FFFB0000000000
133333100AFFF34665000000
000000003FFFA0BFFB144400
00000000BFFF20EFF95FFF20
00000004FFF801FFF75FFF20
0000000CFFE103FFF45FFF20
0000006FFF7005FFF25FFF20
000001DFFD0007FFF05FFF20
000007FFF50009FFFBCFFFB2
00001EFFC0000BFFFFFFFFF3
00009FFF40000DFFFFFFFFF3
0002FFFA00000BCCCCDFFFC2
000AFFF200000000005FFF20
003FFF9000000000005FFF20
ENDCHAR
STARTCHAR questiondown
ENCODING 191
SWIDTH 602 0
DWIDTH 22 0
BBX 20 28 1 -6
BITMAP
00000000000242000000
00000000008FFF700000
0000000004FFFFF30000
0000000008FFFFF60000
0000000006FFFFF40000
0000000001DFFFB00000
00000000001796000000
00000000000000000000
0000000001EEEED00000
0000000001FFFFF00000
0000000004FFFFD00000
000000003DFFFFA00000
00004AEFFFFFFF600000
001AFFFFFFFFFD000000
01CFFFFFFFFFE3000000
09FFFFFFFFFD30000000
2FFFFFFFEB7100000000
8FFFFE61000000000000
BFFFF700000000000000
CFFFF400000000000000
BFFFF700000000000000
8FFFFE50000000000000
3FFFFFFFFFFFFFFFFFF4
0AFFFFFFFFFFFFFFFFF4
01CFFFFFFFFFFFFFFFF4
001BFFFFFFFFFFFFFFF4
00005BEFFFFFFFFFFFF4
00000001111111111110
ENDCHAR
STARTCHAR Agrave
ENCODING 192
SWIDTH 673 0
DWIDTH 24 0
BBX 21 34 2 0
BITMAP
000001C600000000000000
00000AFF70000000000000
00007FFFF8000000000000
0001DFFFFF900000000000
000019FFFFF90000000000
0000003CFFF40000000000
000000007E800000000000
0000000001000000000000
0000000012210000000000
0000017CFFFFD930000000
00007EFFFFFFFFF9100000
000AFFFFFFFFFFFFC20000
009FFFFFFFFFFFFFFC1000
05FFFFFFFEDFFFFFFF9000
0DFFFFF920017EFFFFF300
5FFFFF60000003EFFFF900
9FFFFB000000007FFFFE00
CFFFF4000000001FFFFF10
EFFFF2000000000DFFFF30
EFFFF1000000000CFFFF30
EFFFF1000000000CFFFF30
EFFFF1000000000CFFFF30
EFFFF1000000000CFFFF30
EFFFF2111111111DFFFF30
EFFFFFFFFFFFFFFFFFFF30
EFFFFFFFFFFFFFFFFFFF30
EFFFFFFFFFFFFFFFFFFF30
EFFFFFFFFFFFFFFFFFFF30
EFFFFEEEEEEEEEEFFFFF30
EFFFF1000000000CFFFF30
EFFFF1000000000CFFFF30
EFFFF1000000000CFFFF30
EFFFF1000000000CFFFF30
EFFFF1000000000CFFFF30
ENDCHAR
STARTCHAR Aacute
ENCODING 193
SWIDTH 673 0
DWIDTH 24 0
BBX 21 34 2 0
BITMAP
0000000000005D10000000
000000000006FFB0000000
00000000007FFFF8000000
0000000008FFFFFE100000
000000008FFFFF91000000
000000003FFFD400000000
0000000006F70000000000
0000000000200000000000
0000000012210000000000
0000017CFFFFD930000000
00007EFFFFFFFFF9100000
000AFFFFFFFFFFFFC20000
009FFFFFFFFFFFFFFC1000
05FFFFFFFEDFFFFFFF9000
0DFFFFF920017EFFFFF300
5FFFFF60000003EFFFF900
9FFFFB000000007FFFFE00
CFFFF4000000001FFFFF10
EFFFF2000000000DFFFF30
EFFFF1000000000CFFFF30
EFFFF1000000000CFFFF30
EFFFF1000000000CFFFF30
EFFFF1000000000CFFFF30
EFFFF2111111111DFFFF30
EFFFFFFFFFFFFFFFFFFF30
EFFFFFFFFFFFFFFFFFFF30
EFFFFFFFFFFFFFFFFFFF30
EFFFFFFFFFFFFFFFFFFF30
EFFFFEEEEEEEEEEFFFFF30
EFFFF1000000000CFFFF30
EFFFF1000000000CFFFF30
EFFFF1000000000CFFFF30
EFFFF1000000000CFFFF30
EFFFF1000000000CFFFF30
ENDCHAR
STARTCHAR Acircumflex
ENCODING 194
SWIDTH 673 0
DWIDTH 24 0
BBX 21 33 2 0
BITMAP
0000000008A00000000000
000000009FFB1000000000
00000009FFFFB100000000
000000AFFFFFFC10000000
000007FFFDBFFFA0000000
000000BFC109FE20000000
0000001910008400000000
0000000012210000000000
0000017CFFFFD930000000
00007EFFFFFFFFF9100000
000AFFFFFFFFFFFFC20000
009FFFFFFFFFFFFFFC1000
05FFFFFFFEDFFFFFFF9000
0DFFFFF920017EFFFFF300
5FFFFF60000003EFFFF900
9FFFFB000000007FFFFE00
CFFFF4000000001FFFFF10
EFFFF2000000000DFFFF30
EFFFF1000000000CFFFF30
EFFFF1000000000CFFFF30
EFFFF1000000000CFFFF30
EFFFF1000000000CFFFF30
EFFFF2111111111DFFFF30
EFFFFFFFFFFFFFFFFFFF30
EFFFFFFFFFFFFFFFFFFF30
EFFFFFFFFFFFFFFFFFFF30
EFFFFFFFFFFFFFFFFFFF30
EFFFFEEEEEEEEEEFFFFF30
EFFFF1000000000CFFFF30
EFFFF1000000000CFFFF30
EFFFF1000000000CFFFF30
EFFFF1000000000CFFFF30
EFFFF1000000000CFFFF30
ENDCHAR
STARTCHAR Atilde
ENCODING 195
SWIDTH 673 0
DWIDTH 24 0
BBX 21 33 2 0
BITMAP
0000018BB60059B9000000
00001EFFFFA08FFC000000
00007FFFFFFBDFFD000000
0000AFFFEFFFFFFB000000
00009FFE06FFFFF5000000
00005FFE104DFE60000000
0000033200001000000000
0000000012210000000000
0000017CFFFFD930000000
00007EFFFFFFFFF9100000
000AFFFFFFFFFFFFC20000
009FFFFFFFFFFFFFFC1000
05FFFFFFFEDFFFFFFF9000
0DFFFFF920017EFFFFF300
5FFFFF60000003EFFFF900
9FFFFB000000007FFFFE00
CFFFF4000000001FFFFF10
EFFFF2000000000DFFFF30
EFFFF1000000000CFFFF30
EFFFF1000000000CFFFF30
EFFFF1000000000CFFFF30
EFFFF1000000000CFFFF30
EFFFF2111111111DFFFF30
EFFFFFFFFFFFFFFFFFFF30
EFFFFFFFFFFFFFFFFFFF30
EFFFFFFFFFFFFFFFFFFF30
EFFFFFFFFFFFFFFFFFFF30
EFFFFEEEEEEEEEEFFFFF30
EFFFF1000000000CFFFF30
EFFFF1000000000CFFFF30
EFFFF1000000000CFFFF30
EFFFF1000000000CFFFF30
EFFFF1000000000CFFFF30
ENDCHAR
STARTCHAR Adieresis
ENCODING 196
SWIDTH 673 0
DWIDTH 24 0
BBX 21 31 2 0
BITMAP
0000017610003620000000
00000DFFC006FFE2000000
00004FFFF20CFFF7000000
00002FFFE10AFFF5000000
000005DD5002BE90000000
0000000012210000000000
0000017CFFFFD930000000
00007EFFFFFFFFF9100000
000AFFFFFFFFFFFFC20000
009FFFFFFFFFFFFFFC1000
05FFFFFFFEDFFFFFFF9000
0DFFFFF920017EFFFFF300
5FFFFF60000003EFFFF900
9FFFFB000000007FFFFE00
CFFFF4000000001FFFFF10
EFFFF2000000000DFFFF30
EFFFF1000000000CFFFF30
EFFFF1000000000CFFFF30
EFFFF1000000000CFFFF30
EFFFF1000000000CFFFF30
EFFFF2111111111DFFFF30
EFFFFFFFFFFFFFFFFFFF30
EFFFFFFFFFFFFFFFFFFF30
EFFFFFFFFFFFFFFFFFFF30
EFFFFFFFFFFFFFFFFFFF30
EFFFFEEEEEEEEEEFFFFF30
EFFFF1000000000CFFFF30
EFFFF1000000000CFFFF30
EFFFF1000000000CFFFF30
EFFFF1000000000CFFFF30
EFFFF1000000000CFFFF30
ENDCHAR
STARTCHAR Aring
ENCODING 197
SWIDTH 673 0
DWIDTH 24 0
BBX 21 31 2 0
BITMAP
000000008EEA1000000000
0000000AFFFFD000000000
0000003FF97FF600000000
0000005FF00CF900000000
0000003FFA8FF600000000
0000000AFFFFD100000000
0000017CFFFFE820000000
00006EFFFFFFFFF9100000
000AFFFFFFFFFFFFD20000
009FFFFFFFFFFFFFFD1000
05FFFFFFFEDFFFFFFF9000
0DFFFFF920017EFFFFF300
5FFFFF60000003EFFFF900
9FFFFB000000007FFFFD00
CFFFF4000000001FFFFF10
EFFFF2000000000DFFFF30
EFFFF1000000000CFFFF30
EFFFF1000000000CFFFF30
EFFFF1000000000CFFFF30
EFFFF1000000000CFFFF30
EFFFF2111111111DFFFF30
EFFFFFFFFFFFFFFFFFFF30
EFFFFFFFFFFFFFFFFFFF30
EFFFFFFFFFFFFFFFFFFF30
EFFFFFFFFFFFFFFFFFFF30
EFFFFEEEEEEEEEEFFFFF30
EFFFF1000000000CFFFF30
EFFFF1000000000CFFFF30
EFFFF1000000000CFFFF30
EFFFF1000000000CFFFF30
EFFFF1000000000CFFFF30
ENDCHAR
STARTCHAR AE
ENCODING 198
SWIDTH 988 0
DWIDTH 36 0
BBX 33 26 2 0
BITMAP
0000000012333333333333333333333310
0000017CFFFFFFFFFFFFFFFFFFFFFFFF60
00007EFFFFFFFFFFFFFFFFFFFFFFFFFF60
000AFFFFFFFFFFFFFFFFFFFFFFFFFFFF60
009FFFFFFFFFFFFFFFFFFFFFFFFFFFFF60
05FFFFFFFEDDDDDFFFFFDDDDDDDDDDDD50
0DFFFFF92000000DFFFF30000000000000
5FFFFF600000000DFFFF30000000000000
9FFFFB000000000DFFFF30000000000000
CFFFF4000000000DFFFF30000000000000
EFFFF2000000000DFFFF52222222100000
EFFFF1000000000DFFFFFFFFFFFF700000
EFFFF1000000000DFFFFFFFFFFFF700000
EFFFF1000000000DFFFFFFFFFFFF700000
EFFFF1000000000DFFFFFFFFFFFF700000
EFFFF2111111111DFFFFEEEEEEEE600000
EFFFFFFFFFFFFFFFFFFF30000000000000
EFFFFFFFFFFFFFFFFFFF30000000000000
EFFFFFFFFFFFFFFFFFFF30000000000000
EFFFFFFFFFFFFFFFFFFF30000000000000
EFFFFEEEEEEEEEEFFFFF41111111111100
EFFFF1000000000DFFFFFFFFFFFFFFFF60
EFFFF1000000000DFFFFFFFFFFFFFFFF60
EFFFF1000000000DFFFFFFFFFFFFFFFF60
EFFFF1000000000DFFFFFFFFFFFFFFFF60
EFFFF1000000000DFFFFFFFFFFFFFFFF60
ENDCHAR
STARTCHAR Ccedilla
ENCODING 199
SWIDTH 640 0
DWIDTH 23 0
BBX 22 35 1 -9
BITMAP
0000000001478864100000
00000005BFFFFFFFFB4000
000002CFFFFFFFFFFFFC20
00005FFFFFFFFFFFFFFFE3
0006FFFFFFFFFFFFFFFFD0
004FFFFFFFEA88AEFFFF40
01DFFFFFD50000005DFA00
08FFFFFA1000000001A200
1EFFFFB000000000000000
6FFFFF2000000000000000
AFFFF90000000000000000
DFFFF40000000000000000
FFFFF10000000000000000
FFFFF00000000000000000
EFFFF10000000000000000
DFFFF40000000000000000
AFFFF90000000000000000
6FFFFF2000000000000000
1EFFFFC000000000000000
08FFFFFB1000000001A200
01DFFFFFD50000005DFA00
004FFFFFFFEA88AEFFFF50
0006FFFFFFFFFFFFFFFFD1
00005EFFFFFFFFFFFFFFE3
000002CFFFFFFFFFFFFC20
00000004AFFFFFFFFB4000
0000000002FF8864100000
0000000007FE6000000000
000000000CFFFB00000000
00000000057FFF40000000
00000003922FFF60000000
00000009FFFFFF40000000
0000000DFFFFFC00000000
000000019EFE9100000000
0000000000100000000000
ENDCHAR
STARTCHAR Egrave
ENCODING 200
SWIDTH 578 0
DWIDTH 21 0
BBX 18 34 2 0
BITMAP
000007B10000000000
00004FFC1000000000
0002EFFFC100000000
0008FFFFFD20000000
00005DFFFFD1000000
0000019FFFA0000000
00000003CD10000000
000000000200000000
233333333333333332
AFFFFFFFFFFFFFFFF9
AFFFFFFFFFFFFFFFF9
AFFFFFFFFFFFFFFFF9
AFFFFFFFFFFFFFFFF9
AFFFFEDDDDDDDDDDD8
AFFFF6000000000000
AFFFF6000000000000
AFFFF6000000000000
AFFFF6000000000000
AFFFF7222222210000
AFFFFFFFFFFFFA0000
AFFFFFFFFFFFFA0000
AFFFFFFFFFFFFA0000
AFFFFFFFFFFFFA0000
AFFFFEEEEEEEE90000
AFFFF6000000000000
AFFFF6000000000000
AFFFF6000000000000
AFFFF6000000000000
AFFFF6111111111110
AFFFFFFFFFFFFFFFF9
AFFFFFFFFFFFFFFFF9
AFFFFFFFFFFFFFFFF9
AFFFFFFFFFFFFFFFF9
AFFFFFFFFFFFFFFFF9
ENDCHAR
STARTCHAR Eacute
ENCODING 201
SWIDTH 578 0
DWIDTH 21 0
BBX 18 34 2 0
BITMAP
000000000005D10000
00000000006FFA0000
0000000007FFFF7000
000000008FFFFFE100
00000008FFFFF91000
00000004FFFC400000
000000007E70000000
000000000200000000
233333333333333332
AFFFFFFFFFFFFFFFF9
AFFFFFFFFFFFFFFFF9
AFFFFFFFFFFFFFFFF9
AFFFFFFFFFFFFFFFF9
AFFFFEDDDDDDDDDDD8
AFFFF6000000000000
AFFFF6000000000000
AFFFF6000000000000
AFFFF6000000000000
AFFFF7222222210000
AFFFFFFFFFFFFA0000
AFFFFFFFFFFFFA0000
AFFFFFFFFFFFFA0000
AFFFFFFFFFFFFA0000
AFFFFEEEEEEEE90000
AFFFF6000000000000
AFFFF6000000000000
AFFFF6000000000000
AFFFF6000000000000
AFFFF6111111111110
AFFFFFFFFFFFFFFFF9
AFFFFFFFFFFFFFFFF9
AFFFFFFFFFFFFFFFF9
AFFFFFFFFFFFFFFFF9
AFFFFFFFFFFFFFFFF9
ENDCHAR
STARTCHAR Ecircumflex
ENCODING 202
SWIDTH 578 0
DWIDTH 21 0
BBX 18 34 2 0
BITMAP
00000000A700000000
0000000BFF90000000
000001BFFFFA000000
00001CFFFFFFB10000
00009FFFBCFFF80000
00001CFB11BFD10000
000002900009200000
000000000000000000
233333333333333332
AFFFFFFFFFFFFFFFF9
AFFFFFFFFFFFFFFFF9
AFFFFFFFFFFFFFFFF9
AFFFFFFFFFFFFFFFF9
AFFFFEDDDDDDDDDDD8
AFFFF6000000000000
AFFFF6000000000000
AFFFF6000000000000
AFFFF6000000000000
AFFFF7222222210000
AFFFFFFFFFFFFA0000
AFFFFFFFFFFFFA0000
AFFFFFFFFFFFFA0000
AFFFFFFFFFFFFA0000
AFFFFEEEEEEEE90000
AFFFF6000000000000
AFFFF6000000000000
AFFFF6000000000000
AFFFF6000000000000
AFFFF6111111111110
AFFFFFFFFFFFFFFFF9
AFFFFFFFFFFFFFFFF9
AFFFFFFFFFFFFFFFF9
AFFFFFFFFFFFFFFFF9
AFFFFFFFFFFFFFFFF9
ENDCHAR
STARTCHAR Edieresis
ENCODING 203
SWIDTH 578 0
DWIDTH 21 0
BBX 18 32 2 0
BITMAP
000027500004610000
0002EFF9008FFD1000
0006FFFF00EFFF4000
0004FFFD00CFFF3000
00007EC3003CE70000
000000000000000000
233333333333333332
AFFFFFFFFFFFFFFFF9
AFFFFFFFFFFFFFFFF9
AFFFFFFFFFFFFFFFF9
AFFFFFFFFFFFFFFFF9
AFFFFEDDDDDDDDDDD8
AFFFF6000000000000
AFFFF6000000000000
AFFFF6000000000000
AFFFF6000000000000
AFFFF7222222210000
AFFFFFFFFFFFFA0000
AFFFFFFFFFFFFA0000
AFFFFFFFFFFFFA0000
AFFFFFFFFFFFFA0000
AFFFFEEEEEEEE90000
AFFFF6000000000000
AFFFF6000000000000
AFFFF6000000000000
AFFFF6000000000000
AFFFF6111111111110
AFFFFFFFFFFFFFFFF9
AFFFFFFFFFFFFFFFF9
AFFFFFFFFFFFFFFFF9
AFFFFFFFFFFFFFFFF9
AFFFFFFFFFFFFFFFF9
ENDCHAR
STARTCHAR Igrave
ENCODING 204
SWIDTH 270 0
DWIDTH 10 0
BBX 10 34 -2 0
BITMAP
001D500000
00BFF60000
08FFFF7000
1EFFFFF800
019FFFFF80
0004DFFF30
000007F700
0000002000
0000233331
0000AFFFF6
0000AFFFF6
0000AFFFF6
0000AFFFF6
0000AFFFF6
0000AFFFF6
0000AFFFF6
0000AFFFF6
0000AFFFF6
0000AFFFF6
0000AFFFF6
0000AFFFF6
0000AFFFF6
0000AFFFF6
0000AFFFF6
0000AFFFF6
0000AFFFF6
0000AFFFF6
0000AFFFF6
0000AFFFF6
0000AFFFF6
0000AFFFF6
0000AFFFF6
0000AFFFF6
0000AFFFF6
ENDCHAR
STARTCHAR Iacute
ENCODING 205
SWIDTH 270 0
DWIDTH 10 0
BBX 9 34 2 0
BITMAP
000009A000
0000AFF600
001BFFFF30
01BFFFFFB0
0CFFFFE700
08FFFA2000
00BD400000
0011000000
2333310000
AFFFF60000
AFFFF60000
AFFFF60000
AFFFF60000
AFFFF60000
AFFFF60000
AFFFF60000
AFFFF60000
AFFFF60000
AFFFF60000
AFFFF60000
AFFFF60000
AFFFF60000
AFFFF60000
AFFFF60000
AFFFF60000
AFFFF60000
AFFFF60000
AFFFF60000
AFFFF60000
AFFFF60000
AFFFF60000
AFFFF60000
AFFFF60000
AFFFF60000
ENDCHAR
STARTCHAR Icircumflex
ENCODING 206
SWIDTH 270 0
DWIDTH 10 0
BBX 10 34 0 0
BITMAP
0001B60000
001BFF8000
01CFFFF900
2DFFFFFFA0
AFFFBDFFF7
1DFA01CFC0
0280001A20
0000000000
0023333100
00AFFFF600
00AFFFF600
00AFFFF600
00AFFFF600
00AFFFF600
00AFFFF600
00AFFFF600
00AFFFF600
00AFFFF600
00AFFFF600
00AFFFF600
00AFFFF600
00AFFFF600
00AFFFF600
00AFFFF600
00AFFFF600
00AFFFF600
00AFFFF600
00AFFFF600
00AFFFF600
00AFFFF600
00AFFFF600
00AFFFF600
00AFFFF600
00AFFFF600
ENDCHAR
STARTCHAR Idieresis
ENCODING 207
SWIDTH 270 0
DWIDTH 10 0
BBX 12 32 -1 0
BITMAP
027500005610
2EFF8009FFC0
7FFFE00FFFF3
5FFFC00DFFF2
08EC2003CD60
000000000000
000233331000
000AFFFF6000
000AFFFF6000
000AFFFF6000
000AFFFF6000
000AFFFF6000
000AFFFF6000
000AFFFF6000
000AFFFF6000
000AFFFF6000
000AFFFF6000
000AFFFF6000
000AFFFF6000
000AFFFF6000
000AFFFF6000
000AFFFF6000
000AFFFF6000
000AFFFF6000
000AFFFF6000
000AFFFF6000
000AFFFF6000
000AFFFF6000
000AFFFF6000
000AFFFF6000
000AFFFF6000
000AFFFF6000
ENDCHAR
STARTCHAR Eth
ENCODING 208
SWIDTH 672 0
DWIDTH 24 0
BBX 24 26 0 0
BITMAP
000333333332100000000000
000FFFFFFFFFFD9300000000
000FFFFFFFFFFFFFB2000000
000FFFFFFFFFFFFFFF600000
000FFFFFFFFFFFFFFFF70000
000FFFFFDDDEFFFFFFFF6000
000FFFFF200027EFFFFFF200
000FFFFF2000001AFFFFFB00
000FFFFF20000000AFFFFF30
000FFFFF200000001EFFFF90
222FFFFF3220000007FFFFD0
DFFFFFFFFFF0000002FFFFF1
DFFFFFFFFFF0000000EFFFF2
DFFFFFFFFFF0000000DFFFF3
DFFFFFFFFFF0000000EFFFF2
8AAFFFFFAAA0000002FFFFF1
000FFFFF2000000008FFFFC0
000FFFFF200000002EFFFF80
000FFFFF20000001CFFFFF20
000FFFFF2000002CFFFFF900
000FFFFF211259FFFFFFE100
000FFFFFFFFFFFFFFFFF4000
000FFFFFFFFFFFFFFFF50000
000FFFFFFFFFFFFFFD300000
000FFFFFFFFFFFFE81000000
000FFFFFFFFEDA6100000000
ENDCHAR
STARTCHAR Ntilde
ENCODING 209
SWIDTH 689 0
DWIDTH 25 0
BBX 21 33 2 0
BITMAP
0000007AB81039BC000000
00000AFFFFD13FFF200000
00003FFFFFFDCFFF300000
00005FFFFFFFFFFF100000
00004FFF43DFFFF9000000
00001FFF402BFF91000000
0000033210001000000000
2333320000000002333320
AFFFFF2000000008FFFF80
AFFFFFB000000008FFFF80
AFFFFFF500000008FFFF80
AFFFFFFD00000008FFFF80
AFFFFFFF70000008FFFF80
AFFFFFFFE2000008FFFF80
AFFFFFFFFA000008FFFF80
AFFFFFFFFF400008FFFF80
AFFFFDFFFFC00008FFFF80
AFFFF7EFFFF60008FFFF80
AFFFF66FFFFE1008FFFF80
AFFFF60CFFFF9008FFFF80
AFFFF603FFFFF308FFFF80
AFFFF6009FFFFB08FFFF80
AFFFF6001EFFFF58FFFF80
AFFFF60007FFFFD9FFFF80
AFFFF60000DFFFFEFFFF80
AFFFF600004FFFFFFFFF80
AFFFF600000BFFFFFFFF80
AFFFF6000002FFFFFFFF80
AFFFF60000008FFFFFFF80
AFFFF60000001DFFFFFF80
AFFFF600000005FFFFFF80
AFFFF600000000CFFFFF80
AFFFF6000000003FFFFF80
ENDCHAR
STARTCHAR Ograve
ENCODING 210
SWIDTH 777 0
DWIDTH 28 0
BBX 26 35 1 -1
BITMAP
000000001C6000000000000000
00000000AFF700000000000000
00000007FFFF70000000000000
0000001EFFFFF8000000000000
000000019FFFFF800000000000
0000000003CFFF400000000000
000000000007E7000000000000
00000000000020000000000000
00000000014677641000000000
00000004AFFFFFFFFB40000000
000002BFFFFFFFFFFFFC200000
00005EFFFFFFFFFFFFFFF50000
0006FFFFFFFFFFFFFFFFFF6000
004FFFFFFFEA88AEFFFFFFF400
01DFFFFFD50000005DFFFFFE10
08FFFFFA1000000001AFFFFF80
1EFFFFB000000000000BFFFFE1
6FFFFF20000000000002FFFFF6
AFFFF9000000000000009FFFFA
DFFFF4000000000000004FFFFD
FFFFF1000000000000001FFFFE
FFFFF0000000000000000FFFFF
FFFFF1000000000000001FFFFE
DFFFF4000000000000004FFFFD
AFFFF9000000000000009FFFFA
6FFFFF20000000000002FFFFF6
1EFFFFC000000000000CFFFFE1
08FFFFFB1000000001BFFFFF80
01DFFFFFD50000005DFFFFFE10
004FFFFFFFEA88AEFFFFFFF400
0006FFFFFFFFFFFFFFFFFF6000
00005FFFFFFFFFFFFFFFF50000
000002CFFFFFFFFFFFFC300000
00000004BFFFFFFFFB50000000
00000000014788741000000000
ENDCHAR
STARTCHAR Oacute
ENCODING 211
SWIDTH 777 0
DWIDTH 28 0
BBX 26 35 1 -1
BITMAP
0000000000000005D100000000
000000000000005FFB00000000
00000000000006FFFF80000000
0000000000007FFFFFE2000000
000000000007FFFFFA10000000
000000000003FFFD4000000000
0000000000006F800000000000
00000000000002000000000000
00000000014677641000000000
00000004AFFFFFFFFB40000000
000002BFFFFFFFFFFFFC200000
00005EFFFFFFFFFFFFFFF50000
0006FFFFFFFFFFFFFFFFFF6000
004FFFFFFFEA88AEFFFFFFF400
01DFFFFFD50000005DFFFFFE10
08FFFFFA1000000001AFFFFF80
1EFFFFB000000000000BFFFFE1
6FFFFF20000000000002FFFFF6
AFFFF9000000000000009FFFFA
DFFFF4000000000000004FFFFD
FFFFF1000000000000001FFFFE
FFFFF0000000000000000FFFFF
FFFFF1000000000000001FFFFE
DFFFF4000000000000004FFFFD
AFFFF9000000000000009FFFFA
6FFFFF20000000000002FFFFF6
1EFFFFC000000000000CFFFFE1
08FFFFFB1000000001BFFFFF80
01DFFFFFD50000005DFFFFFE10
004FFFFFFFEA88AEFFFFFFF400
0006FFFFFFFFFFFFFFFFFF6000
00005FFFFFFFFFFFFFFFF50000
000002CFFFFFFFFFFFFC300000
00000004BFFFFFFFFB50000000
00000000014788741000000000
ENDCHAR
STARTCHAR Ocircumflex
ENCODING 212
SWIDTH 777 0
DWIDTH 28 0
BBX 26 35 1 -1
BITMAP
000000000000A8000000000000
00000000000AFF900000000000
0000000001BFFFFA0000000000
000000001CFFFFFFB100000000
000000009FFFCCFFF800000000
000000001CFB11BFD100000000
00000000029000093000000000
00000000000000000000000000
00000000014677641000000000
00000004AFFFFFFFFB40000000
000002BFFFFFFFFFFFFC200000
00005EFFFFFFFFFFFFFFF50000
0006FFFFFFFFFFFFFFFFFF6000
004FFFFFFFEA88AEFFFFFFF400
01DFFFFFD50000005DFFFFFE10
08FFFFFA1000000001AFFFFF80
1EFFFFB000000000000BFFFFE1
6FFFFF20000000000002FFFFF6
AFFFF9000000000000009FFFFA
DFFFF4000000000000004FFFFD
FFFFF1000000000000001FFFFE
FFFFF0000000000000000FFFFF
FFFFF1000000000000001FFFFE
DFFFF4000000000000004FFFFD
AFFFF9000000000000009FFFFA
6FFFFF20000000000002FFFFF6
1EFFFFC000000000000CFFFFE1
08FFFFFB1000000001BFFFFF80
01DFFFFFD50000005DFFFFFE10
004FFFFFFFEA88AEFFFFFFF400
0006FFFFFFFFFFFFFFFFFF6000
00005FFFFFFFFFFFFFFFF50000
000002CFFFFFFFFFFFFC300000
00000004BFFFFFFFFB50000000
00000000014788741000000000
ENDCHAR
STARTCHAR Otilde
ENCODING 213
SWIDTH 777 0
DWIDTH 28 0
BBX 26 34 1 -1
BITMAP
0000000029BA5006AC70000000
00000002EFFFF80AFFB0000000
00000009FFFFFFBEFFB0000000
0000000CFFFEFFFFFF90000000
0000000BFFC07FFFFF30000000
00000007FFD005EFD500000000
00000001332000010000000000
00000000014677641000000000
00000004AFFFFFFFFB40000000
000002BFFFFFFFFFFFFC200000
00005EFFFFFFFFFFFFFFF50000
0006FFFFFFFFFFFFFFFFFF6000
004FFFFFFFEA88AEFFFFFFF400
01DFFFFFD50000005DFFFFFE10
08FFFFFA1000000001AFFFFF80
1EFFFFB000000000000BFFFFE1
6FFFFF20000000000002FFFFF6
AFFFF9000000000000009FFFFA
DFFFF4000000000000004FFFFD
FFFFF1000000000000001FFFFE
FFFFF0000000000000000FFFFF
FFFFF1000000000000001FFFFE
DFFFF4000000000000004FFFFD
AFFFF9000000000000009FFFFA
6FFFFF20000000000002FFFFF6
1EFFFFC000000000000CFFFFE1
08FFFFFB1000000001BFFFFF80
01DFFFFFD50000005DFFFFFE10
004FFFFFFFEA88AEFFFFFFF400
0006FFFFFFFFFFFFFFFFFF6000
00005FFFFFFFFFFFFFFFF50000
000002CFFFFFFFFFFFFC300000
00000004BFFFFFFFFB50000000
00000000014788741000000000
ENDCHAR
STARTCHAR Odieresis
ENCODING 214
SWIDTH 777 0
DWIDTH 28 0
BBX 26 33 1 -1
BITMAP
00000000276000046100000000
00000001EFFA008FFD10000000
00000006FFFF00EFFF50000000
00000003FFFD00CFFF30000000
000000007EC3003CE700000000
00000000000000000000000000
00000000014677641000000000
00000004AFFFFFFFFB40000000
000002BFFFFFFFFFFFFC200000
00005EFFFFFFFFFFFFFFF50000
0006FFFFFFFFFFFFFFFFFF6000
004FFFFFFFEA88AEFFFFFFF400
01DFFFFFD50000005DFFFFFE10
08FFFFFA1000000001AFFFFF80
1EFFFFB000000000000BFFFFE1
6FFFFF20000000000002FFFFF6
AFFFF9000000000000009FFFFA
DFFFF4000000000000004FFFFD
FFFFF1000000000000001FFFFE
FFFFF0000000000000000FFFFF
FFFFF1000000000000001FFFFE
DFFFF4000000000000004FFFFD
AFFFF9000000000000009FFFFA
6FFFFF20000000000002FFFFF6
1EFFFFC000000000000CFFFFE1
08FFFFFB1000000001BFFFFF80
01DFFFFFD50000005DFFFFFE10
004FFFFFFFEA88AEFFFFFFF400
0006FFFFFFFFFFFFFFFFFF6000
00005FFFFFFFFFFFFFFFF50000
000002CFFFFFFFFFFFFC300000
00000004BFFFFFFFFB50000000
00000000014788741000000000
ENDCHAR
STARTCHAR multiply
ENCODING 215
SWIDTH 479 0
DWIDTH 17 0
BBX 15 14 1 6
BITMAP
0003400000270000
003EE40002EF8000
03EFFE402EFFF800
2EFFFFE6EFFFFF50
08FFFFFFFFFFFB00
008FFFFFFFFFA000
0008FFFFFFFA0000
0002FFFFFFF40000
002EFFFFFFFE4000
02EFFFFFFFFFE400
1DFFFFFDFFFFFE30
05FFFFA09FFFFB00
005FFA0009FFB000
0005A000008B0000
ENDCHAR
STARTCHAR Oslash
ENCODING 216
SWIDTH 777 0
DWIDTH 28 0
BBX 26 27 1 -1
BITMAP
00000000014678641001333320
00000004AFFFFFFFFA4BFFFE20
000002BFFFFFFFFFFFFFFFF500
00005EFFFFFFFFFFFFFFFF9000
0006FFFFFFFFFFFFFFFFFF6000
004FFFFFFFEA88AEFFFFFFF300
01DFFFFFD5000006FFFFFFFD10
08FFFFFA1000002EFFFFFFFF70
1EFFFFB0000000CFFFEBFFFFE1
6FFFFF20000008FFFF42EFFFF5
AFFFF90000004FFFF8009FFFFA
DFFFF4000001EFFFC0004FFFFD
FFFFF100000BFFFE20001FFFFF
FFFFF000007FFFF500000FFFFF
FFFFF10003FFFF9000001FFFFE
DFFFF4001DFFFD1000004FFFFD
AFFFF900AFFFF30000009FFFFA
6FFFFE26FFFF60000002FFFFF6
1EFFFFCEFFFA0000000CFFFFE1
07FFFFFFFFD1000001BFFFFF80
01DFFFFFFF4000005DFFFFFE10
004FFFFFFFEA88AEFFFFFFF400
0007FFFFFFFFFFFFFFFFFF6000
000BFFFFFFFFFFFFFFFFF50000
008FFFFFFFFFFFFFFFFC300000
04FFFF94BFFFFFFFFB50000000
00000000014788741000000000
ENDCHAR
STARTCHAR Ugrave
ENCODING 217
SWIDTH 673 0
DWIDTH 24 0
BBX 21 34 2 0
BITMAP
0000007B10000000000000
000004FFB1000000000000
00002EFFFC100000000000
00009FFFFFD20000000000
000005EFFFFD1000000000
00000019FFFA0000000000
000000003CD10000000000
0000000000100000000000
3333300000000003333310
EFFFF1000000000CFFFF30
EFFFF1000000000CFFFF30
EFFFF1000000000CFFFF30
EFFFF1000000000CFFFF30
EFFFF1000000000CFFFF30
EFFFF1000000000CFFFF30
EFFFF1000000000CFFFF30
EFFFF1000000000CFFFF30
EFFFF1000000000CFFFF30
EFFFF1000000000CFFFF30
EFFFF1000000000CFFFF30
EFFFF1000000000CFFFF30
EFFFF1000000000CFFFF30
EFFFF1000000000CFFFF30
EFFFF1000000000CFFFF30
DFFFF2000000000DFFFF20
CFFFF5000000002FFFFF10
9FFFFC000000008FFFFD00
4FFFFF90000006FFFFF800
0CFFFFFC5214AFFFFFE200
04FFFFFFFFFFFFFFFF8000
007FFFFFFFFFFFFFFB0000
0007FFFFFFFFFFFFA10000
00004CFFFFFFFFE6000000
00000059DEEDA610000000
ENDCHAR
STARTCHAR Uacute
ENCODING 218
SWIDTH 673 0
DWIDTH 24 0
BBX 21 34 2 0
BITMAP
0000000000003D30000000
000000000003EFD1000000
00000000004EFFFB000000
0000000005FFFFFF400000
000000005FFFFFB2000000
000000001EFFE600000000
0000000004F91000000000
0000000000200000000000
3333300000000003333310
EFFFF1000000000CFFFF30
EFFFF1000000000CFFFF30
EFFFF1000000000CFFFF30
EFFFF1000000000CFFFF30
EFFFF1000000000CFFFF30
EFFFF1000000000CFFFF30
EFFFF1000000000CFFFF30
EFFFF1000000000CFFFF30
EFFFF1000000000CFFFF30
EFFFF1000000000CFFFF30
EFFFF1000000000CFFFF30
EFFFF1000000000CFFFF30
EFFFF1000000000CFFFF30
EFFFF1000000000CFFFF30
EFFFF1000000000CFFFF30
DFFFF2000000000DFFFF20
CFFFF5000000002FFFFF10
9FFFFC000000008FFFFD00
4FFFFF90000006FFFFF800
0CFFFFFC5214AFFFFFE200
04FFFFFFFFFFFFFFFF8000
007FFFFFFFFFFFFFFB0000
0007FFFFFFFFFFFFA10000
00004CFFFFFFFFE6000000
00000059DEEDA610000000
ENDCHAR
STARTCHAR Ucircumflex
ENCODING 219
SWIDTH 673 0
DWIDTH 24 0
BBX 21 33 2 0
BITMAP
0000000008A00000000000
000000009FFB1000000000
00000009FFFFB100000000
000000AFFFFFFC10000000
000007FFFDBFFFA0000000
000000BFC109FE20000000
0000001910008400000000
3333300000000003333310
EFFFF1000000000CFFFF30
EFFFF1000000000CFFFF30
EFFFF1000000000CFFFF30
EFFFF1000000000CFFFF30
EFFFF1000000000CFFFF30
EFFFF1000000000CFFFF30
EFFFF1000000000CFFFF30
EFFFF1000000000CFFFF30
EFFFF1000000000CFFFF30
EFFFF1000000000CFFFF30
EFFFF1000000000CFFFF30
EFFFF1000000000CFFFF30
EFFFF1000000000CFFFF30
EFFFF1000000000CFFFF30
EFFFF1000000000CFFFF30
DFFFF2000000000DFFFF20
CFFFF5000000002FFFFF10
9FFFFC000000008FFFFD00
4FFFFF90000006FFFFF800
0CFFFFFC5214AFFFFFE200
04FFFFFFFFFFFFFFFF8000
007FFFFFFFFFFFFFFB0000
0007FFFFFFFFFFFFA10000
00004CFFFFFFFFE6000000
00000059DEEDA610000000
ENDCHAR
STARTCHAR Udieresis
ENCODING 220
SWIDTH 673 0
DWIDTH 24 0
BBX 21 31 2 0
BITMAP
0000017610003620000000
00000DFFC006FFE2000000
00004FFFF20CFFF7000000
00002FFFE10AFFF5000000
000005DD5002BE90000000
3333300000000003333310
EFFFF1000000000CFFFF30
EFFFF1000000000CFFFF30
EFFFF1000000000CFFFF30
EFFFF1000000000CFFFF30
EFFFF1000000000CFFFF30
EFFFF1000000000CFFFF30
EFFFF1000000000CFFFF30
EFFFF1000000000CFFFF30
EFFFF1000000000CFFFF30
EFFFF1000000000CFFFF30
EFFFF1000000000CFFFF30
EFFFF1000000000CFFFF30
EFFFF1000000000CFFFF30
EFFFF1000000000CFFFF30
EFFFF1000000000CFFFF30
DFFFF2000000000DFFFF20
CFFFF5000000002FFFFF10
9FFFFC000000008FFFFD00
4FFFFF90000006FFFFF800
0CFFFFFC5214AFFFFFE200
04FFFFFFFFFFFFFFFF8000
007FFFFFFFFFFFFFFB0000
0007FFFFFFFFFFFFA10000
00004CFFFFFFFFE6000000
00000059DEEDA610000000
ENDCHAR
STARTCHAR Yacute
ENCODING 221
SWIDTH 620 0
DWIDTH 22 0
BBX 21 34 1 0
BITMAP
0000000000004D20000000
000000000005FFC0000000
00000000006FFFF9000000
0000000007FFFFFE200000
000000006FFFFFA2000000
000000002EFFD400000000
0000000005F81000000000
0000000000200000000000
3333300000000002333310
EFFFF2000000000CFFFF40
EFFFF2000000000CFFFF40
EFFFF2000000000CFFFF40
EFFFF2000000000CFFFF40
EFFFF2000000000CFFFF40
EFFFF2000000000CFFFF40
EFFFF2000000000CFFFF40
EFFFF2000000000CFFFF30
DFFFF4000000000EFFFF20
AFFFF9000000004FFFFE00
6FFFFF40000001DFFFFB00
1EFFFFE600003DFFFFF500
07FFFFFFEAACFFFFFFC000
00CFFFFFFFFFFFFFFE2000
001DFFFFFFFFFFFFE40000
0001AFFFFFFFFFFD300000
000004BFFFFFFC60000000
00000005FFFFA000000000
00000005FFFFA000000000
00000005FFFFA000000000
00000005FFFFA000000000
00000005FFFFA000000000
00000005FFFFA000000000
00000005FFFFA000000000
00000005FFFFA000000000
ENDCHAR
STARTCHAR Thorn
ENCODING 222
SWIDTH 637 0
DWIDTH 23 0
BBX 21 29 2 -2
BITMAP
3444420000000000000000
AFFFF60000000000000000
AFFFF60000000000000000
AFFFF60000000000000000
AFFFFCAAAAA86200000000
AFFFFFFFFFFFFFC4000000
AFFFFFFFFFFFFFFF900000
AFFFFFFFFFFFFFFFFB0000
AFFFFFFFFFFFFFFFFF8000
AFFFF9555557CFFFFFF300
AFFFF600000007FFFFFA00
AFFFF6000000008FFFFF10
AFFFF6000000000EFFFF40
AFFFF6000000000AFFFF60
AFFFF60000000009FFFF70
AFFFF6000000000AFFFF60
AFFFF6000000001EFFFF40
AFFFF600000000AFFFFE00
AFFFF60000001AFFFFF900
AFFFFB88889BEFFFFFE200
AFFFFFFFFFFFFFFFFF6000
AFFFFFFFFFFFFFFFF80000
AFFFFFFFFFFFFFFE600000
AFFFFFFFFFFFFE92000000
AFFFFA7777764000000000
AFFFF60000000000000000
AFFFF60000000000000000
AFFFF60000000000000000
1111100000000000000000
ENDCHAR
STARTCHAR germandbls
ENCODING 223
SWIDTH 813 0
DWIDTH 29 0
BBX 29 29 0 0
BITMAP
000000000001222210000000000000
000000018CFFFFFFFEA40000000000
0000006EFFFFFFFFFFFFA000000000
000008FFFFFFFFFFFFFFFA00000000
00005FFFFFFFFFFFFFFFFF60000000
0001DFFFFFDAAAAABFFFFFD0000000
0006FFFFE500000003EFFFF2000000
000AFFFF70000000008FFFF4000000
000CFFFF10000000008FFFF4000000
000DFFFE0000000003EFFFF2000000
3CCFFFFE0000028BCFFFFFD0000000
3FFFFFFE00007FFFFFFFFF60000000
3FFFFFFE0007FFFFFFFFFA00000000
3FFFFFFE002FFFFFFFFF9000000000
3EEFFFFE007FFFFFED930000000000
000DFFFE00AFFFF500000000000000
000DFFFE00BFFFF200000000000000
000DFFFE009FFFFD99999998620000
000DFFFE004FFFFFFFFFFFFFFF8000
000DFFFE000BFFFFFFFFFFFFFFFB00
000DFFFE0001CFFFFFFFFFFFFFFF60
000DFFFE000018EFFFFFFFFFFFFFC0
000DFFFE0000000233333334EFFFE0
000DFFFE0000000000000001EFFFF0
000DFFFE0003CCCCCCCCCCCDFFFFC0
000DFFFE0004FFFFFFFFFFFFFFFF70
000DFFFE0004FFFFFFFFFFFFFFFC00
000DFFFE0004FFFFFFFFFFFFFFC200
000DFFFE0004FFFFFFFFFFFEC70000
ENDCHAR
STARTCHAR agrave
ENCODING 224
SWIDTH 607 0
DWIDTH 22 0
BBX 21 29 0 -1
BITMAP
0000005C10000000000000
000003EFD2000000000000
00001DFFFD200000000000
00007FFFFFE30000000000
000004DFFFFE2000000000
00000008FFFB0000000000
000000002BE10000000000
0000000000200000000000
0000000157863000000000
000003AFFFFFFD60005C10
00007FFFFFFFFFFB13FF10
0008FFFFFFFFFFFFDEFF10
005FFFFFFFFFFFFFFFFF10
01EFFFFFB657DFFFFFFF10
07FFFFF4000009FFFFFF10
0BFFFF70000000BFFFFF10
0FFFFE100000003FFFFF10
1FFFFC000000000DFFFF10
2FFFFB000000000CFFFF10
1FFFFC000000000EFFFF10
0FFFFF100000004FFFFF10
0BFFFF80000000CFFFFF10
07FFFFF700001BFFFFFF10
01EFFFFFD979EFFFFFFF10
006FFFFFFFFFFFFFFFFF10
0008FFFFFFFFFFFFCDFF10
00006FFFFFFFFFF913FF10
0000029EFFFFFA30007F10
0000000024531000000000
ENDCHAR
STARTCHAR aacute
ENCODING 225
SWIDTH 607 0
DWIDTH 22 0
BBX 21 29 0 -1
BITMAP
0000000000003D30000000
000000000004EFD1000000
00000000004EFFFB000000
0000000005FFFFFF300000
000000005FFFFFB2000000
000000001EFFE600000000
0000000004F91000000000
0000000000200000000000
0000000157863000000000
000003AFFFFFFD60005C10
00007FFFFFFFFFFB13FF10
0008FFFFFFFFFFFFDEFF10
005FFFFFFFFFFFFFFFFF10
01EFFFFFB657DFFFFFFF10
07FFFFF4000009FFFFFF10
0BFFFF70000000BFFFFF10
0FFFFE100000003FFFFF10
1FFFFC000000000DFFFF10
2FFFFB000000000CFFFF10
1FFFFC000000000EFFFF10
0FFFFF100000004FFFFF10
0BFFFF80000000CFFFFF10
07FFFFF700001BFFFFFF10
01EFFFFFD979EFFFFFFF10
006FFFFFFFFFFFFFFFFF10
0008FFFFFFFFFFFFCDFF10
00006FFFFFFFFFF913FF10
0000029EFFFFFA30007F10
0000000024531000000000
ENDCHAR
STARTCHAR acircumflex
ENCODING 226
SWIDTH 607 0
DWIDTH 22 0
BBX 21 28 0 -1
BITMAP
0000000004C20000000000
000000005FFD2000000000
00000005FFFFE300000000
0000006FFFFFFE40000000
000002FFFF9FFFE1000000
0000007FE405FF50000000
0000000830004800000000
0000000157863000000000
000003AFFFFFFD60005C10
00007FFFFFFFFFFB13FF10
0008FFFFFFFFFFFFDEFF10
005FFFFFFFFFFFFFFFFF10
01EFFFFFB657DFFFFFFF10
07FFFFF4000009FFFFFF10
0BFFFF70000000BFFFFF10
0FFFFE100000003FFFFF10
1FFFFC000000000DFFFF10
2FFFFB000000000CFFFF10
1FFFFC000000000EFFFF10
0FFFFF100000004FFFFF10
0BFFFF80000000CFFFFF10
07FFFFF700001BFFFFFF10
01EFFFFFD979EFFFFFFF10
006FFFFFFFFFFFFFFFFF10
0008FFFFFFFFFFFFCDFF10
00006FFFFFFFFFF913FF10
0000029EFFFFFA30007F10
0000000024531000000000
ENDCHAR
STARTCHAR atilde
ENCODING 227
SWIDTH 607 0
DWIDTH 22 0
BBX 21 28 0 -1
BITMAP
0000006AB81029BC000000
00000AFFFFD13FFF200000
00003FFFFFFDCFFF300000
00005FFFFFFFFFFF100000
00004FFF43DFFFF9000000
00001FFF402BFF91000000
0000033210001000000000
0000000157863000000000
000003AFFFFFFD60005C10
00007FFFFFFFFFFB13FF10
0008FFFFFFFFFFFFDEFF10
005FFFFFFFFFFFFFFFFF10
01EFFFFFB657DFFFFFFF10
07FFFFF4000009FFFFFF10
0BFFFF70000000BFFFFF10
0FFFFE100000003FFFFF10
1FFFFC000000000DFFFF10
2FFFFB000000000CFFFF10
1FFFFC000000000EFFFF10
0FFFFF100000004FFFFF10
0BFFFF80000000CFFFFF10
07FFFFF700001BFFFFFF10
01EFFFFFD979EFFFFFFF10
006FFFFFFFFFFFFFFFFF10
0008FFFFFFFFFFFFCDFF10
00006FFFFFFFFFF913FF10
0000029EFFFFFA30007F10
0000000024531000000000
ENDCHAR
STARTCHAR adieresis
ENCODING 228
SWIDTH 607 0
DWIDTH 22 0
BBX 21 27 0 -1
BITMAP
0000005720002640000000
000008FFE202EFF6000000
00000EFFF707FFFC000000
00000CFFF505FFFA000000
000002CE80008EB2000000
0000000000000000000000
0000000157863000000000
000003AFFFFFFD60005C10
00007FFFFFFFFFFB13FF10
0008FFFFFFFFFFFFDEFF10
005FFFFFFFFFFFFFFFFF10
01EFFFFFB657DFFFFFFF10
07FFFFF4000009FFFFFF10
0BFFFF70000000BFFFFF10
0FFFFE100000003FFFFF10
1FFFFC000000000DFFFF10
2FFFFB000000000CFFFF10
1FFFFC000000000EFFFF10
0FFFFF100000004FFFFF10
0BFFFF80000000CFFFFF10
07FFFFF700001BFFFFFF10
01EFFFFFD979EFFFFFFF10
006FFFFFFFFFFFFFFFFF10
0008FFFFFFFFFFFFCDFF10
00006FFFFFFFFFF913FF10
0000029EFFFFFA30007F10
0000000024531000000000
ENDCHAR
STARTCHAR aring
ENCODING 229
SWIDTH 607 0
DWIDTH 22 0
BBX 21 29 0 -1
BITMAP
0000000005640000000000
00000001CFFFA000000000
0000000AFFEFF700000000
0000000FF70AFC00000000
0000000FF709FC00000000
0000000AFFDFF800000000
00000002CFFFB000000000
0000000005740000000000
0000000157863000000000
000003AFFFFFFD60005C10
00007FFFFFFFFFFB13FF10
0008FFFFFFFFFFFFDEFF10
005FFFFFFFFFFFFFFFFF10
01EFFFFFB657DFFFFFFF10
07FFFFF4000009FFFFFF10
0BFFFF70000000BFFFFF10
0FFFFE100000003FFFFF10
1FFFFC000000000DFFFF10
2FFFFB000000000CFFFF10
1FFFFC000000000EFFFF10
0FFFFF100000004FFFFF10
0BFFFF80000000CFFFFF10
07FFFFF700001BFFFFFF10
01EFFFFFD979EFFFFFFF10
006FFFFFFFFFFFFFFFFF10
0008FFFFFFFFFFFFCDFF10
00006FFFFFFFFFF913FF10
0000029EFFFFFA30007F10
0000000024531000000000
ENDCHAR
STARTCHAR ae
ENCODING 230
SWIDTH 976 0
DWIDTH 35 0
BBX 35 21 0 -1
BITMAP
000000015786300000000001478751000000
000003AFFFFFFD60005C129FFFFFFFA30000
00007FFFFFFFFFFB13FF6EFFFFFFFFFF8000
0008FFFFFFFFFFFFDEFFFFFFFFFFFFFFF900
005FFFFFFFFFFFFFFFFFFFFFFFFFFFFFFF50
01EFFFFFB657DFFFFFFFFFFFD757FFFFFB00
07FFFFF4000009FFFFFFFFF8000BFFFFD100
0BFFFF70000000BFFFFFFFB0008FFFFE2000
0FFFFE100000003FFFFFFF4004FFFFF40000
1FFFFC000000000DFFFFFF001EFFFF700000
2FFFFB000000000CFFFFFE00BFFFF9000000
1FFFFC000000000EFFFFFF08FFFFB0000000
0FFFFF100000004FFFFFFF8FFFFD10000000
0BFFFF80000000CFFFFFFFFFFFE3007B0000
07FFFFF700001BFFFFFFFFFFFF5007FFB000
01EFFFFFD979EFFFFFFFFFFFFD79DFFFFB00
006FFFFFFFFFFFFFFFFFFFFFFFFFFFFFFF40
0008FFFFFFFFFFFFCDFFEFFFFFFFFFFFF700
00006FFFFFFFFFF913FF3CFFFFFFFFFE5000
0000029EFFFFFA30007F106CFFFFFD810000
000000002453100000000000245530000000
ENDCHAR
STARTCHAR ccedilla
ENCODING 231
SWIDTH 521 0
DWIDTH 19 0
BBX 19 29 0 -9
BITMAP
00000001578741000000
0000029EFFFFFE810000
00005EFFFFFFFFFE4000
0006FFFFFFFFFFFFF300
003FFFFFFFFFFFFFFD10
00CFFFFFB657DFFFFA00
05FFFFF6000009FFA000
0AFFFF90000000BA0000
0EFFFF10000000200000
1FFFFC00000000000000
3FFFFA00000000000000
2FFFFB00000000000000
1FFFFE10000000100000
0CFFFF80000000B70000
06FFFFF700001AFF7000
01EFFFFFD989EFFFF700
004FFFFFFFFFFFFFFE10
0006FFFFFFFFFFFFE300
00005EFFFFFFFFFC2000
0000017DFFFFFC600000
000000006FE310000000
000000009FD500000000
00000000EFFF90000000
0000000149FFF2000000
0000006815FFF4000000
000000CFFFFFF2000000
000001FFFFFF90000000
0000003AFFE810000000
00000000010000000000
ENDCHAR
STARTCHAR egrave
ENCODING 232
SWIDTH 524 0
DWIDTH 19 0
BBX 19 29 0 -1
BITMAP
000000B8000000000000
000008FF900000000000
00005FFFFA0000000000
0000CFFFFFA000000000
000008FFFFFB00000000
0000002BFFF600000000
000000005EA000000000
00000000011000000000
00000001578751000000
000003BFFFFFFE910000
00007FFFFFFFFFFE5000
0009FFFFFFFFFFFFF600
006FFFFFFFFFFFFFFF20
01EFFFFFB65AFFFFF800
07FFFFF5001DFFFFA000
0BFFFF7000BFFFFC1000
0FFFFF1007FFFFE20000
1FFFFC004FFFFF300000
2FFFFB01EFFFF6000000
1FFFFC0BFFFF80000000
0EFFFF8FFFFB00100000
0AFFFFFFFFC100B80000
05FFFFFFFE201AFF7000
00DFFFFFFB79EFFFF700
004FFFFFFFFFFFFFFE10
0006FFFFFFFFFFFFE300
00004EFFFFFFFFFC3000
0000018DFFFFFC600000
00000000245420000000
ENDCHAR
STARTCHAR eacute
ENCODING 233
SWIDTH 524 0
DWIDTH 19 0
BBX 19 29 0 -1
BITMAP
0000000000004D200000
000000000004EFC10000
00000000005FFFF90000
0000000006FFFFFE3000
000000006FFFFFA20000
000000002EFFD5000000
0000000005F810000000
00000000002000000000
00000001578751000000
000003BFFFFFFE910000
00007FFFFFFFFFFE5000
0009FFFFFFFFFFFFF600
006FFFFFFFFFFFFFFF20
01EFFFFFB65AFFFFF800
07FFFFF5001DFFFFA000
0BFFFF7000BFFFFC1000
0FFFFF1007FFFFE20000
1FFFFC004FFFFF300000
2FFFFB01EFFFF6000000
1FFFFC0BFFFF80000000
0EFFFF8FFFFB00100000
0AFFFFFFFFC100B80000
05FFFFFFFE201AFF7000
00DFFFFFFB79EFFFF700
004FFFFFFFFFFFFFFE10
0006FFFFFFFFFFFFE300
00004EFFFFFFFFFC3000
0000018DFFFFFC600000
00000000245420000000
ENDCHAR
STARTCHAR ecircumflex
ENCODING 234
SWIDTH 524 0
DWIDTH 19 0
BBX 19 29 0 -1
BITMAP
000000003C3000000000
00000003EFE400000000
0000004EFFFE50000000
000005FFFFFFF6000000
00001EFFF9FFFF200000
000005FF504EF8000000
00000065000390000000
00000000000000000000
00000001578751000000
000003BFFFFFFE910000
00007FFFFFFFFFFE5000
0009FFFFFFFFFFFFF600
006FFFFFFFFFFFFFFF20
01EFFFFFB65AFFFFF800
07FFFFF5001DFFFFA000
0BFFFF7000BFFFFC1000
0FFFFF1007FFFFE20000
1FFFFC004FFFFF300000
2FFFFB01EFFFF6000000
1FFFFC0BFFFF80000000
0EFFFF8FFFFB00100000
0AFFFFFFFFC100B80000
05FFFFFFFE201AFF7000
00DFFFFFFB79EFFFF700
004FFFFFFFFFFFFFFE10
0006FFFFFFFFFFFFE300
00004EFFFFFFFFFC3000
0000018DFFFFFC600000
00000000245420000000
ENDCHAR
STARTCHAR edieresis
ENCODING 235
SWIDTH 524 0
DWIDTH 19 0
BBX 19 27 0 -1
BITMAP
00000473000164000000
00006FFF401DFF800000
0000CFFF905FFFE00000
0000AFFF703FFFC00000
00001BE90007DC300000
00000000000000000000
00000001578751000000
000003BFFFFFFE910000
00007FFFFFFFFFFE5000
0009FFFFFFFFFFFFF600
006FFFFFFFFFFFFFFF20
01EFFFFFB65AFFFFF800
07FFFFF5001DFFFFA000
0BFFFF7000BFFFFC1000
0FFFFF1007FFFFE20000
1FFFFC004FFFFF300000
2FFFFB01EFFFF6000000
1FFFFC0BFFFF80000000
0EFFFF8FFFFB00100000
0AFFFFFFFFC100B80000
05FFFFFFFE201AFF7000
00DFFFFFFB79EFFFF700
004FFFFFFFFFFFFFFE10
0006FFFFFFFFFFFFE300
00004EFFFFFFFFFC3000
0000018DFFFFFC600000
00000000245420000000
ENDCHAR
STARTCHAR igrave
ENCODING 236
SWIDTH 235 0
DWIDTH 8 0
BBX 9 28 -2 0
BITMAP
008A000000
05FFB10000
2EFFFC1000
9FFFFFC100
06EFFFFD10
0019FFF900
00004CC100
0000001000
0000000000
0002CCCC80
0003FFFFA0
0003FFFFA0
0003FFFFA0
0003FFFFA0
0003FFFFA0
0003FFFFA0
0003FFFFA0
0003FFFFA0
0003FFFFA0
0003FFFFA0
0003FFFFA0
0003FFFFA0
0003FFFFA0
0003FFFFA0
0003FFFFA0
0003FFFFA0
0003FFFFA0
0003FFFFA0
ENDCHAR
STARTCHAR iacute
ENCODING 237
SWIDTH 235 0
DWIDTH 8 0
BBX 10 28 1 0
BITMAP
000004D200
00005FFC00
0006FFFF90
007FFFFFE2
07FFFFFA10
03EFFD4000
006F810000
0002000000
0000000000
2CCCC80000
3FFFFA0000
3FFFFA0000
3FFFFA0000
3FFFFA0000
3FFFFA0000
3FFFFA0000
3FFFFA0000
3FFFFA0000
3FFFFA0000
3FFFFA0000
3FFFFA0000
3FFFFA0000
3FFFFA0000
3FFFFA0000
3FFFFA0000
3FFFFA0000
3FFFFA0000
3FFFFA0000
ENDCHAR
STARTCHAR icircumflex
ENCODING 238
SWIDTH 235 0
DWIDTH 8 0
BBX 10 27 -1 0
BITMAP
00006B1000
0006FFC100
007FFFFD20
08FFFFFFD3
4FFFE9FFFD
09FD307FF4
0092000660
0000000000
002CCCC800
003FFFFA00
003FFFFA00
003FFFFA00
003FFFFA00
003FFFFA00
003FFFFA00
003FFFFA00
003FFFFA00
003FFFFA00
003FFFFA00
003FFFFA00
003FFFFA00
003FFFFA00
003FFFFA00
003FFFFA00
003FFFFA00
003FFFFA00
003FFFFA00
ENDCHAR
STARTCHAR idieresis
ENCODING 239
SWIDTH 235 0
DWIDTH 8 0
BBX 12 25 -2 0
BITMAP
006710002630
0BFFD104FFF4
1FFFF509FFF9
0EFFF307FFF7
04CD6001AEA1
000000000000
0002CCCC8000
0003FFFFA000
0003FFFFA000
0003FFFFA000
0003FFFFA000
0003FFFFA000
0003FFFFA000
0003FFFFA000
0003FFFFA000
0003FFFFA000
0003FFFFA000
0003FFFFA000
0003FFFFA000
0003FFFFA000
0003FFFFA000
0003FFFFA000
0003FFFFA000
0003FFFFA000
0003FFFFA000
ENDCHAR
STARTCHAR eth
ENCODING 240
SWIDTH 581 0
DWIDTH 21 0
BBX 20 29 0 -1
BITMAP
00000004666662000000
00000003FFFFFB000000
00001444AFFFFF644442
00005FFFFFFFFFFFFFF7
00005FFFFFFFFFFFFFF7
00005FFFFFFFFFFFFFF7
00004CCCCCCEFFFFECC5
000000000007FFFFD000
000000002454EFFFF500
0000018DFFFFFFFFFC00
00005EFFFFFFFFFFFF20
0007FFFFFFFFFFFFFF80
005FFFFFFFFFFFFFFFD0
01DFFFFFB657CFFFFFF2
06FFFFF5000007FFFFF6
0BFFFF70000000AFFFFA
0FFFFE100000002FFFFD
2FFFFB000000000EFFFF
3FFFFA000000000DFFFF
2FFFFC000000000EFFFE
0FFFFF100000003FFFFC
0BFFFF90000000BFFFF8
05FFFFF800001AFFFFF2
00DFFFFFD979EFFFFFA0
003FFFFFFFFFFFFFFE20
0005FFFFFFFFFFFFE300
00004EFFFFFFFFFD2000
0000017DFFFFFC600000
00000000245420000000
ENDCHAR
STARTCHAR ntilde
ENCODING 241
SWIDTH 562 0
DWIDTH 20 0
BBX 18 27 1 0
BITMAP
000018BB70049BA000
0001DFFFFB06FFE000
0006FFFFFFCDFFF000
0008FFFEFFFFFFD000
0007FFF15EFFFF6000
0004FFF103CFE70000
000033210001000000
000000002310000000
2C4004BEFFFD810000
3FE4AFFFFFFFFE4000
3FFFFFFFFFFFFFF500
3FFFFFFFFFFFFFFF30
3FFFFFFFBADFFFFFB0
3FFFFFD30008FFFFF2
3FFFFF200000AFFFF7
3FFFFB0000004FFFF9
3FFFF90000002FFFFA
3FFFF90000002FFFFA
3FFFF90000002FFFFA
3FFFF90000002FFFFA
3FFFF90000002FFFFA
3FFFF90000002FFFFA
3FFFF90000002FFFFA
3FFFF90000002FFFFA
3FFFF90000002FFFFA
3FFFF90000002FFFFA
3FFFF90000002FFFFA
ENDCHAR
STARTCHAR ograve
ENCODING 242
SWIDTH 579 0
DWIDTH 21 0
BBX 20 29 0 -1
BITMAP
0000006B100000000000
000004FFC10000000000
00002EFFFD2000000000
00008FFFFFD200000000
000005DFFFFE10000000
00000018FFFA00000000
000000003CD100000000
00000000002000000000
00000001578751000000
000002AFFFFFFFA20000
00007FFFFFFFFFFF6000
0008FFFFFFFFFFFFF700
005FFFFFFFFFFFFFFF40
01EFFFFFB657CFFFFFC0
07FFFFF5000007FFFFF4
0BFFFF70000000AFFFF9
0FFFFE100000002FFFFD
2FFFFB000000000EFFFE
3FFFFA000000000DFFFF
2FFFFC000000000EFFFE
0FFFFF100000003FFFFC
0BFFFF90000000BFFFF8
05FFFFF800001AFFFFF3
00DFFFFFD979EFFFFFA0
003FFFFFFFFFFFFFFE20
0005FFFFFFFFFFFFE300
00004EFFFFFFFFFC2000
0000017DFFFFFC600000
00000000245420000000
ENDCHAR
STARTCHAR oacute
ENCODING 243
SWIDTH 579 0
DWIDTH 21 0
BBX 20 29 0 -1
BITMAP
0000000000003D200000
000000000004EFC10000
00000000005FFFFA0000
0000000006FFFFFE3000
000000005FFFFFB20000
000000002EFFE5000000
0000000004F910000000
00000000002000000000
00000001578751000000
000002AFFFFFFFA20000
00007FFFFFFFFFFF6000
0008FFFFFFFFFFFFF700
005FFFFFFFFFFFFFFF40
01EFFFFFB657CFFFFFC0
07FFFFF5000007FFFFF4
0BFFFF70000000AFFFF9
0FFFFE100000002FFFFD
2FFFFB000000000EFFFE
3FFFFA000000000DFFFF
2FFFFC000000000EFFFE
0FFFFF100000003FFFFC
0BFFFF90000000BFFFF8
05FFFFF800001AFFFFF3
00DFFFFFD979EFFFFFA0
003FFFFFFFFFFFFFFE20
0005FFFFFFFFFFFFE300
00004EFFFFFFFFFC2000
0000017DFFFFFC600000
00000000245420000000
ENDCHAR
STARTCHAR ocircumflex
ENCODING 244
SWIDTH 579 0
DWIDTH 21 0
BBX 20 29 0 -1
BITMAP
0000000004C100000000
000000005FFD20000000
00000006FFFFE3000000
0000007FFFFFFE400000
000003FFFE9FFFE10000
0000007FE406FF500000
00000008300048000000
00000000000000000000
00000001578751000000
000002AFFFFFFFA20000
00007FFFFFFFFFFF6000
0008FFFFFFFFFFFFF700
005FFFFFFFFFFFFFFF40
01EFFFFFB657CFFFFFC0
07FFFFF5000007FFFFF4
0BFFFF70000000AFFFF9
0FFFFE100000002FFFFD
2FFFFB000000000EFFFE
3FFFFA000000000DFFFF
2FFFFC000000000EFFFE
0FFFFF100000003FFFFC
0BFFFF90000000BFFFF8
05FFFFF800001AFFFFF3
00DFFFFFD979EFFFFFA0
003FFFFFFFFFFFFFFE20
0005FFFFFFFFFFFFE300
00004EFFFFFFFFFC2000
0000017DFFFFFC600000
00000000245420000000
ENDCHAR
STARTCHAR otilde
ENCODING 245
SWIDTH 579 0
DWIDTH 21 0
BBX 20 28 0 -1
BITMAP
0000007AB81039BC0000
00000BFFFFD14FFF2000
00003FFFFFFDCFFF2000
00005FFFFFFFFFFF1000
00005FFF43EFFFF90000
00001FFF402BFF910000
00000332100010000000
00000001578751000000
000002AFFFFFFFA20000
00007FFFFFFFFFFF6000
0008FFFFFFFFFFFFF700
005FFFFFFFFFFFFFFF40
01EFFFFFB657CFFFFFC0
07FFFFF5000007FFFFF4
0BFFFF70000000AFFFF9
0FFFFE100000002FFFFD
2FFFFB000000000EFFFE
3FFFFA000000000DFFFF
2FFFFC000000000EFFFE
0FFFFF100000003FFFFC
0BFFFF90000000BFFFF8
05FFFFF800001AFFFFF3
00DFFFFFD979EFFFFFA0
003FFFFFFFFFFFFFFE20
0005FFFFFFFFFFFFE300
00004EFFFFFFFFFC2000
0000017DFFFFFC600000
00000000245420000000
ENDCHAR
STARTCHAR odieresis
ENCODING 246
SWIDTH 579 0
DWIDTH 21 0
BBX 20 27 0 -1
BITMAP
00000057200026300000
000009FFE203EFF50000
00000FFFF608FFFB0000
00000CFFF406FFF90000
000003CE80009EB10000
00000000000000000000
00000001578751000000
000002AFFFFFFFA20000
00007FFFFFFFFFFF6000
0008FFFFFFFFFFFFF700
005FFFFFFFFFFFFFFF40
01EFFFFFB657CFFFFFC0
07FFFFF5000007FFFFF4
0BFFFF70000000AFFFF9
0FFFFE100000002FFFFD
2FFFFB000000000EFFFE
3FFFFA000000000DFFFF
2FFFFC000000000EFFFE
0FFFFF100000003FFFFC
0BFFFF90000000BFFFF8
05FFFFF800001AFFFFF3
00DFFFFFD979EFFFFFA0
003FFFFFFFFFFFFFFE20
0005FFFFFFFFFFFFE300
00004EFFFFFFFFFC2000
0000017DFFFFFC600000
00000000245420000000
ENDCHAR
STARTCHAR divide
ENCODING 247
SWIDTH 494 0
DWIDTH 18 0
BBX 16 18 1 4
BITMAP
0000001761000000
000002EFFD100000
000008FFFF600000
000008FFFF600000
000002EFFD100000
0000002771000000
1222222222222221
7FFFFFFFFFFFFFF4
7FFFFFFFFFFFFFF4
7FFFFFFFFFFFFFF4
7FFFFFFFFFFFFFF4
5AAAAAAAAAAAAAA3
0000000330000000
000001CFFA000000
000007FFFF500000
000009FFFF600000
000004FFFF200000
0000005BB4000000
ENDCHAR
STARTCHAR oslash
ENCODING 248
SWIDTH 579 0
DWIDTH 21 0
BBX 20 21 0 -1
BITMAP
00000001578740011111
000002AFFFFFFEAFFFF9
00007FFFFFFFFFFFFFD1
0008FFFFFFFFFFFFFF30
005FFFFFFFFFFFFFFF30
01EFFFFFB65AFFFFFFC0
07FFFFF5001DFFFFFFF4
0BFFFF7000AFFFFFFFF9
0FFFFE1007FFFF8FFFFD
2FFFFB003FFFFA0EFFFE
3FFFFA01DFFFD10DFFFF
2FFFFC0AFFFF300EFFFE
0FFFFF8FFFF6003FFFFC
0BFFFFFFFFA000BFFFF8
06FFFFFFFD101AFFFFF3
00DFFFFFFB79EFFFFFA0
003FFFFFFFFFFFFFFE20
003FFFFFFFFFFFFFE300
01DFFFFFFFFFFFFC2000
0AFFFF8DFFFFFC600000
00000000245420000000
ENDCHAR
STARTCHAR ugrave
ENCODING 249
SWIDTH 562 0
DWIDTH 20 0
BBX 18 28 1 -1
BITMAP
00000C600000000000
00009FF70000000000
0006FFFF8000000000
001DFFFFF900000000
00019FFFFF90000000
000003CFFF40000000
00000006E800000000
000000001000000000
5CCCC40000005CCCC5
6FFFF50000006FFFF6
6FFFF50000006FFFF6
6FFFF50000006FFFF6
6FFFF50000006FFFF6
6FFFF50000006FFFF6
6FFFF50000006FFFF6
6FFFF50000006FFFF6
6FFFF50000006FFFF6
6FFFF50000006FFFF6
6FFFF50000006FFFF6
5FFFF70000008FFFF6
3FFFFC000001DFFFF6
0EFFFF70001AFFFFF6
09FFFFFC88DFFFFFF6
02FFFFFFFFFFFFFFF6
005FFFFFFFFFFFEFF6
0005FFFFFFFFFB1CF6
000029EFFFFC5002E6
000000035420000000
ENDCHAR
STARTCHAR uacute
ENCODING 250
SWIDTH 562 0
DWIDTH 20 0
BBX 18 28 1 -1
BITMAP
000000000006C10000
00000000007FFA0000
0000000008FFFF6000
000000009FFFFFD100
00000009FFFFF91000
00000004FFFC300000
000000008E70000000
000000000200000000
5CCCC40000005CCCC5
6FFFF50000006FFFF6
6FFFF50000006FFFF6
6FFFF50000006FFFF6
6FFFF50000006FFFF6
6FFFF50000006FFFF6
6FFFF50000006FFFF6
6FFFF50000006FFFF6
6FFFF50000006FFFF6
6FFFF50000006FFFF6
6FFFF50000006FFFF6
5FFFF70000008FFFF6
3FFFFC000001DFFFF6
0EFFFF70001AFFFFF6
09FFFFFC88DFFFFFF6
02FFFFFFFFFFFFFFF6
005FFFFFFFFFFFEFF6
0005FFFFFFFFFB1CF6
000029EFFFFC5002E6
000000035420000000
ENDCHAR
STARTCHAR ucircumflex
ENCODING 251
SWIDTH 562 0
DWIDTH 20 0
BBX 18 28 1 -1
BITMAP
000000009800000000
0000000AFF90000000
000001BFFFFA000000
00001CFFFFFFB10000
00009FFFCCFFF90000
00001CFB11BFD10000
000001900009300000
000000000000000000
5CCCC40000005CCCC5
6FFFF50000006FFFF6
6FFFF50000006FFFF6
6FFFF50000006FFFF6
6FFFF50000006FFFF6
6FFFF50000006FFFF6
6FFFF50000006FFFF6
6FFFF50000006FFFF6
6FFFF50000006FFFF6
6FFFF50000006FFFF6
6FFFF50000006FFFF6
5FFFF70000008FFFF6
3FFFFC000001DFFFF6
0EFFFF70001AFFFFF6
09FFFFFC88DFFFFFF6
02FFFFFFFFFFFFFFF6
005FFFFFFFFFFFEFF6
0005FFFFFFFFFB1CF6
000029EFFFFC5002E6
000000035420000000
ENDCHAR
STARTCHAR udieresis
ENCODING 252
SWIDTH 562 0
DWIDTH 20 0
BBX 18 26 1 -1
BITMAP
000027600004610000
0001EFFA008FFD1000
0005FFFF00EFFF5000
0003FFFD00CFFF3000
00007DC3003CE70000
000000000000000000
5CCCC40000005CCCC5
6FFFF50000006FFFF6
6FFFF50000006FFFF6
6FFFF50000006FFFF6
6FFFF50000006FFFF6
6FFFF50000006FFFF6
6FFFF50000006FFFF6
6FFFF50000006FFFF6
6FFFF50000006FFFF6
6FFFF50000006FFFF6
6FFFF50000006FFFF6
5FFFF70000008FFFF6
3FFFFC000001DFFFF6
0EFFFF70001AFFFFF6
09FFFFFC88DFFFFFF6
02FFFFFFFFFFFFFFF6
005FFFFFFFFFFFEFF6
0005FFFFFFFFFB1CF6
000029EFFFFC5002E6
000000035420000000
ENDCHAR
STARTCHAR yacute
ENCODING 253
SWIDTH 562 0
DWIDTH 20 0
BBX 18 35 1 -8
BITMAP
000000000007B00000
00000000008FF80000
0000000009FFFF5000
00000000AFFFFFC000
0000000AFFFFF81000
00000005FFFB200000
000000009E60000000
000000000100000000
5CCCC40000005CCCC5
6FFFF50000006FFFF7
6FFFF50000006FFFF7
6FFFF50000006FFFF7
6FFFF50000006FFFF7
6FFFF50000006FFFF7
6FFFF50000006FFFF7
6FFFF50000006FFFF7
6FFFF50000006FFFF7
6FFFF50000006FFFF7
6FFFF50000006FFFF7
5FFFF70000008FFFF7
3FFFFB000001DFFFF7
0EFFFF70001AFFFFF7
09FFFFFB88DFFFFFF7
02FFFFFFFFFFFFFFF7
005FFFFFFFFFFFFFF6
0005FFFFFFFFFFFFF5
000029EFFFFAEFFFF3
000000035517FFFFE0
00000000007FFFFF80
000006A9AEFFFFFE10
00000AFFFFFFFFF500
00000AFFFFFFFF7000
00000AFFFFFFD50000
00000AFFFFC7100000
000002332100000000
ENDCHAR
STARTCHAR thorn
ENCODING 254
SWIDTH 608 0
DWIDTH 22 0
BBX 21 35 1 -8
BITMAP
2AAAA90000000000000000
3FFFFE0000000000000000
3FFFFE0000000000000000
3FFFFE0000000000000000
3FFFFE0000000000000000
3FFFFE0000000000000000
3FFFFE0000000000000000
3FFFFE0036764100000000
3FFFFE6CFFFFFFA2000000
3FFFFFFFFFFFFFFF600000
3FFFFFFFFFFFFFFFF80000
3FFFFFFFFFFFFFFFFF4000
3FFFFFFFB656BFFFFFD000
3FFFFFF5000006FFFFF500
3FFFFF700000008FFFFA00
3FFFFF100000001FFFFE00
3FFFFC000000000CFFFF00
3FFFFB000000000BFFFF10
3FFFFC000000000DFFFF00
3FFFFF200000002FFFFD00
3FFFFFA0000000AFFFFA00
3FFFFFF8000019FFFFF500
3FFFFFFFD979EFFFFFD000
3FFFFFFFFFFFFFFFFF4000
3FFFFFFFFFFFFFFFF70000
3FFFFEFFFFFFFFFE600000
3FFFFA3AFFFFFE92000000
3FFFFA0014653000000000
3FFFFA0000000000000000
3FFFFA0000000000000000
3FFFFA0000000000000000
3FFFFA0000000000000000
3FFFFA0000000000000000
3FFFFA0000000000000000
0333320000000000000000
ENDCHAR
STARTCHAR ydieresis
ENCODING 255
SWIDTH 562 0
DWIDTH 20 0
BBX 18 33 1 -8
BITMAP
000027600004610000
0001EFFA008FFD1000
0005FFFF00EFFF5000
0003FFFD00CFFF3000
00007DC3003CE70000
000000000000000000
5CCCC40000005CCCC5
6FFFF50000006FFFF7
6FFFF50000006FFFF7
6FFFF50000006FFFF7
6FFFF50000006FFFF7
6FFFF50000006FFFF7
6FFFF50000006FFFF7
6FFFF50000006FFFF7
6FFFF50000006FFFF7
6FFFF50000006FFFF7
6FFFF50000006FFFF7
5FFFF70000008FFFF7
3FFFFB000001DFFFF7
0EFFFF70001AFFFFF7
09FFFFFB88DFFFFFF7
02FFFFFFFFFFFFFFF7
005FFFFFFFFFFFFFF6
0005FFFFFFFFFFFFF5
000029EFFFFAEFFFF3
000000035517FFFFE0
00000000007FFFFF80
000006A9AEFFFFFE10
00000AFFFFFFFFF500
00000AFFFFFFFF7000
00000AFFFFFFD50000
00000AFFFFC7100000
000002332100000000
ENDCHAR
STARTCHAR Amacron
ENCODING 256
SWIDTH 673 0
DWIDTH 24 0
BBX 21 30 2 0
BITMAP
000005FFFFFFFF80000000
000005FFFFFFFF80000000
000005FFFFFFFF80000000
000004BBBBBBBB60000000
0000000012210000000000
0000017CFFFFD930000000
00007EFFFFFFFFF9100000
000AFFFFFFFFFFFFC20000
009FFFFFFFFFFFFFFC1000
05FFFFFFFEDFFFFFFF9000
0DFFFFF920017EFFFFF300
5FFFFF60000003EFFFF900
9FFFFB000000007FFFFE00
CFFFF4000000001FFFFF10
EFFFF2000000000DFFFF30
EFFFF1000000000CFFFF30
EFFFF1000000000CFFFF30
EFFFF1000000000CFFFF30
EFFFF1000000000CFFFF30
EFFFF2111111111DFFFF30
EFFFFFFFFFFFFFFFFFFF30
EFFFFFFFFFFFFFFFFFFF30
EFFFFFFFFFFFFFFFFFFF30
EFFFFFFFFFFFFFFFFFFF30
EFFFFEEEEEEEEEEFFFFF30
EFFFF1000000000CFFFF30
EFFFF1000000000CFFFF30
EFFFF1000000000CFFFF30
EFFFF1000000000CFFFF30
EFFFF1000000000CFFFF30
ENDCHAR
STARTCHAR amacron
ENCODING 257
SWIDTH 607 0
DWIDTH 22 0
BBX 21 26 0 -1
BITMAP
000003FFFFFFFFA0000000
000004FFFFFFFFA0000000
000004FFFFFFFFA0000000
000003BBBBBBBB70000000
0000000000000000000000
0000000157863000000000
000003AFFFFFFD60005C10
00007FFFFFFFFFFB13FF10
0008FFFFFFFFFFFFDEFF10
005FFFFFFFFFFFFFFFFF10
01EFFFFFB657DFFFFFFF10
07FFFFF4000009FFFFFF10
0BFFFF70000000BFFFFF10
0FFFFE100000003FFFFF10
1FFFFC000000000DFFFF10
2FFFFB000000000CFFFF10
1FFFFC000000000EFFFF10
0FFFFF100000004FFFFF10
0BFFFF80000000CFFFFF10
07FFFFF700001BFFFFFF10
01EFFFFFD979EFFFFFFF10
006FFFFFFFFFFFFFFFFF10
0008FFFFFFFFFFFFCDFF10
00006FFFFFFFFFF913FF10
0000029EFFFFFA30007F10
0000000024531000000000
ENDCHAR
STARTCHAR Abreve
ENCODING 258
SWIDTH 673 0
DWIDTH 24 0
BBX 21 32 2 0
BITMAP
0000005661266300000000
000001FFF23FFB00000000
000000FFFABFFC00000000
000000AFFFFFF900000000
0000001CFFFFC100000000
0000000058860000000000
0000000012210000000000
0000017CFFFFD930000000
00007EFFFFFFFFF9100000
000AFFFFFFFFFFFFC20000
009FFFFFFFFFFFFFFC1000
05FFFFFFFEDFFFFFFF9000
0DFFFFF920017EFFFFF300
5FFFFF60000003EFFFF900
9FFFFB000000007FFFFE00
CFFFF4000000001FFFFF10
EFFFF2000000000DFFFF30
EFFFF1000000000CFFFF30
EFFFF1000000000CFFFF30
EFFFF1000000000CFFFF30
EFFFF1000000000CFFFF30
EFFFF2111111111DFFFF30
EFFFFFFFFFFFFFFFFFFF30
EFFFFFFFFFFFFFFFFFFF30
EFFFFFFFFFFFFFFFFFFF30
EFFFFFFFFFFFFFFFFFFF30
EFFFFEEEEEEEEEEFFFFF30
EFFFF1000000000CFFFF30
EFFFF1000000000CFFFF30
EFFFF1000000000CFFFF30
EFFFF1000000000CFFFF30
EFFFF1000000000CFFFF30
ENDCHAR
STARTCHAR abreve
ENCODING 259
SWIDTH 607 0
DWIDTH 22 0
BBX 21 28 0 -1
BITMAP
0000005662166400000000
000000EFF42FFD00000000
000000DFFBAFFE00000000
0000008FFFFFFB00000000
0000000BFFFFD200000000
0000000058961000000000
0000000000000000000000
0000000157863000000000
000003AFFFFFFD60005C10
00007FFFFFFFFFFB13FF10
0008FFFFFFFFFFFFDEFF10
005FFFFFFFFFFFFFFFFF10
01EFFFFFB657DFFFFFFF10
07FFFFF4000009FFFFFF10
0BFFFF70000000BFFFFF10
0FFFFE100000003FFFFF10
1FFFFC000000000DFFFF10
2FFFFB000000000CFFFF10
1FFFFC000000000EFFFF10
0FFFFF100000004FFFFF10
0BFFFF80000000CFFFFF10
07FFFFF700001BFFFFFF10
01EFFFFFD979EFFFFFFF10
006FFFFFFFFFFFFFFFFF10
0008FFFFFFFFFFFFCDFF10
00006FFFFFFFFFF913FF10
0000029EFFFFFA30007F10
0000000024531000000000
ENDCHAR
STARTCHAR Aogonek
ENCODING 260
SWIDTH 673 0
DWIDTH 24 0
BBX 22 33 2 -7
BITMAP
0000000012210000000000
0000017CFFFFD930000000
00007EFFFFFFFFF9100000
000AFFFFFFFFFFFFC20000
009FFFFFFFFFFFFFFC1000
05FFFFFFFEDFFFFFFF9000
0DFFFFF920017EFFFFF300
5FFFFF60000003EFFFF900
9FFFFB000000007FFFFE00
CFFFF4000000001FFFFF10
EFFFF2000000000DFFFF30
EFFFF1000000000CFFFF30
EFFFF1000000000CFFFF30
EFFFF1000000000CFFFF30
EFFFF1000000000CFFFF30
EFFFF2111111111DFFFF30
EFFFFFFFFFFFFFFFFFFF30
EFFFFFFFFFFFFFFFFFFF30
EFFFFFFFFFFFFFFFFFFF30
EFFFFFFFFFFFFFFFFFFF30
EFFFFEEEEEEEEEEFFFFF30
EFFFF1000000000CFFFF30
EFFFF1000000000CFFFF30
EFFFF1000000000CFFFF30
EFFFF1000000000CFFFF30
EFFFF1000000000CFFFF30
0000000000000009FF3000
000000000000007FF90000
00000000000000EFF72600
00000000000000FFFFFF80
00000000000000AFFFFFF6
000000000000001BFFFE70
0000000000000000364100
ENDCHAR
STARTCHAR aogonek
ENCODING 261
SWIDTH 607 0
DWIDTH 22 0
BBX 23 27 0 -7
BITMAP
000000015786300000000000
000003AFFFFFFD60005C1000
00007FFFFFFFFFFB13FF1000
0008FFFFFFFFFFFFDEFF1000
005FFFFFFFFFFFFFFFFF1000
01EFFFFFB657DFFFFFFF1000
07FFFFF4000009FFFFFF1000
0BFFFF70000000BFFFFF1000
0FFFFE100000003FFFFF1000
1FFFFC000000000DFFFF1000
2FFFFB000000000CFFFF1000
1FFFFC000000000EFFFF1000
0FFFFF100000004FFFFF1000
0BFFFF80000000CFFFFF1000
07FFFFF700001BFFFFFF1000
01EFFFFFD979EFFFFFFF1000
006FFFFFFFFFFFFFFFFF1000
0008FFFFFFFFFFFFCDFF1000
00006FFFFFFFFFF913FF1000
0000029EFFFFFA3004EF1000
00000000245310005FFA0000
0000000000000002EFE10000
0000000000000009FFC07100
0000000000000009FFFFFC10
0000000000000005FFFFFFB0
00000000000000007FFFFA10
000000000000000002552000
ENDCHAR
STARTCHAR Cacute
ENCODING 262
SWIDTH 640 0
DWIDTH 23 0
BBX 22 35 1 -1
BITMAP
000000000000003D200000
00000000000004EFC10000
0000000000005FFFFA0000
000000000006FFFFFE3000
00000000005FFFFFB20000
00000000002EFFE5000000
000000000004F910000000
0000000000002000000000
0000000001478864100000
00000005BFFFFFFFFB4000
000002CFFFFFFFFFFFFC20
00005FFFFFFFFFFFFFFFE3
0006FFFFFFFFFFFFFFFFD0
004FFFFFFFEA88AEFFFF40
01DFFFFFD50000005DFA00
08FFFFFA1000000001A200
1EFFFFB000000000000000
6FFFFF2000000000000000
AFFFF90000000000000000
DFFFF40000000000000000
FFFFF10000000000000000
FFFFF00000000000000000
FFFFF10000000000000000
DFFFF40000000000000000
AFFFF90000000000000000
6FFFFF2000000000000000
1EFFFFC000000000000000
08FFFFFB1000000001A200
01DFFFFFD50000005DFA00
004FFFFFFFEA88AEFFFF50
0006FFFFFFFFFFFFFFFFD1
00005FFFFFFFFFFFFFFFE3
000002CFFFFFFFFFFFFC20
00000004BFFFFFFFFB4000
0000000001478864100000
ENDCHAR
STARTCHAR cacute
ENCODING 263
SWIDTH 521 0
DWIDTH 19 0
BBX 19 29 0 -1
BITMAP
0000000000008B000000
000000000009FF800000
00000000009FFFF50000
000000000AFFFFFC0000
00000000BFFFFF800000
000000006FFFB2000000
000000000AE600000000
00000000011000000000
00000001578741000000
0000029EFFFFFE810000
00005EFFFFFFFFFE4000
0006FFFFFFFFFFFFF300
003FFFFFFFFFFFFFFD10
00CFFFFFB657DFFFFA00
05FFFFF6000009FFA000
0AFFFF90000000BA0000
0EFFFF10000000200000
1FFFFC00000000000000
3FFFFA00000000000000
2FFFFB00000000000000
1FFFFE10000000100000
0CFFFF80000000B70000
06FFFFF700001AFF7000
00DFFFFFD989EFFFF700
004FFFFFFFFFFFFFFE10
0006FFFFFFFFFFFFE300
00004EFFFFFFFFFC3000
0000018DFFFFFC600000
00000000245420000000
ENDCHAR
STARTCHAR Ccircumflex
ENCODING 264
SWIDTH 640 0
DWIDTH 23 0
BBX 22 35 1 -1
BITMAP
000000000006B100000000
00000000007FFC10000000
0000000008FFFFD2000000
000000008FFFFFFD200000
00000005FFFEAFFFC00000
000000009FD207FF300000
0000000009200066000000
0000000000000000000000
0000000001478864100000
00000005BFFFFFFFFB4000
000002CFFFFFFFFFFFFC20
00005FFFFFFFFFFFFFFFE3
0006FFFFFFFFFFFFFFFFD0
004FFFFFFFEA88AEFFFF40
01DFFFFFD50000005DFA00
08FFFFFA1000000001A200
1EFFFFB000000000000000
6FFFFF2000000000000000
AFFFF90000000000000000
DFFFF40000000000000000
FFFFF10000000000000000
FFFFF00000000000000000
FFFFF10000000000000000
DFFFF40000000000000000
AFFFF90000000000000000
6FFFFF2000000000000000
1EFFFFC000000000000000
08FFFFFB1000000001A200
01DFFFFFD50000005DFA00
004FFFFFFFEA88AEFFFF50
0006FFFFFFFFFFFFFFFFD1
00005FFFFFFFFFFFFFFFE3
000002CFFFFFFFFFFFFC20
00000004BFFFFFFFFB4000
0000000001478864100000
ENDCHAR
STARTCHAR ccircumflex
ENCODING 265
SWIDTH 521 0
DWIDTH 19 0
BBX 19 29 0 -1
BITMAP
0000000006B100000000
000000006FFC10000000
00000007FFFFD2000000
0000008FFFFFFD300000
000004FFFE9FFFD00000
0000009FD307FF400000
00000009200066000000
00000000000000000000
00000001578741000000
0000029EFFFFFE810000
00005EFFFFFFFFFE4000
0006FFFFFFFFFFFFF300
003FFFFFFFFFFFFFFD10
00CFFFFFB657DFFFFA00
05FFFFF6000009FFA000
0AFFFF90000000BA0000
0EFFFF10000000200000
1FFFFC00000000000000
3FFFFA00000000000000
2FFFFB00000000000000
1FFFFE10000000100000
0CFFFF80000000B70000
06FFFFF700001AFF7000
00DFFFFFD989EFFFF700
004FFFFFFFFFFFFFFE10
0006FFFFFFFFFFFFE300
00004EFFFFFFFFFC3000
0000018DFFFFFC600000
00000000245420000000
ENDCHAR
STARTCHAR Cdotaccent
ENCODING 266
SWIDTH 640 0
DWIDTH 23 0
BBX 22 33 1 -1
BITMAP
000000000005CA20000000
00000000003FFFB0000000
00000000006FFFF0000000
00000000003FFFB0000000
000000000004A810000000
0000000000000000000000
0000000001478864100000
00000005BFFFFFFFFB4000
000002CFFFFFFFFFFFFC20
00005FFFFFFFFFFFFFFFE3
0006FFFFFFFFFFFFFFFFD0
004FFFFFFFEA88AEFFFF40
01DFFFFFD50000005DFA00
08FFFFFA1000000001A200
1EFFFFB000000000000000
6FFFFF2000000000000000
AFFFF90000000000000000
DFFFF40000000000000000
FFFFF10000000000000000
FFFFF00000000000000000
FFFFF10000000000000000
DFFFF40000000000000000
AFFFF90000000000000000
6FFFFF2000000000000000
1EFFFFC000000000000000
08FFFFFB1000000001A200
01DFFFFFD50000005DFA00
004FFFFFFFEA88AEFFFF50
0006FFFFFFFFFFFFFFFFD1
00005FFFFFFFFFFFFFFFE3
000002CFFFFFFFFFFFFC20
00000004BFFFFFFFFB4000
0000000001478864100000
ENDCHAR
STARTCHAR cdotaccent
ENCODING 267
SWIDTH 521 0
DWIDTH 19 0
BBX 19 27 0 -1
BITMAP
0000000018C700000000
000000008FFF60000000
00000000CFFF90000000
000000008FFF50000000
0000000007A600000000
00000000000000000000
00000001578741000000
0000029EFFFFFE810000
00005EFFFFFFFFFE4000
0006FFFFFFFFFFFFF300
003FFFFFFFFFFFFFFD10
00CFFFFFB657DFFFFA00
05FFFFF6000009FFA000
0AFFFF90000000BA0000
0EFFFF10000000200000
1FFFFC00000000000000
3FFFFA00000000000000
2FFFFB00000000000000
1FFFFE10000000100000
0CFFFF80000000B70000
06FFFFF700001AFF7000
00DFFFFFD989EFFFF700
004FFFFFFFFFFFFFFE10
0006FFFFFFFFFFFFE300
00004EFFFFFFFFFC3000
0000018DFFFFFC600000
00000000245420000000
ENDCHAR
STARTCHAR Ccaron
ENCODING 268
SWIDTH 640 0
DWIDTH 23 0
BBX 22 35 1 -1
BITMAP
0000000001100001000000
000000000BD2007E300000
000000009FFD38FFE20000
000000009FFFFFFFE30000
0000000007FFFFFE300000
00000000006FFFD2000000
000000000005ED20000000
0000000000003200000000
0000000001478864100000
00000005BFFFFFFFFB4000
000002CFFFFFFFFFFFFC20
00005FFFFFFFFFFFFFFFE3
0006FFFFFFFFFFFFFFFFD0
004FFFFFFFEA88AEFFFF40
01DFFFFFD50000005DFA00
08FFFFFA1000000001A200
1EFFFFB000000000000000
6FFFFF2000000000000000
AFFFF90000000000000000
DFFFF40000000000000000
FFFFF10000000000000000
FFFFF00000000000000000
FFFFF10000000000000000
DFFFF40000000000000000
AFFFF90000000000000000
6FFFFF2000000000000000
1EFFFFC000000000000000
08FFFFFB1000000001A200
01DFFFFFD50000005DFA00
004FFFFFFFEA88AEFFFF50
0006FFFFFFFFFFFFFFFFD1
00005FFFFFFFFFFFFFFFE3
000002CFFFFFFFFFFFFC20
00000004BFFFFFFFFB4000
0000000001478864100000
ENDCHAR
STARTCHAR ccaron
ENCODING 269
SWIDTH 521 0
DWIDTH 19 0
BBX 19 30 0 -1
BITMAP
00000002000011000000
0000003E9001BB100000
000001DFFA2CFFA00000
000002DFFFFFFFB00000
0000001CFFFFFA000000
00000001AFFFA0000000
0000000009FA00000000
00000000005000000000
00000000000000000000
00000001578741000000
0000029EFFFFFE810000
00005EFFFFFFFFFE4000
0006FFFFFFFFFFFFF300
003FFFFFFFFFFFFFFD10
00CFFFFFB657DFFFFA00
05FFFFF6000009FFA000
0AFFFF90000000BA0000
0EFFFF10000000200000
1FFFFC00000000000000
3FFFFA00000000000000
2FFFFB00000000000000
1FFFFE10000000100000
0CFFFF80000000B70000
06FFFFF700001AFF7000
00DFFFFFD989EFFFF700
004FFFFFFFFFFFFFFE10
0006FFFFFFFFFFFFE300
00004EFFFFFFFFFC3000
0000018DFFFFFC600000
00000000245420000000
ENDCHAR
STARTCHAR Dcaron
ENCODING 270
SWIDTH 653 0
DWIDTH 24 0
BBX 21 34 2 0
BITMAP
0000001100001000000000
000000CC2007E300000000
000009FFD28FFE20000000
000009FFFFFFFE30000000
0000008FFFFFD200000000
00000006FFFD2000000000
000000005FD20000000000
0000000004200000000000
2333333321000000000000
AFFFFFFFFFEA5000000000
AFFFFFFFFFFFFD50000000
AFFFFFFFFFFFFFFA100000
AFFFFFFFFFFFFFFFC10000
AFFFFEDDEFFFFFFFFB0000
AFFFF600015CFFFFFF7000
AFFFF60000006FFFFFE100
AFFFF600000005FFFFF800
AFFFF600000000AFFFFD00
AFFFF6000000002FFFFF30
AFFFF6000000000CFFFF60
AFFFF60000000009FFFF70
AFFFF60000000008FFFF80
AFFFF60000000009FFFF70
AFFFF6000000000DFFFF50
AFFFF6000000003FFFFF20
AFFFF600000000BFFFFC00
AFFFF600000008FFFFF700
AFFFF60000019FFFFFD100
AFFFF711138EFFFFFF5000
AFFFFFFFFFFFFFFFF80000
AFFFFFFFFFFFFFFF900000
AFFFFFFFFFFFFFF7000000
AFFFFFFFFFFFFA20000000
AFFFFFFFFDB72000000000
ENDCHAR
STARTCHAR dcaron
ENCODING 271
SWIDTH 740 0
DWIDTH 27 0
BBX 27 28 0 -1
BITMAP
0000000000000004555500000000
000000000000000CFFFF00013000
000000000000000CFFFF006FFC10
000000000000000CFFFF01FFFF70
000000000000000CFFFF01FFFF90
000000000000000CFFFF00BFFF70
000000000000000CFFFF0008FF30
000000015787300CFFFF0009FC00
000002AFFFFFFD4CFFFF0009E300
00007FFFFFFFFFEEFFFF00001000
0008FFFFFFFFFFFFFFFF00000000
005FFFFFFFFFFFFFFFFF00000000
01EFFFFFB657DFFFFFFF00000000
07FFFFF5000009FFFFFF00000000
0BFFFF70000000BFFFFF00000000
0FFFFE000000003FFFFF00000000
2FFFFB000000000EFFFF00000000
3FFFFA000000000DFFFF00000000
2FFFFC000000000EFFFF00000000
0FFFFF200000004FFFFF00000000
0BFFFFA0000001CFFFFF00000000
06FFFFF900001BFFFFFF00000000
00DFFFFFD97AEFFFFFFF00000000
004FFFFFFFFFFFFFFFFF00000000
0006FFFFFFFFFFFFCDFF00000000
00004EFFFFFFFFF904FF00000000
0000018DFFFFEA30008F00000000
0000000024531000000000000000
ENDCHAR
STARTCHAR Dcroat
ENCODING 272
SWIDTH 672 0
DWIDTH 24 0
BBX 24 26 0 0
BITMAP
000333333332100000000000
000FFFFFFFFFFD9300000000
000FFFFFFFFFFFFFB2000000
000FFFFFFFFFFFFFFF600000
000FFFFFFFFFFFFFFFF70000
000FFFFFDDDEFFFFFFFF6000
000FFFFF200027EFFFFFF200
000FFFFF2000001AFFFFFB00
000FFFFF20000000AFFFFF30
000FFFFF200000001EFFFF90
222FFFFF3220000007FFFFD0
DFFFFFFFFFF0000002FFFFF1
DFFFFFFFFFF0000000EFFFF2
DFFFFFFFFFF0000000DFFFF3
DFFFFFFFFFF0000000EFFFF2
8AAFFFFFAAA0000002FFFFF1
000FFFFF2000000008FFFFC0
000FFFFF200000002EFFFF80
000FFFFF20000001CFFFFF20
000FFFFF2000002CFFFFF900
000FFFFF211259FFFFFFE100
000FFFFFFFFFFFFFFFFF4000
000FFFFFFFFFFFFFFFF50000
000FFFFFFFFFFFFFFD300000
000FFFFFFFFFFFFE81000000
000FFFFFFFFEDA6100000000
ENDCHAR
STARTCHAR dcroat
ENCODING 273
SWIDTH 606 0
DWIDTH 22 0
BBX 22 28 0 -1
BITMAP
0000000000000004555500
000000000000034DFFFF44
0000000000000BFFFFFFFD
0000000000000BFFFFFFFD
0000000000000BFFFFFFFD
0000000000000BFFFFFFFD
000000000000068EFFFF87
000000015787300CFFFF00
000002AFFFFFFD4CFFFF00
00007FFFFFFFFFEEFFFF00
0008FFFFFFFFFFFFFFFF00
005FFFFFFFFFFFFFFFFF00
01EFFFFFB657DFFFFFFF00
07FFFFF5000009FFFFFF00
0BFFFF70000000BFFFFF00
0FFFFE000000003FFFFF00
2FFFFB000000000EFFFF00
3FFFFA000000000DFFFF00
2FFFFC000000000EFFFF00
0FFFFF200000004FFFFF00
0BFFFFA0000001CFFFFF00
06FFFFF900001BFFFFFF00
00DFFFFFD97AEFFFFFFF00
004FFFFFFFFFFFFFFFFF00
0006FFFFFFFFFFFFCDFF00
00004EFFFFFFFFF904FF00
0000018DFFFFEA30008F00
0000000024531000000000
ENDCHAR
STARTCHAR Emacron
ENCODING 274
SWIDTH 578 0
DWIDTH 21 0
BBX 18 30 2 0
BITMAP
00000EFFFFFFFD0000
00000FFFFFFFFE0000
00000FFFFFFFFE0000
00000BBBBBBBBA0000
233333333333333332
AFFFFFFFFFFFFFFFF9
AFFFFFFFFFFFFFFFF9
AFFFFFFFFFFFFFFFF9
AFFFFFFFFFFFFFFFF9
AFFFFEDDDDDDDDDDD8
AFFFF6000000000000
AFFFF6000000000000
AFFFF6000000000000
AFFFF6000000000000
AFFFF7222222210000
AFFFFFFFFFFFFA0000
AFFFFFFFFFFFFA0000
AFFFFFFFFFFFFA0000
AFFFFFFFFFFFFA0000
AFFFFEEEEEEEE90000
AFFFF6000000000000
AFFFF6000000000000
AFFFF6000000000000
AFFFF6000000000000
AFFFF6111111111110
AFFFFFFFFFFFFFFFF9
AFFFFFFFFFFFFFFFF9
AFFFFFFFFFFFFFFFF9
AFFFFFFFFFFFFFFFF9
AFFFFFFFFFFFFFFFF9
ENDCHAR
STARTCHAR emacron
ENCODING 275
SWIDTH 524 0
DWIDTH 19 0
BBX 19 26 0 -1
BITMAP
000004FFFFFFFF900000
000004FFFFFFFF900000
000004FFFFFFFF900000
000003BBBBBBBB700000
00000000000000000000
00000001578751000000
000003BFFFFFFE910000
00007FFFFFFFFFFE5000
0009FFFFFFFFFFFFF600
006FFFFFFFFFFFFFFF20
01EFFFFFB65AFFFFF800
07FFFFF5001DFFFFA000
0BFFFF7000BFFFFC1000
0FFFFF1007FFFFE20000
1FFFFC004FFFFF300000
2FFFFB01EFFFF6000000
1FFFFC0BFFFF80000000
0EFFFF8FFFFB00100000
0AFFFFFFFFC100B80000
05FFFFFFFE201AFF7000
00DFFFFFFB79EFFFF700
004FFFFFFFFFFFFFFE10
0006FFFFFFFFFFFFE300
00004EFFFFFFFFFC3000
0000018DFFFFFC600000
00000000245420000000
ENDCHAR
STARTCHAR Ebreve
ENCODING 276
SWIDTH 578 0
DWIDTH 21 0
BBX 18 32 2 0
BITMAP
000005661266400000
00000FFF23FFC00000
00000FFFABFFC00000
00000AFFFFFF900000
000001CFFFFD100000
000000058860000000
233333333333333332
AFFFFFFFFFFFFFFFF9
AFFFFFFFFFFFFFFFF9
AFFFFFFFFFFFFFFFF9
AFFFFFFFFFFFFFFFF9
AFFFFEDDDDDDDDDDD8
AFFFF6000000000000
AFFFF6000000000000
AFFFF6000000000000
AFFFF6000000000000
AFFFF7222222210000
AFFFFFFFFFFFFA0000
AFFFFFFFFFFFFA0000
AFFFFFFFFFFFFA0000
AFFFFFFFFFFFFA0000
AFFFFEEEEEEEE90000
AFFFF6000000000000
AFFFF6000000000000
AFFFF6000000000000
AFFFF6000000000000
AFFFF6111111111110
AFFFFFFFFFFFFFFFF9
AFFFFFFFFFFFFFFFF9
AFFFFFFFFFFFFFFFF9
AFFFFFFFFFFFFFFFF9
AFFFFFFFFFFFFFFFF9
ENDCHAR
STARTCHAR ebreve
ENCODING 277
SWIDTH 524 0
DWIDTH 19 0
BBX 19 28 0 -1
BITMAP
00000056612663000000
000001FFF24FFB000000
000000FFFABFFC000000
000000AFFFFFF8000000
0000001DFFFFC1000000
00000000588500000000
00000000000000000000
00000001578751000000
000003BFFFFFFE910000
00007FFFFFFFFFFE5000
0009FFFFFFFFFFFFF600
006FFFFFFFFFFFFFFF20
01EFFFFFB65AFFFFF800
07FFFFF5001DFFFFA000
0BFFFF7000BFFFFC1000
0FFFFF1007FFFFE20000
1FFFFC004FFFFF300000
2FFFFB01EFFFF6000000
1FFFFC0BFFFF80000000
0EFFFF8FFFFB00100000
0AFFFFFFFFC100B80000
05FFFFFFFE201AFF7000
00DFFFFFFB79EFFFF700
004FFFFFFFFFFFFFFE10
0006FFFFFFFFFFFFE300
00004EFFFFFFFFFC3000
0000018DFFFFFC600000
00000000245420000000
ENDCHAR
STARTCHAR Edotaccent
ENCODING 278
SWIDTH 578 0
DWIDTH 21 0
BBX 18 31 2 0
BITMAP
00000002AB40000000
0000000DFFF2000000
0000001FFFF5000000
0000000CFFE1000000
000000018930000000
233333333333333332
AFFFFFFFFFFFFFFFF9
AFFFFFFFFFFFFFFFF9
AFFFFFFFFFFFFFFFF9
AFFFFFFFFFFFFFFFF9
AFFFFEDDDDDDDDDDD8
AFFFF6000000000000
AFFFF6000000000000
AFFFF6000000000000
AFFFF6000000000000
AFFFF7222222210000
AFFFFFFFFFFFFA0000
AFFFFFFFFFFFFA0000
AFFFFFFFFFFFFA0000
AFFFFFFFFFFFFA0000
AFFFFEEEEEEEE90000
AFFFF6000000000000
AFFFF6000000000000
AFFFF6000000000000
AFFFF6000000000000
AFFFF6111111111110
AFFFFFFFFFFFFFFFF9
AFFFFFFFFFFFFFFFF9
AFFFFFFFFFFFFFFFF9
AFFFFFFFFFFFFFFFF9
AFFFFFFFFFFFFFFFF9
ENDCHAR
STARTCHAR edotaccent
ENCODING 279
SWIDTH 524 0
DWIDTH 19 0
BBX 19 27 0 -1
BITMAP
000000002AC500000000
00000000CFFF30000000
00000000FFFF60000000
00000000BFFF20000000
0000000018A300000000
00000000000000000000
00000001578751000000
000003BFFFFFFE910000
00007FFFFFFFFFFE5000
0009FFFFFFFFFFFFF600
006FFFFFFFFFFFFFFF20
01EFFFFFB65AFFFFF800
07FFFFF5001DFFFFA000
0BFFFF7000BFFFFC1000
0FFFFF1007FFFFE20000
1FFFFC004FFFFF300000
2FFFFB01EFFFF6000000
1FFFFC0BFFFF80000000
0EFFFF8FFFFB00100000
0AFFFFFFFFC100B80000
05FFFFFFFE201AFF7000
00DFFFFFFB79EFFFF700
004FFFFFFFFFFFFFFE10
0006FFFFFFFFFFFFE300
00004EFFFFFFFFFC3000
0000018DFFFFFC600000
00000000245420000000
ENDCHAR
STARTCHAR Eogonek
ENCODING 280
SWIDTH 578 0
DWIDTH 21 0
BBX 18 33 2 -7
BITMAP
233333333333333332
AFFFFFFFFFFFFFFFF9
AFFFFFFFFFFFFFFFF9
AFFFFFFFFFFFFFFFF9
AFFFFFFFFFFFFFFFF9
AFFFFEDDDDDDDDDDD8
AFFFF6000000000000
AFFFF6000000000000
AFFFF6000000000000
AFFFF6000000000000
AFFFF7222222210000
AFFFFFFFFFFFFA0000
AFFFFFFFFFFFFA0000
AFFFFFFFFFFFFA0000
AFFFFFFFFFFFFA0000
AFFFFEEEEEEEE90000
AFFFF6000000000000
AFFFF6000000000000
AFFFF6000000000000
AFFFF6000000000000
AFFFF6111111111110
AFFFFFFFFFFFFFFFF9
AFFFFFFFFFFFFFFFF9
AFFFFFFFFFFFFFFFF9
AFFFFFFFFFFFFFFFF9
AFFFFFFFFFFFFFFFF9
00000000000AFF3000
00000000007FF90000
0000000000EFF62600
0000000000FFFFFF80
0000000000AFFFFFF5
00000000001BFFFE60
000000000000364100
ENDCHAR
STARTCHAR eogonek
ENCODING 281
SWIDTH 524 0
DWIDTH 19 0
BBX 19 27 0 -7
BITMAP
00000001578751000000
000003BFFFFFFE910000
00007FFFFFFFFFFE5000
0009FFFFFFFFFFFFF600
006FFFFFFFFFFFFFFF20
01EFFFFFB65AFFFFF800
07FFFFF5001DFFFFA000
0BFFFF7000BFFFFC1000
0FFFFF1007FFFFE20000
1FFFFC004FFFFF300000
2FFFFB01EFFFF6000000
1FFFFC0BFFFF80000000
0EFFFF8FFFFB00100000
0AFFFFFFFFC100B80000
05FFFFFFFE201AFF7000
00DFFFFFFB79EFFFF700
004FFFFFFFFFFFFFFE10
0006FFFFFFFFFFFFE300
00004EFFFFFFFFFC3000
0000018DFFFFFF900000
00000000247FFC000000
0000000000DFF3000000
0000000005FFF1620000
0000000006FFFFFE3000
0000000002EFFFFFE100
00000000004EFFFC3000
00000000000156300000
ENDCHAR
STARTCHAR Ecaron
ENCODING 282
SWIDTH 578 0
DWIDTH 21 0
BBX 18 34 2 0
BITMAP
000000200001000000
000007F5003E700000
00004FFF64EFF60000
00004EFFFFFFF70000
000003EFFFFF600000
0000002DFFF6000000
00000002DF50000000
000000001400000000
233333333333333332
AFFFFFFFFFFFFFFFF9
AFFFFFFFFFFFFFFFF9
AFFFFFFFFFFFFFFFF9
AFFFFFFFFFFFFFFFF9
AFFFFEDDDDDDDDDDD8
AFFFF6000000000000
AFFFF6000000000000
AFFFF6000000000000
AFFFF6000000000000
AFFFF7222222210000
AFFFFFFFFFFFFA0000
AFFFFFFFFFFFFA0000
AFFFFFFFFFFFFA0000
AFFFFFFFFFFFFA0000
AFFFFEEEEEEEE90000
AFFFF6000000000000
AFFFF6000000000000
AFFFF6000000000000
AFFFF6000000000000
AFFFF6111111111110
AFFFFFFFFFFFFFFFF9
AFFFFFFFFFFFFFFFF9
AFFFFFFFFFFFFFFFF9
AFFFFFFFFFFFFFFFF9
AFFFFFFFFFFFFFFFF9
ENDCHAR
STARTCHAR ecaron
ENCODING 283
SWIDTH 524 0
DWIDTH 19 0
BBX 19 30 0 -1
BITMAP
00000003000010000000
0000006F6003D8000000
000003FFF73EFF700000
000004EFFFFFFF800000
0000003EFFFFF7000000
00000002DFFF70000000
000000001CF600000000
00000000014000000000
00000000000000000000
00000001578751000000
000003BFFFFFFE910000
00007FFFFFFFFFFE5000
0009FFFFFFFFFFFFF600
006FFFFFFFFFFFFFFF20
01EFFFFFB65AFFFFF800
07FFFFF5001DFFFFA000
0BFFFF7000BFFFFC1000
0FFFFF1007FFFFE20000
1FFFFC004FFFFF300000
2FFFFB01EFFFF6000000
1FFFFC0BFFFF80000000
0EFFFF8FFFFB00100000
0AFFFFFFFFC100B80000
05FFFFFFFE201AFF7000
00DFFFFFFB79EFFFF700
004FFFFFFFFFFFFFFE10
0006FFFFFFFFFFFFE300
00004EFFFFFFFFFC3000
0000018DFFFFFC600000
00000000245420000000
ENDCHAR
STARTCHAR Gcircumflex
ENCODING 284
SWIDTH 665 0
DWIDTH 24 0
BBX 22 34 1 -1
BITMAP
000000000004C200000000
00000000005FFD20000000
0000000006FFFFE3000000
000000006FFFFFFE400000
00000003FFFE9FFFE10000
000000007FE405FF500000
0000000008300048000000
0000000000367753000000
00000004AEFFFFFFEA3000
000002BFFFFFFFFFFFFB10
00005EFFFFFFFFFFFFFFE2
0006FFFFFFFFFFFFFFFFD0
004FFFFFFFEA89AEFFFF40
01DFFFFFD50000006EFA00
08FFFFFB1000000001B200
1EFFFFC000000000000000
6FFFFF2000000000000000
AFFFF90000000000000000
DFFFF40000000000000000
FFFFF10000000000000000
FFFFF00000000000488883
FFFFF100000000007FFFF6
DFFFF400000000007FFFF6
AFFFF900000000007FFFF6
6FFFFF20000000007FFFF6
1EFFFFB0000000007FFFF6
08FFFFFA100000007FFFF6
01EFFFFFD50000009FFFF6
004FFFFFFFD988AEFFFFF6
0006FFFFFFFFFFFFFFFFF6
00005FFFFFFFFFFFFFFFE3
000003CFFFFFFFFFFFFB20
00000005BFFFFFFFFB4000
0000000001478864100000
ENDCHAR
STARTCHAR gcircumflex
ENCODING 285
SWIDTH 607 0
DWIDTH 22 0
BBX 21 36 0 -8
BITMAP
0000000005B10000000000
000000006FFC2000000000
00000007FFFFD200000000
0000008FFFFFFE30000000
000004FFFE9FFFD0000000
0000008FE307FF40000000
0000000820005700000000
0000000000000000000000
0000000157863000000000
000002AFFFFFFD60005C10
00006FFFFFFFFFFB13FF10
0007FFFFFFFFFFFFDEFF10
005FFFFFFFFFFFFFFFFF10
00DFFFFFB657DFFFFFFF10
06FFFFF4000009FFFFFF10
0BFFFF70000000BFFFFF10
0FFFFE100000003FFFFF10
1FFFFC000000000DFFFF10
2FFFFB000000000CFFFF10
1FFFFC000000000EFFFF10
0FFFFF100000004FFFFF10
0BFFFF90000000CFFFFF10
06FFFFF700001BFFFFFF10
01EFFFFFD979EFFFFFFF10
005FFFFFFFFFFFFFFFFF10
0008FFFFFFFFFFFFFFFF10
00006EFFFFFFFFFFFFFF00
0000018DFFFFFD8FFFFD00
00000000245520BFFFF900
00000000000019FFFFF300
00000000999AEFFFFFA000
00000000FFFFFFFFFD1000
00000000FFFFFFFFE30000
00000000FFFFFFFB200000
00000000FFFFEA40000000
0000000033320000000000
ENDCHAR
STARTCHAR Gbreve
ENCODING 286
SWIDTH 665 0
DWIDTH 24 0
BBX 22 34 1 -1
BITMAP
0000000016650466100000
000000006FFC09FF600000
000000005FFF8EFF700000
000000001EFFFFFF300000
0000000005EFFFF8000000
0000000000179830000000
0000000000000000000000
0000000000367753000000
00000004AEFFFFFFEA3000
000002BFFFFFFFFFFFFB10
00005EFFFFFFFFFFFFFFE2
0006FFFFFFFFFFFFFFFFD0
004FFFFFFFEA89AEFFFF40
01DFFFFFD50000006EFA00
08FFFFFB1000000001B200
1EFFFFC000000000000000
6FFFFF2000000000000000
AFFFF90000000000000000
DFFFF40000000000000000
FFFFF10000000000000000
FFFFF00000000000488883
FFFFF100000000007FFFF6
DFFFF400000000007FFFF6
AFFFF900000000007FFFF6
6FFFFF20000000007FFFF6
1EFFFFB0000000007FFFF6
08FFFFFA100000007FFFF6
01EFFFFFD50000009FFFF6
004FFFFFFFD988AEFFFFF6
0006FFFFFFFFFFFFFFFFF6
00005FFFFFFFFFFFFFFFE3
000003CFFFFFFFFFFFFB20
00000005BFFFFFFFFB4000
0000000001478864100000
ENDCHAR
STARTCHAR gbreve
ENCODING 287
SWIDTH 607 0
DWIDTH 22 0
BBX 21 35 0 -8
BITMAP
0000003664066600000000
000000AFF80DFF20000000
0000009FFD8FFF30000000
0000004FFFFFFE00000000
00000008FFFFF400000000
0000000037972000000000
0000000000000000000000
0000000157863000000000
000002AFFFFFFD60005C10
00006FFFFFFFFFFB13FF10
0007FFFFFFFFFFFFDEFF10
005FFFFFFFFFFFFFFFFF10
00DFFFFFB657DFFFFFFF10
06FFFFF4000009FFFFFF10
0BFFFF70000000BFFFFF10
0FFFFE100000003FFFFF10
1FFFFC000000000DFFFF10
2FFFFB000000000CFFFF10
1FFFFC000000000EFFFF10
0FFFFF100000004FFFFF10
0BFFFF90000000CFFFFF10
06FFFFF700001BFFFFFF10
01EFFFFFD979EFFFFFFF10
005FFFFFFFFFFFFFFFFF10
0008FFFFFFFFFFFFFFFF10
00006EFFFFFFFFFFFFFF00
0000018DFFFFFD8FFFFD00
00000000245520BFFFF900
00000000000019FFFFF300
00000000999AEFFFFFA000
00000000FFFFFFFFFD1000
00000000FFFFFFFFE30000
00000000FFFFFFFB200000
00000000FFFFEA40000000
0000000033320000000000
ENDCHAR
STARTCHAR Gdotaccent
ENCODING 288
SWIDTH 665 0
DWIDTH 24 0
BBX 22 33 1 -1
BITMAP
000000000019C700000000
00000000009FFF60000000
0000000000CFFF90000000
00000000008FFF50000000
000000000007A500000000
0000000000000000000000
0000000000367753000000
00000004AEFFFFFFEA3000
000002BFFFFFFFFFFFFB10
00005EFFFFFFFFFFFFFFE2
0006FFFFFFFFFFFFFFFFD0
004FFFFFFFEA89AEFFFF40
01DFFFFFD50000006EFA00
08FFFFFB1000000001B200
1EFFFFC000000000000000
6FFFFF2000000000000000
AFFFF90000000000000000
DFFFF40000000000000000
FFFFF10000000000000000
FFFFF00000000000488883
FFFFF100000000007FFFF6
DFFFF400000000007FFFF6
AFFFF900000000007FFFF6
6FFFFF20000000007FFFF6
1EFFFFB0000000007FFFF6
08FFFFFA100000007FFFF6
01EFFFFFD50000009FFFF6
004FFFFFFFD988AEFFFFF6
0006FFFFFFFFFFFFFFFFF6
00005FFFFFFFFFFFFFFFE3
000003CFFFFFFFFFFFFB20
00000005BFFFFFFFFB4000
0000000001478864100000
ENDCHAR
STARTCHAR gdotaccent
ENCODING 289
SWIDTH 607 0
DWIDTH 22 0
BBX 21 34 0 -8
BITMAP
000000002AC50000000000
00000000BFFF3000000000
00000000FFFF6000000000
00000000BFFF3000000000
0000000018A40000000000
0000000000000000000000
0000000157863000000000
000002AFFFFFFD60005C10
00006FFFFFFFFFFB13FF10
0007FFFFFFFFFFFFDEFF10
005FFFFFFFFFFFFFFFFF10
00DFFFFFB657DFFFFFFF10
06FFFFF4000009FFFFFF10
0BFFFF70000000BFFFFF10
0FFFFE100000003FFFFF10
1FFFFC000000000DFFFF10
2FFFFB000000000CFFFF10
1FFFFC000000000EFFFF10
0FFFFF100000004FFFFF10
0BFFFF90000000CFFFFF10
06FFFFF700001BFFFFFF10
01EFFFFFD979EFFFFFFF10
005FFFFFFFFFFFFFFFFF10
0008FFFFFFFFFFFFFFFF10
00006EFFFFFFFFFFFFFF00
0000018DFFFFFD8FFFFD00
00000000245520BFFFF900
00000000000019FFFFF300
00000000999AEFFFFFA000
00000000FFFFFFFFFD1000
00000000FFFFFFFFE30000
00000000FFFFFFFB200000
00000000FFFFEA40000000
0000000033320000000000
ENDCHAR
STARTCHAR Gcommaaccent
ENCODING 290
SWIDTH 665 0
DWIDTH 24 0
BBX 22 36 1 -10
BITMAP
0000000000367753000000
00000004AEFFFFFFEA3000
000002BFFFFFFFFFFFFB10
00005EFFFFFFFFFFFFFFE2
0006FFFFFFFFFFFFFFFFD0
004FFFFFFFEA89AEFFFF40
01DFFFFFD50000006EFA00
08FFFFFB1000000001B200
1EFFFFC000000000000000
6FFFFF2000000000000000
AFFFF90000000000000000
DFFFF40000000000000000
FFFFF10000000000000000
FFFFF00000000000488883
FFFFF100000000007FFFF6
DFFFF400000000007FFFF6
AFFFF900000000007FFFF6
6FFFFF20000000007FFFF6
1EFFFFB0000000007FFFF6
08FFFFFA100000007FFFF6
01EFFFFFD50000009FFFF6
004FFFFFFFD988AEFFFFF6
0006FFFFFFFFFFFFFFFFF6
00005FFFFFFFFFFFFFFFE3
000003CFFFFFFFFFFFFB20
00000005BFFFFFFFFB4000
0000000001478864100000
0000000000013100000000
00000000005EFD20000000
0000000000DFFFA0000000
0000000000EFFFB0000000
00000000008FFFA0000000
000000000006FF60000000
000000000007FE10000000
000000000007E500000000
0000000000001000000000
ENDCHAR
STARTCHAR gcommaaccent
ENCODING 291
SWIDTH 607 0
DWIDTH 22 0
BBX 21 37 0 -8
BITMAP
0000000004500000000000
000000002EF40000000000
000000009FC00000000000
00000000EFE80000000000
00000002FFFF5000000000
00000002FFFF8000000000
00000000DFFF4000000000
000000002AC60000000000
0000000000000000000000
0000000157863000000000
000002AFFFFFFD60005C10
00006FFFFFFFFFFB13FF10
0007FFFFFFFFFFFFDEFF10
005FFFFFFFFFFFFFFFFF10
00DFFFFFB657DFFFFFFF10
06FFFFF4000009FFFFFF10
0BFFFF70000000BFFFFF10
0FFFFE100000003FFFFF10
1FFFFC000000000DFFFF10
2FFFFB000000000CFFFF10
1FFFFC000000000EFFFF10
0FFFFF100000004FFFFF10
0BFFFF90000000CFFFFF10
06FFFFF700001BFFFFFF10
01EFFFFFD979EFFFFFFF10
005FFFFFFFFFFFFFFFFF10
0008FFFFFFFFFFFFFFFF10
00006EFFFFFFFFFFFFFF00
0000018DFFFFFD8FFFFD00
00000000245520BFFFF900
00000000000019FFFFF300
00000000999AEFFFFFA000
00000000FFFFFFFFFD1000
00000000FFFFFFFFE30000
00000000FFFFFFFB200000
00000000FFFFEA40000000
0000000033320000000000
ENDCHAR
STARTCHAR Hcircumflex
ENCODING 292
SWIDTH 689 0
DWIDTH 25 0
BBX 21 33 2 0
BITMAP
0000000004C20000000000
000000005FFD2000000000
00000006FFFFE300000000
0000006FFFFFFE40000000
000003FFFE9FFFE1000000
0000007FE405FF50000000
0000000830004800000000
2333310000000002333320
AFFFF60000000008FFFF80
AFFFF60000000008FFFF80
AFFFF60000000008FFFF80
AFFFF60000000008FFFF80
AFFFF60000000008FFFF80
AFFFF60000000008FFFF80
AFFFF60000000008FFFF80
AFFFF60000000008FFFF80
AFFFF60000000008FFFF80
AFFFF72222222229FFFF80
AFFFFFFFFFFFFFFFFFFF80
AFFFFFFFFFFFFFFFFFFF80
AFFFFFFFFFFFFFFFFFFF80
AFFFFFFFFFFFFFFFFFFF80
AFFFFEEEEEEEEEEEFFFF80
AFFFF60000000008FFFF80
AFFFF60000000008FFFF80
AFFFF60000000008FFFF80
AFFFF60000000008FFFF80
AFFFF60000000008FFFF80
AFFFF60000000008FFFF80
AFFFF60000000008FFFF80
AFFFF60000000008FFFF80
AFFFF60000000008FFFF80
AFFFF60000000008FFFF80
ENDCHAR
STARTCHAR hcircumflex
ENCODING 293
SWIDTH 562 0
DWIDTH 20 0
BBX 18 27 1 0
BITMAP
15555300006B100000
3FFFF90007FFC10000
3FFFF9008FFFFD2000
3FFFF908FFFFFFD200
3FFFF95FFFEAFFFC00
3FFFF909FD207FF300
3FFFF9009200066000
3FFFF9002310000000
3FFFFA8EFFFD810000
3FFFFFFFFFFFFE5000
3FFFFFFFFFFFFFF500
3FFFFFFFFFFFFFFF30
3FFFFFFFBADFFFFFB0
3FFFFFD30008FFFFF2
3FFFFF200000AFFFF7
3FFFFB0000004FFFF9
3FFFF90000003FFFFA
3FFFF90000003FFFFA
3FFFF90000003FFFFA
3FFFF90000003FFFFA
3FFFF90000003FFFFA
3FFFF90000003FFFFA
3FFFF90000003FFFFA
3FFFF90000003FFFFA
3FFFF90000003FFFFA
3FFFF90000003FFFFA
3FFFF90000003FFFFA
ENDCHAR
STARTCHAR Hbar
ENCODING 294
SWIDTH 689 0
DWIDTH 25 0
BBX 25 26 0 0
BITMAP
00233331000000000233332000
00AFFFF60000000008FFFF8000
00AFFFF60000000008FFFF8000
11AFFFF71111111119FFFF8100
7FFFFFFFFFFFFFFFFFFFFFFF40
7FFFFFFFFFFFFFFFFFFFFFFF40
7FFFFFFFFFFFFFFFFFFFFFFF40
7FFFFFFFFFFFFFFFFFFFFFFF40
5ADFFFFCAAAAAAAAADFFFFDA30
00AFFFF60000000008FFFF8000
00AFFFF72222222229FFFF8000
00AFFFFFFFFFFFFFFFFFFF8000
00AFFFFFFFFFFFFFFFFFFF8000
00AFFFFFFFFFFFFFFFFFFF8000
00AFFFFFFFFFFFFFFFFFFF8000
00AFFFFEEEEEEEEEEEFFFF8000
00AFFFF60000000008FFFF8000
00AFFFF60000000008FFFF8000
00AFFFF60000000008FFFF8000
00AFFFF60000000008FFFF8000
00AFFFF60000000008FFFF8000
00AFFFF60000000008FFFF8000
00AFFFF60000000008FFFF8000
00AFFFF60000000008FFFF8000
00AFFFF60000000008FFFF8000
00AFFFF60000000008FFFF8000
ENDCHAR
STARTCHAR hbar
ENCODING 295
SWIDTH 562 0
DWIDTH 20 0
BBX 19 27 0 0
BITMAP
01555530000000000000
35FFFFB3100000000000
FFFFFFFF500000000000
FFFFFFFF500000000000
FFFFFFFF500000000000
FFFFFFFF500000000000
35FFFFB3100000000000
03FFFF90023100000000
03FFFFA8EFFFD8100000
03FFFFFFFFFFFFE50000
03FFFFFFFFFFFFFF5000
03FFFFFFFFFFFFFFF300
03FFFFFFFBADFFFFFB00
03FFFFFD30008FFFFF20
03FFFFF200000AFFFF70
03FFFFB0000004FFFF90
03FFFF90000003FFFFA0
03FFFF90000003FFFFA0
03FFFF90000003FFFFA0
03FFFF90000003FFFFA0
03FFFF90000003FFFFA0
03FFFF90000003FFFFA0
03FFFF90000003FFFFA0
03FFFF90000003FFFFA0
03FFFF90000003FFFFA0
03FFFF90000003FFFFA0
03FFFF90000003FFFFA0
ENDCHAR
STARTCHAR Itilde
ENCODING 296
SWIDTH 270 0
DWIDTH 10 0
BBX 12 33 -1 0
BITMAP
039BA4007AC5
4FFFFF60CFF9
BFFFFFFAFFFA
DFFFEFFFFFF8
DFFB09FFFFE2
9FFB007EFD40
133200001000
000233331000
000AFFFF6000
000AFFFF6000
000AFFFF6000
000AFFFF6000
000AFFFF6000
000AFFFF6000
000AFFFF6000
000AFFFF6000
000AFFFF6000
000AFFFF6000
000AFFFF6000
000AFFFF6000
000AFFFF6000
000AFFFF6000
000AFFFF6000
000AFFFF6000
000AFFFF6000
000AFFFF6000
000AFFFF6000
000AFFFF6000
000AFFFF6000
000AFFFF6000
000AFFFF6000
000AFFFF6000
000AFFFF6000
ENDCHAR
STARTCHAR itilde
ENCODING 297
SWIDTH 235 0
DWIDTH 8 0
BBX 12 26 -2 0
BITMAP
018BB70049BA
0CFFFFB16FFF
5FFFFFFCDFFF
8FFFFFFFFFFD
7FFF14EFFFF7
3FFF203CFE80
033210001000
0002CCCC8000
0003FFFFA000
0003FFFFA000
0003FFFFA000
0003FFFFA000
0003FFFFA000
0003FFFFA000
0003FFFFA000
0003FFFFA000
0003FFFFA000
0003FFFFA000
0003FFFFA000
0003FFFFA000
0003FFFFA000
0003FFFFA000
0003FFFFA000
0003FFFFA000
0003FFFFA000
0003FFFFA000
ENDCHAR
STARTCHAR Imacron
ENCODING 298
SWIDTH 270 0
DWIDTH 10 0
BBX 10 30 0 0
BITMAP
9FFFFFFFF4
9FFFFFFFF4
9FFFFFFFF4
7BBBBBBBB3
0023333100
00AFFFF600
00AFFFF600
00AFFFF600
00AFFFF600
00AFFFF600
00AFFFF600
00AFFFF600
00AFFFF600
00AFFFF600
00AFFFF600
00AFFFF600
00AFFFF600
00AFFFF600
00AFFFF600
00AFFFF600
00AFFFF600
00AFFFF600
00AFFFF600
00AFFFF600
00AFFFF600
00AFFFF600
00AFFFF600
00AFFFF600
00AFFFF600
00AFFFF600
ENDCHAR
STARTCHAR imacron
ENCODING 299
SWIDTH 235 0
DWIDTH 8 0
BBX 10 24 -1 0
BITMAP
2FFFFFFFFB
2FFFFFFFFB
2FFFFFFFFB
2BBBBBBBB8
0000000000
002CCCC800
003FFFFA00
003FFFFA00
003FFFFA00
003FFFFA00
003FFFFA00
003FFFFA00
003FFFFA00
003FFFFA00
003FFFFA00
003FFFFA00
003FFFFA00
003FFFFA00
003FFFFA00
003FFFFA00
003FFFFA00
003FFFFA00
003FFFFA00
003FFFFA00
ENDCHAR
STARTCHAR Ibreve
ENCODING 300
SWIDTH 270 0
DWIDTH 10 0
BBX 8 32 1 0
BITMAP
56622664
FFF33FFC
EFFAAFFD
9FFFFFF9
1CFFFFD1
00588600
02333310
0AFFFF60
0AFFFF60
0AFFFF60
0AFFFF60
0AFFFF60
0AFFFF60
0AFFFF60
0AFFFF60
0AFFFF60
0AFFFF60
0AFFFF60
0AFFFF60
0AFFFF60
0AFFFF60
0AFFFF60
0AFFFF60
0AFFFF60
0AFFFF60
0AFFFF60
0AFFFF60
0AFFFF60
0AFFFF60
0AFFFF60
0AFFFF60
0AFFFF60
ENDCHAR
STARTCHAR ibreve
ENCODING 301
SWIDTH 235 0
DWIDTH 8 0
BBX 9 26 0 0
BITMAP
3664066600
AFF70DFF20
AFFD8FFF20
5FFFFFFE00
08FFFFF400
0037972000
0000000000
02CCCC8000
03FFFFA000
03FFFFA000
03FFFFA000
03FFFFA000
03FFFFA000
03FFFFA000
03FFFFA000
03FFFFA000
03FFFFA000
03FFFFA000
03FFFFA000
03FFFFA000
03FFFFA000
03FFFFA000
03FFFFA000
03FFFFA000
03FFFFA000
03FFFFA000
ENDCHAR
STARTCHAR Iogonek
ENCODING 302
SWIDTH 270 0
DWIDTH 10 0
BBX 8 33 1 -7
BITMAP
02333310
0AFFFF60
0AFFFF60
0AFFFF60
0AFFFF60
0AFFFF60
0AFFFF60
0AFFFF60
0AFFFF60
0AFFFF60
0AFFFF60
0AFFFF60
0AFFFF60
0AFFFF60
0AFFFF60
0AFFFF60
0AFFFF60
0AFFFF60
0AFFFF60
0AFFFF60
0AFFFF60
0AFFFF60
0AFFFF60
0AFFFF60
0AFFFF60
0AFFFF60
06FF6000
4FFC0000
BFF91700
CFFFFFA0
7FFFFFF8
09FFFF80
00365100
ENDCHAR
STARTCHAR iogonek
ENCODING 303
SWIDTH 235 0
DWIDTH 8 0
BBX 9 35 0 -7
BITMAP
0001200000
008FFC3000
07FFFFE100
0DFFFFF600
0DFFFFF600
09FFFFE200
01AFFE5000
0002300000
0000000000
02CCCC8000
03FFFFA000
03FFFFA000
03FFFFA000
03FFFFA000
03FFFFA000
03FFFFA000
03FFFFA000
03FFFFA000
03FFFFA000
03FFFFA000
03FFFFA000
03FFFFA000
03FFFFA000
03FFFFA000
03FFFFA000
03FFFFA000
03FFFFA000
03FFFFA000
01CFE10000
0AFF600000
2FFF344000
3FFFFFF500
0DFFFFFF20
02DFFFD400
0004640000
ENDCHAR
STARTCHAR Idotaccent
ENCODING 304
SWIDTH 270 0
DWIDTH 10 0
BBX 6 31 2 0
BITMAP
05BA20
2FFFC0
6FFFF0
2FFFB0
039810
233331
AFFFF6
AFFFF6
AFFFF6
AFFFF6
AFFFF6
AFFFF6
AFFFF6
AFFFF6
AFFFF6
AFFFF6
AFFFF6
AFFFF6
AFFFF6
AFFFF6
AFFFF6
AFFFF6
AFFFF6
AFFFF6
AFFFF6
AFFFF6
AFFFF6
AFFFF6
AFFFF6
AFFFF6
AFFFF6
ENDCHAR
STARTCHAR dotlessi
ENCODING 305
SWIDTH 235 0
DWIDTH 8 0
BBX 6 19 1 0
BITMAP
2CCCC8
3FFFFA
3FFFFA
3FFFFA
3FFFFA
3FFFFA
3FFFFA
3FFFFA
3FFFFA
3FFFFA
3FFFFA
3FFFFA
3FFFFA
3FFFFA
3FFFFA
3FFFFA
3FFFFA
3FFFFA
3FFFFA
ENDCHAR
STARTCHAR IJ
ENCODING 306
SWIDTH 687 0
DWIDTH 25 0
BBX 21 26 2 0
BITMAP
2333310000000001333320
AFFFF60000000005FFFFA0
AFFFF60000000005FFFFA0
AFFFF60000000005FFFFA0
AFFFF60000000005FFFFA0
AFFFF60000000005FFFFA0
AFFFF60000000005FFFFA0
AFFFF60000000005FFFFA0
AFFFF60000000005FFFFA0
AFFFF60000000005FFFFA0
AFFFF60000000005FFFFA0
AFFFF60000000005FFFFA0
AFFFF60000000005FFFFA0
AFFFF60000000005FFFFA0
AFFFF60000000005FFFFA0
AFFFF60000000005FFFFA0
AFFFF60000000006FFFF90
AFFFF60000000009FFFF80
AFFFF6000000002FFFFF40
AFFFF600000001CFFFFE00
AFFFF60073127EFFFFF800
AFFFF600EFFFFFFFFFE100
AFFFF600EFFFFFFFFF3000
AFFFF600EFFFFFFFE40000
AFFFF600EFFFFFFA200000
AFFFF600BEFEC830000000
ENDCHAR
STARTCHAR ij
ENCODING 307
SWIDTH 474 0
DWIDTH 17 0
BBX 15 36 1 -8
BITMAP
0012000000011000
08FFC30002CFF900
7FFFFE101DFFFF80
DFFFFF604FFFFFE0
DFFFFF605FFFFFF0
9FFFFE201EFFFFA0
1AFFE50004DFFB10
0023000000032000
0000000000000000
2CCCC80008CCCC30
3FFFFA000AFFFF40
3FFFFA000AFFFF40
3FFFFA000AFFFF40
3FFFFA000AFFFF40
3FFFFA000AFFFF40
3FFFFA000AFFFF40
3FFFFA000AFFFF40
3FFFFA000AFFFF40
3FFFFA000AFFFF40
3FFFFA000AFFFF40
3FFFFA000AFFFF40
3FFFFA000AFFFF40
3FFFFA000AFFFF40
3FFFFA000AFFFF40
3FFFFA000AFFFF40
3FFFFA000AFFFF30
3FFFFA000CFFFF20
3FFFFA001FFFFF00
00000000AFFFFB00
0000001AFFFFF500
008A9BEFFFFFC000
00DFFFFFFFFE3000
00DFFFFFFFE40000
00DFFFFFFC200000
00DFFFEB50000000
0023220000000000
ENDCHAR
STARTCHAR Jcircumflex
ENCODING 308
SWIDTH 416 0
DWIDTH 15 0
BBX 15 33 0 0
BITMAP
0000000005C10000
000000006FFD2000
00000006FFFFD200
0000007FFFFFFE30
000003FFFE9FFFD0
0000008FE306FF40
0000000830005700
0000000033333000
00000001FFFFE000
00000001FFFFE000
00000001FFFFE000
00000001FFFFE000
00000001FFFFE000
00000001FFFFE000
00000001FFFFE000
00000001FFFFE000
00000001FFFFE000
00000001FFFFE000
00000001FFFFE000
00000001FFFFE000
00000001FFFFE000
00000001FFFFE000
00000001FFFFE000
00000002FFFFD000
00000005FFFFC000
0000000CFFFF9000
0000009FFFFF4000
64125CFFFFFC0000
AFFFFFFFFFF40000
AFFFFFFFFF700000
AFFFFFFFF7000000
AFFFFFFC40000000
7DFED95000000000
ENDCHAR
STARTCHAR jcircumflex
ENCODING 309
SWIDTH 237 0
DWIDTH 9 0
BBX 15 35 -6 -8
BITMAP
0000000005B10000
000000006FFC2000
00000007FFFFD200
0000008FFFFFFE30
000004FFFE9FFFD0
0000008FE307FF40
0000000820005700
0000000000000000
00000002CCCCA000
00000002FFFFC000
00000002FFFFC000
00000002FFFFC000
00000002FFFFC000
00000002FFFFC000
00000002FFFFC000
00000002FFFFC000
00000002FFFFC000
00000002FFFFC000
00000002FFFFC000
00000002FFFFC000
00000002FFFFC000
00000002FFFFC000
00000002FFFFC000
00000002FFFFC000
00000002FFFFB000
00000004FFFFA000
00000008FFFF8000
0000003EFFFF4000
000004EFFFFD0000
3AAACFFFFFF50000
5FFFFFFFFFA00000
5FFFFFFFFA000000
5FFFFFFF60000000
5FFFFD8200000000
1332100000000000
ENDCHAR
STARTCHAR Kcommaaccent
ENCODING 310
SWIDTH 625 0
DWIDTH 23 0
BBX 21 36 2 -10
BITMAP
2333310000000013333310
AFFFF600000000BFFFFD10
AFFFF600000008FFFFF400
AFFFF60000004FFFFF7000
AFFFF6000001EFFFFB0000
AFFFF600000BFFFFD10000
AFFFF600007FFFFF400000
AFFFF60004FFFFF7000000
AFFFF6001DFFFFB0000000
AFFFF600BFFFFD10000000
AFFFF607FFFFF400000000
AFFFF63FFFFFA000000000
AFFFF7DFFFFFF200000000
AFFFFEFFFFFFFA00000000
AFFFFFFFFFFFFF30000000
AFFFFFFFFFFFFFB0000000
AFFFFFFFB6FFFFF5000000
AFFFFFFD10DFFFFD000000
AFFFFFF3005FFFFF600000
AFFFFF70000BFFFFE10000
AFFFFB000003FFFFF70000
AFFFF6000000AFFFFE1000
AFFFF60000002FFFFF9000
AFFFF600000009FFFFF200
AFFFF600000001EFFFFA00
AFFFF6000000008FFFFF30
0000000000000000000000
0000000023000000000000
00000007FFC10000000000
0000001FFFF70000000000
0000002FFFF90000000000
0000000AFFF70000000000
000000008FF30000000000
000000009FC00000000000
000000009E300000000000
0000000001000000000000
ENDCHAR
STARTCHAR kcommaaccent
ENCODING 311
SWIDTH 539 0
DWIDTH 19 0
BBX 19 37 1 -10
BITMAP
15555300000000000000
3FFFFA00000000000000
3FFFFA00000000000000
3FFFFA00000000000000
3FFFFA00000000000000
3FFFFA00000000000000
3FFFFA00000000000000
3FFFFA00000000000000
3FFFFA0000006CCCCB10
3FFFFA000003FFFFF500
3FFFFA00001EFFFF8000
3FFFFA0000CFFFFB0000
3FFFFA0009FFFFD10000
3FFFFA005FFFFE300000
3FFFFA03EFFFF5000000
3FFFFA1DFFFF80000000
3FFFFABFFFFF50000000
3FFFFFFFFFFFD1000000
3FFFFFFFFFFFF7000000
3FFFFFFFFFFFFE200000
3FFFFFFFBCFFFFA00000
3FFFFFFE14FFFFF30000
3FFFFFF400AFFFFC0000
3FFFFF70002FFFFF5000
3FFFFC000009FFFFD000
3FFFFA000001EFFFF700
3FFFFA0000007FFFFE20
00000000000000000000
00000000310000000000
0000002DFF5000000000
0000009FFFE000000000
000000AFFFF100000000
0000004FFFE000000000
00000003DFA000000000
00000003FF4000000000
00000003D90000000000
00000000100000000000
ENDCHAR
STARTCHAR kgreenlandic
ENCODING 312
SWIDTH 539 0
DWIDTH 19 0
BBX 19 19 1 0
BITMAP
2EEEE90000006CCCCB10
3FFFFA000003FFFFF500
3FFFFA00001EFFFF8000
3FFFFA0000CFFFFB0000
3FFFFA0009FFFFD10000
3FFFFA005FFFFE300000
3FFFFA03EFFFF5000000
3FFFFA1DFFFF80000000
3FFFFABFFFFF50000000
3FFFFFFFFFFFD1000000
3FFFFFFFFFFFF7000000
3FFFFFFFFFFFFE200000
3FFFFFFFBCFFFFA00000
3FFFFFFE14FFFFF30000
3FFFFFF400AFFFFC0000
3FFFFF70002FFFFF5000
3FFFFC000009FFFFD000
3FFFFA000001EFFFF700
3FFFFA0000007FFFFE20
ENDCHAR
STARTCHAR Lacute
ENCODING 313
SWIDTH 562 0
DWIDTH 20 0
BBX 18 32 2 0
BITMAP
0000000002D4000000
000000002DFE200000
00000003EFFFC10000
0000004EFFFFF50000
000003EFFFFC300000
000001CFFE70000000
2333312EB200000000
AFFFF6020000000000
AFFFF6000000000000
AFFFF6000000000000
AFFFF6000000000000
AFFFF6000000000000
AFFFF6000000000000
AFFFF6000000000000
AFFFF6000000000000
AFFFF6000000000000
AFFFF6000000000000
AFFFF6000000000000
AFFFF6000000000000
AFFFF6000000000000
AFFFF6000000000000
AFFFF6000000000000
AFFFF6000000000000
AFFFF6000000000000
AFFFF6000000000000
AFFFF6000000000000
AFFFF6111111111111
AFFFFFFFFFFFFFFFFF
AFFFFFFFFFFFFFFFFF
AFFFFFFFFFFFFFFFFF
AFFFFFFFFFFFFFFFFF
AFFFFFFFFFFFFFFFFF
ENDCHAR
STARTCHAR lacute
ENCODING 314
SWIDTH 235 0
DWIDTH 8 0
BBX 11 35 1 0
BITMAP
0000003D3000
000003EFD100
00004EFFFB00
0005FFFFFF40
004FFFFFB200
001DFFE60000
0003FA100000
000020000000
155553000000
3FFFFA000000
3FFFFA000000
3FFFFA000000
3FFFFA000000
3FFFFA000000
3FFFFA000000
3FFFFA000000
3FFFFA000000
3FFFFA000000
3FFFFA000000
3FFFFA000000
3FFFFA000000
3FFFFA000000
3FFFFA000000
3FFFFA000000
3FFFFA000000
3FFFFA000000
3FFFFA000000
3FFFFA000000
3FFFFA000000
3FFFFA000000
3FFFFA000000
3FFFFA000000
3FFFFA000000
3FFFFA000000
3FFFFA000000
ENDCHAR
STARTCHAR Lcommaaccent
ENCODING 315
SWIDTH 562 0
DWIDTH 20 0
BBX 18 36 2 -10
BITMAP
233331000000000000
AFFFF6000000000000
AFFFF6000000000000
AFFFF6000000000000
AFFFF6000000000000
AFFFF6000000000000
AFFFF6000000000000
AFFFF6000000000000
AFFFF6000000000000
AFFFF6000000000000
AFFFF6000000000000
AFFFF6000000000000
AFFFF6000000000000
AFFFF6000000000000
AFFFF6000000000000
AFFFF6000000000000
AFFFF6000000000000
AFFFF6000000000000
AFFFF6000000000000
AFFFF6000000000000
AFFFF6111111111111
AFFFFFFFFFFFFFFFFF
AFFFFFFFFFFFFFFFFF
AFFFFFFFFFFFFFFFFF
AFFFFFFFFFFFFFFFFF
AFFFFFFFFFFFFFFFFF
000000000000000000
000000023000000000
0000008FFB00000000
000002FFFF60000000
000003FFFF70000000
000000CFFF60000000
00000019FF20000000
0000000BFA00000000
0000000AE200000000
000000001000000000
ENDCHAR
STARTCHAR lcommaaccent
ENCODING 316
SWIDTH 235 0
DWIDTH 8 0
BBX 6 37 1 -10
BITMAP
155553
3FFFFA
3FFFFA
3FFFFA
3FFFFA
3FFFFA
3FFFFA
3FFFFA
3FFFFA
3FFFFA
3FFFFA
3FFFFA
3FFFFA
3FFFFA
3FFFFA
3FFFFA
3FFFFA
3FFFFA
3FFFFA
3FFFFA
3FFFFA
3FFFFA
3FFFFA
3FFFFA
3FFFFA
3FFFFA
3FFFFA
000000
002300
07FFC1
1FFFF8
2FFFF9
0AFFF7
008FF4
009FC0
008E30
000100
ENDCHAR
STARTCHAR Lcaron
ENCODING 317
SWIDTH 562 0
DWIDTH 20 0
BBX 18 26 2 0
BITMAP
233331000220000000
AFFFF600AFF8000000
AFFFF605FFFF300000
AFFFF606FFFF400000
AFFFF601EFFF300000
AFFFF6002BFE000000
AFFFF6001DF8000000
AFFFF6002CC1000000
AFFFF6000010000000
AFFFF6000000000000
AFFFF6000000000000
AFFFF6000000000000
AFFFF6000000000000
AFFFF6000000000000
AFFFF6000000000000
AFFFF6000000000000
AFFFF6000000000000
AFFFF6000000000000
AFFFF6000000000000
AFFFF6000000000000
AFFFF6111111111111
AFFFFFFFFFFFFFFFFF
AFFFFFFFFFFFFFFFFF
AFFFFFFFFFFFFFFFFF
AFFFFFFFFFFFFFFFFF
AFFFFFFFFFFFFFFFFF
ENDCHAR
STARTCHAR lcaron
ENCODING 318
SWIDTH 369 0
DWIDTH 13 0
BBX 13 27 1 0
BITMAP
15555300000000
3FFFFA00022000
3FFFFA00BFF700
3FFFFA05FFFF20
3FFFFA07FFFF30
3FFFFA02EFFF20
3FFFFA002CFD00
3FFFFA001EF700
3FFFFA002DC100
3FFFFA00011000
3FFFFA00000000
3FFFFA00000000
3FFFFA00000000
3FFFFA00000000
3FFFFA00000000
3FFFFA00000000
3FFFFA00000000
3FFFFA00000000
3FFFFA00000000
3FFFFA00000000
3FFFFA00000000
3FFFFA00000000
3FFFFA00000000
3FFFFA00000000
3FFFFA00000000
3FFFFA00000000
3FFFFA00000000
ENDCHAR
STARTCHAR Ldot
ENCODING 319
SWIDTH 745 0
DWIDTH 27 0
BBX 24 26 2 0
BITMAP
233331000000000000000000
AFFFF6000000000000000000
AFFFF6000000000000000000
AFFFF6000000000000000000
AFFFF6000000000000000000
AFFFF6000000000000000000
AFFFF6000000000000000000
AFFFF6000000000000000000
AFFFF6000000000000000000
AFFFF6000000000000000000
AFFFF6000000000000278300
AFFFF6000000000003EFFF50
AFFFF600000000000AFFFFE0
AFFFF600000000000DFFFFF1
AFFFF600000000000AFFFFD0
AFFFF6000000000002DFFE40
AFFFF6000000000000145100
AFFFF6000000000000000000
AFFFF6000000000000000000
AFFFF6000000000000000000
AFFFF6111111111111000000
AFFFFFFFFFFFFFFFFF000000
AFFFFFFFFFFFFFFFFF000000
AFFFFFFFFFFFFFFFFF000000
AFFFFFFFFFFFFFFFFF000000
AFFFFFFFFFFFFFFFFF000000
ENDCHAR
STARTCHAR ldotaccent
ENCODING 320
SWIDTH 463 0
DWIDTH 17 0
BBX 14 27 1 0
BITMAP
15555300000000
3FFFFA00000000
3FFFFA00000000
3FFFFA00000000
3FFFFA00000000
3FFFFA00000000
3FFFFA00000000
3FFFFA00000000
3FFFFA00000000
3FFFFA00000000
3FFFFA00000000
3FFFFA00027720
3FFFFA004FFFF4
3FFFFA00CFFFFC
3FFFFA00EFFFFE
3FFFFA00BFFFFB
3FFFFA003DFFE3
3FFFFA00015510
3FFFFA00000000
3FFFFA00000000
3FFFFA00000000
3FFFFA00000000
3FFFFA00000000
3FFFFA00000000
3FFFFA00000000
3FFFFA00000000
3FFFFA00000000
ENDCHAR
STARTCHAR Lslash
ENCODING 321
SWIDTH 585 0
DWIDTH 21 0
BBX 21 26 0 0
BITMAP
0003333310000000000000
000CFFFF30000000000000
000CFFFF30000000000000
000CFFFF30000000000000
000CFFFF30000000000000
000CFFFF30000000000000
000CFFFF30000000000000
000CFFFF30000000000000
000CFFFF32A10000000000
000CFFFFBFF10000000000
000CFFFFFFF10000000000
000CFFFFFFF10000000000
006EFFFFFFF10000000000
5DFFFFFFFA200000000000
BFFFFFFF50000000000000
BFFFFFFF30000000000000
BFFFFFFF30000000000000
BD6DFFFF30000000000000
400CFFFF30000000000000
000CFFFF30000000000000
000CFFFF41111111111110
000CFFFFFFFFFFFFFFFFC0
000CFFFFFFFFFFFFFFFFC0
000CFFFFFFFFFFFFFFFFC0
000CFFFFFFFFFFFFFFFFC0
000CFFFFFFFFFFFFFFFFC0
ENDCHAR
STARTCHAR lslash
ENCODING 322
SWIDTH 319 0
DWIDTH 12 0
BBX 12 27 0 0
BITMAP
000455550000
000CFFFF1000
000CFFFF1000
000CFFFF1000
000CFFFF1000
000CFFFF1000
000CFFFF1000
000CFFFF1000
000CFFFF1000
000CFFFF12A2
000CFFFF9FF2
000CFFFFFFF2
000CFFFFFFF2
005EFFFFFFF2
4CFFFFFFFA20
AFFFFFFF4000
AFFFFFFF1000
AFFFFFFF1000
AE6CFFFF1000
410CFFFF1000
000CFFFF1000
000CFFFF1000
000CFFFF1000
000CFFFF1000
000CFFFF1000
000CFFFF1000
000CFFFF1000
ENDCHAR
STARTCHAR Nacute
ENCODING 323
SWIDTH 689 0
DWIDTH 25 0
BBX 21 33 2 0
BITMAP
0000000000003D20000000
000000000004EFC1000000
00000000005FFFFA000000
0000000006FFFFFE300000
000000005FFFFFB2000000
000000002EFFE500000000
0000000004F91000000000
2333320000200002333320
AFFFFF2000000008FFFF80
AFFFFFB000000008FFFF80
AFFFFFF500000008FFFF80
AFFFFFFD00000008FFFF80
AFFFFFFF70000008FFFF80
AFFFFFFFE2000008FFFF80
AFFFFFFFFA000008FFFF80
AFFFFFFFFF400008FFFF80
AFFFFDFFFFC00008FFFF80
AFFFF7EFFFF60008FFFF80
AFFFF66FFFFE1008FFFF80
AFFFF60CFFFF9008FFFF80
AFFFF603FFFFF308FFFF80
AFFFF6009FFFFB08FFFF80
AFFFF6001EFFFF58FFFF80
AFFFF60007FFFFD9FFFF80
AFFFF60000DFFFFEFFFF80
AFFFF600004FFFFFFFFF80
AFFFF600000BFFFFFFFF80
AFFFF6000002FFFFFFFF80
AFFFF60000008FFFFFFF80
AFFFF60000001DFFFFFF80
AFFFF600000005FFFFFF80
AFFFF600000000CFFFFF80
AFFFF6000000003FFFFF80
ENDCHAR
STARTCHAR nacute
ENCODING 324
SWIDTH 562 0
DWIDTH 20 0
BBX 18 28 1 0
BITMAP
0000000000008A0000
000000000009FF7000
0000000000AFFFF400
000000001BFFFFFB00
00000000BFFFFE7000
000000007FFFB20000
000000000AD5000000
000000000110000000
000000002310000000
2C4004BEFFFD810000
3FE4AFFFFFFFFE4000
3FFFFFFFFFFFFFF500
3FFFFFFFFFFFFFFF30
3FFFFFFFBADFFFFFB0
3FFFFFD30008FFFFF2
3FFFFF200000AFFFF7
3FFFFB0000004FFFF9
3FFFF90000002FFFFA
3FFFF90000002FFFFA
3FFFF90000002FFFFA
3FFFF90000002FFFFA
3FFFF90000002FFFFA
3FFFF90000002FFFFA
3FFFF90000002FFFFA
3FFFF90000002FFFFA
3FFFF90000002FFFFA
3FFFF90000002FFFFA
3FFFF90000002FFFFA
ENDCHAR
STARTCHAR Ncommaaccent
ENCODING 325
SWIDTH 689 0
DWIDTH 25 0
BBX 21 36 2 -10
BITMAP
2333320000000002333320
AFFFFF2000000008FFFF80
AFFFFFB000000008FFFF80
AFFFFFF500000008FFFF80
AFFFFFFD00000008FFFF80
AFFFFFFF70000008FFFF80
AFFFFFFFE2000008FFFF80
AFFFFFFFFA000008FFFF80
AFFFFFFFFF400008FFFF80
AFFFFDFFFFC00008FFFF80
AFFFF7EFFFF60008FFFF80
AFFFF66FFFFE1008FFFF80
AFFFF60CFFFF9008FFFF80
AFFFF603FFFFF308FFFF80
AFFFF6009FFFFB08FFFF80
AFFFF6001EFFFF58FFFF80
AFFFF60007FFFFD9FFFF80
AFFFF60000DFFFFEFFFF80
AFFFF600004FFFFFFFFF80
AFFFF600000BFFFFFFFF80
AFFFF6000002FFFFFFFF80
AFFFF60000008FFFFFFF80
AFFFF60000001DFFFFFF80
AFFFF600000005FFFFFF80
AFFFF600000000CFFFFF80
AFFFF6000000003FFFFF80
0000000000000000000000
0000000001310000000000
000000004EFE3000000000
00000000DFFFA000000000
00000000EFFFC000000000
000000007FFFA000000000
0000000005FF6000000000
0000000006FE1000000000
0000000006E50000000000
0000000000100000000000
ENDCHAR
STARTCHAR ncommaaccent
ENCODING 326
SWIDTH 562 0
DWIDTH 20 0
BBX 18 30 1 -10
BITMAP
000000002310000000
2C4004BEFFFD810000
3FE4AFFFFFFFFE4000
3FFFFFFFFFFFFFF500
3FFFFFFFFFFFFFFF30
3FFFFFFFBADFFFFFB0
3FFFFFD30008FFFFF2
3FFFFF200000AFFFF7
3FFFFB0000004FFFF9
3FFFF90000002FFFFA
3FFFF90000002FFFFA
3FFFF90000002FFFFA
3FFFF90000002FFFFA
3FFFF90000002FFFFA
3FFFF90000002FFFFA
3FFFF90000002FFFFA
3FFFF90000002FFFFA
3FFFF90000002FFFFA
3FFFF90000002FFFFA
3FFFF90000002FFFFA
000000000000000000
000000002300000000
00000008FFB0000000
0000002FFFF6000000
0000003FFFF7000000
0000000CFFF6000000
000000019FF2000000
00000000BFA0000000
00000000AE20000000
000000000100000000
ENDCHAR
STARTCHAR Ncaron
ENCODING 327
SWIDTH 689 0
DWIDTH 25 0
BBX 21 34 2 0
BITMAP
0000000200001100000000
0000003E9001CB00000000
000001DFFA2CFFA0000000
000002DFFFFFFFB0000000
0000001CFFFFFA00000000
00000001BFFFA000000000
0000000009F90000000000
0000000000500000000000
2333320000000002333320
AFFFFF2000000008FFFF80
AFFFFFB000000008FFFF80
AFFFFFF500000008FFFF80
AFFFFFFD00000008FFFF80
AFFFFFFF70000008FFFF80
AFFFFFFFE2000008FFFF80
AFFFFFFFFA000008FFFF80
AFFFFFFFFF400008FFFF80
AFFFFDFFFFC00008FFFF80
AFFFF7EFFFF60008FFFF80
AFFFF66FFFFE1008FFFF80
AFFFF60CFFFF9008FFFF80
AFFFF603FFFFF308FFFF80
AFFFF6009FFFFB08FFFF80
AFFFF6001EFFFF58FFFF80
AFFFF60007FFFFD9FFFF80
AFFFF60000DFFFFEFFFF80
AFFFF600004FFFFFFFFF80
AFFFF600000BFFFFFFFF80
AFFFF6000002FFFFFFFF80
AFFFF60000008FFFFFFF80
AFFFF60000001DFFFFFF80
AFFFF600000005FFFFFF80
AFFFF600000000CFFFFF80
AFFFF6000000003FFFFF80
ENDCHAR
STARTCHAR ncaron
ENCODING 328
SWIDTH 562 0
DWIDTH 20 0
BBX 18 28 1 0
BITMAP
000000200001000000
000007F5003E700000
00004FFF64EFF60000
00004EFFFFFFF70000
000003EFFFFF600000
0000002DFFF6000000
00000002DF50000000
000000001400000000
000000002310000000
2C4004BEFFFD810000
3FE4AFFFFFFFFE4000
3FFFFFFFFFFFFFF500
3FFFFFFFFFFFFFFF30
3FFFFFFFBADFFFFFB0
3FFFFFD30008FFFFF2
3FFFFF200000AFFFF7
3FFFFB0000004FFFF9
3FFFF90000002FFFFA
3FFFF90000002FFFFA
3FFFF90000002FFFFA
3FFFF90000002FFFFA
3FFFF90000002FFFFA
3FFFF90000002FFFFA
3FFFF90000002FFFFA
3FFFF90000002FFFFA
3FFFF90000002FFFFA
3FFFF90000002FFFFA
3FFFF90000002FFFFA
ENDCHAR
STARTCHAR napostrophe
ENCODING 329
SWIDTH 694 0
DWIDTH 25 0
BBX 24 26 0 0
BITMAP
013000000000000000000000
4EFD20000000000000000000
DFFF90000000000000000000
EFFFB0000000000000000000
8FFFA0000000000000000000
06FF60000000000000000000
07FE10000000012210000000
07F5005C2006CFFFFC600000
0010006FD3CFFFFFFFFD2000
0000006FFFFFFFFFFFFFE300
0000006FFFFFFFFFFFFFFD10
0000006FFFFFFEBAEFFFFF80
0000006FFFFFB1001AFFFFE0
0000006FFFFD100000DFFFF3
0000006FFFF80000007FFFF5
0000006FFFF60000005FFFF7
0000006FFFF60000005FFFF7
0000006FFFF60000005FFFF7
0000006FFFF60000005FFFF7
0000006FFFF60000005FFFF7
0000006FFFF60000005FFFF7
0000006FFFF60000005FFFF7
0000006FFFF60000005FFFF7
0000006FFFF60000005FFFF7
0000006FFFF60000005FFFF7
0000006FFFF60000005FFFF7
ENDCHAR
STARTCHAR Eng
ENCODING 330
SWIDTH 689 0
DWIDTH 25 0
BBX 21 34 2 -8
BITMAP
2333320000000002333320
AFFFFF2000000008FFFF80
AFFFFFB000000008FFFF80
AFFFFFF500000008FFFF80
AFFFFFFD00000008FFFF80
AFFFFFFF70000008FFFF80
AFFFFFFFE2000008FFFF80
AFFFFFFFFA000008FFFF80
AFFFFFFFFF400008FFFF80
AFFFFDFFFFC00008FFFF80
AFFFF7EFFFF60008FFFF80
AFFFF66FFFFE1008FFFF80
AFFFF60CFFFF9008FFFF80
AFFFF603FFFFF308FFFF80
AFFFF600AFFFFB08FFFF80
AFFFF6002EFFFF58FFFF80
AFFFF60007FFFFD9FFFF80
AFFFF60000DFFFFEFFFF80
AFFFF600005FFFFFFFFF80
AFFFF600000BFFFFFFFF80
AFFFF6000002FFFFFFFF80
AFFFF60000008FFFFFFF80
AFFFF60000001EFFFFFF80
AFFFF600000006FFFFFF70
AFFFF600000000CFFFFF50
AFFFF6000000005FFFFF30
00000000000001DFFFFD00
0000000140005DFFFFF700
00000002FEDFFFFFFFD000
00000002FFFFFFFFFF3000
00000002FFFFFFFFE40000
00000002FFFFFFFC300000
00000001FFFFEA50000000
0000000002320000000000
ENDCHAR
STARTCHAR eng
ENCODING 331
SWIDTH 562 0
DWIDTH 20 0
BBX 18 28 1 -8
BITMAP
000000002310000000
2C4004BEFFFD810000
3FE4AFFFFFFFFE4000
3FFFFFFFFFFFFFF500
3FFFFFFFFFFFFFFF30
3FFFFFFFBADFFFFFB0
3FFFFFD30008FFFFF2
3FFFFF200000AFFFF7
3FFFFB0000004FFFF9
3FFFF90000002FFFFA
3FFFF90000002FFFFA
3FFFF90000002FFFFA
3FFFF90000002FFFFA
3FFFF90000002FFFFA
3FFFF90000003FFFFA
3FFFF90000003FFFFA
3FFFF90000003FFFFA
3FFFF90000003FFFFA
3FFFF90000004FFFF8
3FFFF90000009FFFF7
000000000003FFFFF2
00000000005EFFFFC0
000004A9ADFFFFFF40
000006FFFFFFFFF800
000006FFFFFFFF9000
000006FFFFFFE60000
000006FFFFC7100000
000001332000000000
ENDCHAR
STARTCHAR Omacron
ENCODING 332
SWIDTH 777 0
DWIDTH 28 0
BBX 26 32 1 -1
BITMAP
000000007FFFFFFFF600000000
000000007FFFFFFFF700000000
000000007FFFFFFFF700000000
000000005BBBBBBBB500000000
00000000000000000000000000
00000000014677641000000000
00000004AFFFFFFFFB40000000
000002BFFFFFFFFFFFFC200000
00005EFFFFFFFFFFFFFFF50000
0006FFFFFFFFFFFFFFFFFF6000
004FFFFFFFEA88AEFFFFFFF400
01DFFFFFD50000005DFFFFFE10
08FFFFFA1000000001AFFFFF80
1EFFFFB000000000000BFFFFE1
6FFFFF20000000000002FFFFF6
AFFFF9000000000000009FFFFA
DFFFF4000000000000004FFFFD
FFFFF1000000000000001FFFFE
FFFFF0000000000000000FFFFF
FFFFF1000000000000001FFFFE
DFFFF4000000000000004FFFFD
AFFFF9000000000000009FFFFA
6FFFFF20000000000002FFFFF6
1EFFFFC000000000000CFFFFE1
08FFFFFB1000000001BFFFFF80
01DFFFFFD50000005DFFFFFE10
004FFFFFFFEA88AEFFFFFFF400
0006FFFFFFFFFFFFFFFFFF6000
00005FFFFFFFFFFFFFFFF50000
000002CFFFFFFFFFFFFC300000
00000004BFFFFFFFFB50000000
00000000014788741000000000
ENDCHAR
STARTCHAR omacron
ENCODING 333
SWIDTH 579 0
DWIDTH 21 0
BBX 20 26 0 -1
BITMAP
000000FFFFFFFFD00000
000000FFFFFFFFD00000
000000FFFFFFFFD00000
000000BBBBBBBBA00000
00000000000000000000
00000001578751000000
000002AFFFFFFFA20000
00007FFFFFFFFFFF6000
0008FFFFFFFFFFFFF700
005FFFFFFFFFFFFFFF40
01EFFFFFB657CFFFFFC0
07FFFFF5000007FFFFF4
0BFFFF70000000AFFFF9
0FFFFE100000002FFFFD
2FFFFB000000000EFFFE
3FFFFA000000000DFFFF
2FFFFC000000000EFFFE
0FFFFF100000003FFFFC
0BFFFF90000000BFFFF8
05FFFFF800001AFFFFF3
00DFFFFFD979EFFFFFA0
003FFFFFFFFFFFFFFE20
0005FFFFFFFFFFFFE300
00004EFFFFFFFFFC2000
0000017DFFFFFC600000
00000000245420000000
ENDCHAR
STARTCHAR Obreve
ENCODING 334
SWIDTH 777 0
DWIDTH 28 0
BBX 26 34 1 -1
BITMAP
00000000046621665000000000
000000000DFF51FFE000000000
000000000CFFB9FFF000000000
0000000007FFFFFFB000000000
0000000000BFFFFE2000000000
00000000000489610000000000
00000000000000000000000000
00000000014677641000000000
00000004AFFFFFFFFB40000000
000002BFFFFFFFFFFFFC200000
00005EFFFFFFFFFFFFFFF50000
0006FFFFFFFFFFFFFFFFFF6000
004FFFFFFFEA88AEFFFFFFF400
01DFFFFFD50000005DFFFFFE10
08FFFFFA1000000001AFFFFF80
1EFFFFB000000000000BFFFFE1
6FFFFF20000000000002FFFFF6
AFFFF9000000000000009FFFFA
DFFFF4000000000000004FFFFD
FFFFF1000000000000001FFFFE
FFFFF0000000000000000FFFFF
FFFFF1000000000000001FFFFE
DFFFF4000000000000004FFFFD
AFFFF9000000000000009FFFFA
6FFFFF20000000000002FFFFF6
1EFFFFC000000000000CFFFFE1
08FFFFFB1000000001BFFFFF80
01DFFFFFD50000005DFFFFFE10
004FFFFFFFEA88AEFFFFFFF400
0006FFFFFFFFFFFFFFFFFF6000
00005FFFFFFFFFFFFFFFF50000
000002CFFFFFFFFFFFFC300000
00000004BFFFFFFFFB50000000
00000000014788741000000000
ENDCHAR
STARTCHAR obreve
ENCODING 335
SWIDTH 579 0
DWIDTH 21 0
BBX 20 28 0 -1
BITMAP
00000026650566100000
0000007FFB0AFF500000
0000006FFE7EFF600000
0000002EFFFFFF300000
00000005FFFFF7000000
00000000279830000000
00000000000000000000
00000001578751000000
000002AFFFFFFFA20000
00007FFFFFFFFFFF6000
0008FFFFFFFFFFFFF700
005FFFFFFFFFFFFFFF40
01EFFFFFB657CFFFFFC0
07FFFFF5000007FFFFF4
0BFFFF70000000AFFFF9
0FFFFE100000002FFFFD
2FFFFB000000000EFFFE
3FFFFA000000000DFFFF
2FFFFC000000000EFFFE
0FFFFF100000003FFFFC
0BFFFF90000000BFFFF8
05FFFFF800001AFFFFF3
00DFFFFFD979EFFFFFA0
003FFFFFFFFFFFFFFE20
0005FFFFFFFFFFFFE300
00004EFFFFFFFFFC2000
0000017DFFFFFC600000
00000000245420000000
ENDCHAR
STARTCHAR Ohungarumlaut
ENCODING 336
SWIDTH 777 0
DWIDTH 28 0
BBX 26 36 1 -1
BITMAP
000000000004A0000000000000
00000000002EFB1005C1000000
0000000000CFFFC13EFD200000
0000000008FFFFE4DFFFD20000
000000005FFFFD2AFFFFD30000
00000001EFFFC16FFFFC100000
000000007FFA11EFFFB1000000
000000000790003EF900000000
00000000000000036000000000
00000000014677641000000000
00000004AFFFFFFFFB40000000
000002BFFFFFFFFFFFFC200000
00005EFFFFFFFFFFFFFFF50000
0006FFFFFFFFFFFFFFFFFF6000
004FFFFFFFEA88AEFFFFFFF400
01DFFFFFD50000005DFFFFFE10
08FFFFFA1000000001AFFFFF80
1EFFFFB000000000000BFFFFE1
6FFFFF20000000000002FFFFF6
AFFFF9000000000000009FFFFA
DFFFF4000000000000004FFFFD
FFFFF1000000000000001FFFFE
FFFFF0000000000000000FFFFF
FFFFF1000000000000001FFFFE
DFFFF4000000000000004FFFFD
AFFFF9000000000000009FFFFA
6FFFFF20000000000002FFFFF6
1EFFFFC000000000000CFFFFE1
08FFFFFB1000000001BFFFFF80
01DFFFFFD50000005DFFFFFE10
004FFFFFFFEA88AEFFFFFFF400
0006FFFFFFFFFFFFFFFFFF6000
00005FFFFFFFFFFFFFFFF50000
000002CFFFFFFFFFFFFC300000
00000004BFFFFFFFFB50000000
00000000014788741000000000
ENDCHAR
STARTCHAR ohungarumlaut
ENCODING 337
SWIDTH 579 0
DWIDTH 21 0
BBX 20 29 0 -1
BITMAP
000000000A4000000000
000000008FF5000C6000
00000004FFFF609FF800
0000002EFFFFA5FFFF90
000000BFFFF83EFFFF90
000007FFFF71DFFFF700
000001CFE506FFFF5000
0000001B30009FE30000
00000001578758200000
000002AFFFFFFFA20000
00007FFFFFFFFFFF6000
0008FFFFFFFFFFFFF700
005FFFFFFFFFFFFFFF40
01EFFFFFB657CFFFFFC0
07FFFFF5000007FFFFF4
0BFFFF70000000AFFFF9
0FFFFE100000002FFFFD
2FFFFB000000000EFFFE
3FFFFA000000000DFFFF
2FFFFC000000000EFFFE
0FFFFF100000003FFFFC
0BFFFF90000000BFFFF8
05FFFFF800001AFFFFF3
00DFFFFFD979EFFFFFA0
003FFFFFFFFFFFFFFE20
0005FFFFFFFFFFFFE300
00004EFFFFFFFFFC2000
0000017DFFFFFC600000
00000000245420000000
ENDCHAR
STARTCHAR OE
ENCODING 338
SWIDTH 1125 0
DWIDTH 41 0
BBX 39 27 1 -1
BITMAP
0000000001467764000003333333333333333310
00000004AFFFFFFFFA400EFFFFFFFFFFFFFFFF50
000002BFFFFFFFFFFFFB2EFFFFFFFFFFFFFFFF50
00005EFFFFFFFFFFFFFFEFFFFFFFFFFFFFFFFF50
0006FFFFFFFFFFFFFFFFFFFFFFFFFFFFFFFFFF50
004FFFFFFFEA88AEFFFFFFFFFFDDDDDDDDDDDD40
01DFFFFFD50000005DFFFFFFFF20000000000000
08FFFFFA1000000001AFFFFFFF20000000000000
1EFFFFB000000000000BFFFFFF20000000000000
6FFFFF20000000000002FFFFFF20000000000000
AFFFF9000000000000009FFFFF32222222100000
DFFFF4000000000000004FFFFFFFFFFFFF600000
FFFFF1000000000000001FFFFFFFFFFFFF600000
FFFFF0000000000000000FFFFFFFFFFFFF600000
FFFFF1000000000000001FFFFFFFFFFFFF600000
DFFFF4000000000000004FFFFFEEEEEEEE500000
AFFFF9000000000000009FFFFF20000000000000
6FFFFF20000000000002FFFFFF20000000000000
1EFFFFC000000000000CFFFFFF20000000000000
08FFFFFB1000000001BFFFFFFF20000000000000
01DFFFFFD50000005DFFFFFFFF21111111111100
004FFFFFFFEA88AEFFFFFFFFFFFFFFFFFFFFFF50
0006FFFFFFFFFFFFFFFFFFFFFFFFFFFFFFFFFF50
00005FFFFFFFFFFFFFFFFFFFFFFFFFFFFFFFFF50
000002CFFFFFFFFFFFFC2EFFFFFFFFFFFFFFFF50
00000004BFFFFFFFFB400EFFFFFFFFFFFFFFFF50
0000000001478864100000000000000000000000
ENDCHAR
STARTCHAR oe
ENCODING 339
SWIDTH 924 0
DWIDTH 33 0
BBX 33 21 0 -1
BITMAP
0000000157875100000000468862000000
000002AFFFFFFFA200018EFFFFFFB40000
00007FFFFFFFFFFE603DFFFFFFFFFF9100
0008FFFFFFFFFFFFF9EFFFFFFFFFFFFB00
005FFFFFFFFFFFFFFFFFFFFFFFFFFFFF80
01EFFFFFB657CFFFFFFFFFD856FFFFFD10
07FFFFF5000007FFFFFFFA1009FFFFE200
0BFFFF70000000AFFFFFD0005FFFFF4000
0FFFFE100000002FFFFF6002EFFFF70000
2FFFFB000000000EFFFF300CFFFF900000
3FFFFA000000000DFFFF209FFFFC000000
2FFFFC000000000EFFFF35FFFFD1000000
0FFFFF100000003FFFFF8EFFFE30010000
0BFFFF90000000BFFFFFFFFFF5005C1000
05FFFFF800001AFFFFFFFFFF7005EFC100
00DFFFFFD979EFFFFFFFFFFE78CFFFFC10
003FFFFFFFFFFFFFFFFFFFFFFFFFFFFF60
0005FFFFFFFFFFFFE5DFFFFFFFFFFFF900
00004EFFFFFFFFFC301BFFFFFFFFFE7000
0000017DFFFFFC6000005BFFFFFE920000
0000000024542000000000135530000000
ENDCHAR
STARTCHAR Racute
ENCODING 340
SWIDTH 651 0
DWIDTH 23 0
BBX 21 34 2 0
BITMAP
000000000002D400000000
00000000003EFE10000000
0000000004EFFFC0000000
000000004EFFFFF4000000
00000004FFFFFC30000000
00000001DFFE6000000000
000000003FA10000000000
0000000002000000000000
2333333333320000000000
AFFFFFFFFFFFEB50000000
AFFFFFFFFFFFFFFC300000
AFFFFFFFFFFFFFFFE40000
AFFFFFFFFFFFFFFFFF3000
AFFFFEDDDDDEFFFFFFD100
AFFFF60000005DFFFFF700
AFFFF600000001CFFFFD00
AFFFF6000000003FFFFF30
AFFFF6000000000BFFFF60
AFFFF60000000009FFFF70
AFFFF60000000009FFFF70
AFFFF6000000000DFFFF50
AFFFF6000000005FFFFF20
AFFFF600000003EFFFFC00
AFFFF71111138FFFFFF500
AFFFFFFFFFFFFFFFFFB000
AFFFFFFFFFFFFFFFFD2000
AFFFFFFFFFFFFFFFC20000
AFFFFFFFFFFFFFFE100000
AFFFFFEEEEEFFFFF400000
AFFFF600000BFFFFA00000
AFFFF6000004FFFFF20000
AFFFF6000000DFFFF80000
AFFFF60000006FFFFE0000
AFFFF60000001EFFFF6000
ENDCHAR
STARTCHAR racute
ENCODING 341
SWIDTH 414 0
DWIDTH 15 0
BBX 14 28 1 0
BITMAP
0000000009A000
00000000AFF700
0000000BFFFF40
000001BFFFFFB0
00000CFFFFE700
000007FFFA2000
000000BD500000
00000011000000
00000000000000
2C300049BCCCC6
3FD14DFFFFFFF8
3FFDFFFFFFFFF8
3FFFFFFFFFFFF8
3FFFFFFFFFFFF7
3FFFFFF7100000
3FFFFF60000000
3FFFFC00000000
3FFFFA00000000
3FFFF900000000
3FFFF900000000
3FFFF900000000
3FFFF900000000
3FFFF900000000
3FFFF900000000
3FFFF900000000
3FFFF900000000
3FFFF900000000
3FFFF900000000
ENDCHAR
STARTCHAR Rcommaaccent
ENCODING 342
SWIDTH 651 0
DWIDTH 23 0
BBX 21 36 2 -10
BITMAP
2333333333320000000000
AFFFFFFFFFFFEB50000000
AFFFFFFFFFFFFFFC300000
AFFFFFFFFFFFFFFFE40000
AFFFFFFFFFFFFFFFFF3000
AFFFFEDDDDDEFFFFFFD100
AFFFF60000005DFFFFF700
AFFFF600000001CFFFFD00
AFFFF6000000003FFFFF30
AFFFF6000000000BFFFF60
AFFFF60000000009FFFF70
AFFFF60000000009FFFF70
AFFFF6000000000DFFFF50
AFFFF6000000005FFFFF20
AFFFF600000003EFFFFC00
AFFFF71111138FFFFFF500
AFFFFFFFFFFFFFFFFFB000
AFFFFFFFFFFFFFFFFD2000
AFFFFFFFFFFFFFFFC20000
AFFFFFFFFFFFFFFE100000
AFFFFFEEEEEFFFFF400000
AFFFF600000BFFFFA00000
AFFFF6000004FFFFF20000
AFFFF6000000DFFFF80000
AFFFF60000006FFFFE0000
AFFFF60000001EFFFF6000
0000000000000000000000
0000000003200000000000
00000001DFF60000000000
00000008FFFF1000000000
00000009FFFF2000000000
00000003FFFF0000000000
000000002DFB0000000000
000000002FF50000000000
000000003DA00000000000
0000000001000000000000
ENDCHAR
STARTCHAR rcommaaccent
ENCODING 343
SWIDTH 414 0
DWIDTH 15 0
BBX 14 29 1 -10
BITMAP
2C300049BCCCC6
3FD14DFFFFFFF8
3FFDFFFFFFFFF8
3FFFFFFFFFFFF8
3FFFFFFFFFFFF7
3FFFFFF7100000
3FFFFF60000000
3FFFFC00000000
3FFFFA00000000
3FFFF900000000
3FFFF900000000
3FFFF900000000
3FFFF900000000
3FFFF900000000
3FFFF900000000
3FFFF900000000
3FFFF900000000
3FFFF900000000
3FFFF900000000
00000000000000
00230000000000
08FFC100000000
2FFFF600000000
3FFFF800000000
0BFFF600000000
019FF200000000
00AFB000000000
00AE2000000000
00010000000000
ENDCHAR
STARTCHAR Rcaron
ENCODING 344
SWIDTH 651 0
DWIDTH 23 0
BBX 21 34 2 0
BITMAP
0000002100001000000000
000000CC1008E200000000
000009FFD29FFD20000000
000009FFFFFFFD20000000
0000008FFFFFD200000000
00000007FFFD2000000000
000000005FD20000000000
0000000004100000000000
2333333333320000000000
AFFFFFFFFFFFEB50000000
AFFFFFFFFFFFFFFC300000
AFFFFFFFFFFFFFFFE40000
AFFFFFFFFFFFFFFFFF3000
AFFFFEDDDDDEFFFFFFD100
AFFFF60000005DFFFFF700
AFFFF600000001CFFFFD00
AFFFF6000000003FFFFF30
AFFFF6000000000BFFFF60
AFFFF60000000009FFFF70
AFFFF60000000009FFFF70
AFFFF6000000000DFFFF50
AFFFF6000000005FFFFF20
AFFFF600000003EFFFFC00
AFFFF71111138FFFFFF500
AFFFFFFFFFFFFFFFFFB000
AFFFFFFFFFFFFFFFFD2000
AFFFFFFFFFFFFFFFC20000
AFFFFFFFFFFFFFFE100000
AFFFFFEEEEEFFFFF400000
AFFFF600000BFFFFA00000
AFFFF6000004FFFFF20000
AFFFF6000000DFFFF80000
AFFFF60000006FFFFE0000
AFFFF60000001EFFFF6000
ENDCHAR
STARTCHAR rcaron
ENCODING 345
SWIDTH 414 0
DWIDTH 15 0
BBX 14 28 1 0
BITMAP
00020000010000
002E9001BC1000
01DFFB2CFFB000
01CFFFFFFFB100
001BFFFFFB1000
0000AFFFA00000
000009FA000000
00000050000000
00000000000000
2C300049BCCCC6
3FD14DFFFFFFF8
3FFDFFFFFFFFF8
3FFFFFFFFFFFF8
3FFFFFFFFFFFF7
3FFFFFF7100000
3FFFFF60000000
3FFFFC00000000
3FFFFA00000000
3FFFF900000000
3FFFF900000000
3FFFF900000000
3FFFF900000000
3FFFF900000000
3FFFF900000000
3FFFF900000000
3FFFF900000000
3FFFF900000000
3FFFF900000000
ENDCHAR
STARTCHAR Sacute
ENCODING 346
SWIDTH 610 0
DWIDTH 22 0
BBX 21 34 0 0
BITMAP
00000000000002D4000000
0000000000003EFE100000
000000000004EFFFC00000
00000000004EFFFFF40000
0000000004FFFFFC300000
0000000001DFFE60000000
00000000003FA100000000
0000000000020000000000
0000000233333333333300
000029EFFFFFFFFFFFFF00
0005EFFFFFFFFFFFFFFF00
005FFFFFFFFFFFFFFFFF00
01EFFFFFFFFFFFFFFFFF00
08FFFFFFDDDDDDDDDDDC00
0DFFFFB100000000000000
1FFFFF2000000000000000
2FFFFE0000000000000000
0FFFFF3000000000000000
0CFFFFD522222200000000
06FFFFFFFFFFFFFC710000
00DFFFFFFFFFFFFFFD3000
002EFFFFFFFFFFFFFFE300
0002CFFFFFFFFFFFFFFD00
000005ADEEEEEEFFFFFF60
000000000000003DFFFFB0
0000000000000004FFFFE0
0000000000000001FFFFF0
0000000000000005FFFFE0
000111111111115EFFFFB0
00BFFFFFFFFFFFFFFFFF50
00BFFFFFFFFFFFFFFFFC00
00BFFFFFFFFFFFFFFFE200
00BFFFFFFFFFFFFFFC2000
00BFFFFFFFFFFFEA500000
ENDCHAR
STARTCHAR sacute
ENCODING 347
SWIDTH 523 0
DWIDTH 19 0
BBX 18 28 1 0
BITMAP
000000000006C10000
00000000007FFA0000
0000000008FFFF6000
000000009FFFFFD100
00000009FFFFF91000
00000004FFFC300000
000000008E70000000
000000000200000000
000000000000000000
00028BCCCCCCCCCB00
008FFFFFFFFFFFFD00
08FFFFFFFFFFFFFD00
2FFFFFFFFFFFFFFD00
8FFFFFFFFFFFFFFD00
BFFFF4000000000000
BFFFF1000000000000
AFFFFC999998620000
5FFFFFFFFFFFFFA100
0CFFFFFFFFFFFFFC10
02DFFFFFFFFFFFFF70
0018EFFFFFFFFFFFD0
000002333334DFFFF1
000000000000CFFFF1
9CCCCCCCCCCDFFFFE0
CFFFFFFFFFFFFFFF80
CFFFFFFFFFFFFFFD10
CFFFFFFFFFFFFFD300
CFFFFFFFFFFFC71000
ENDCHAR
STARTCHAR Scircumflex
ENCODING 348
SWIDTH 610 0
DWIDTH 22 0
BBX 21 33 0 0
BITMAP
0000000000980000000000
000000000AFF9000000000
00000001BFFFFA00000000
0000001CFFFFFFB1000000
0000009FFFCCFFF9000000
0000001CFB11BFD1000000
0000000190000930000000
0000000233333333333300
000029EFFFFFFFFFFFFF00
0005EFFFFFFFFFFFFFFF00
005FFFFFFFFFFFFFFFFF00
01EFFFFFFFFFFFFFFFFF00
08FFFFFFDDDDDDDDDDDC00
0DFFFFB100000000000000
1FFFFF2000000000000000
2FFFFE0000000000000000
0FFFFF3000000000000000
0CFFFFD522222200000000
06FFFFFFFFFFFFFC710000
00DFFFFFFFFFFFFFFD3000
002EFFFFFFFFFFFFFFE300
0002CFFFFFFFFFFFFFFD00
000005ADEEEEEEFFFFFF60
000000000000003DFFFFB0
0000000000000004FFFFE0
0000000000000001FFFFF0
0000000000000005FFFFE0
000111111111115EFFFFB0
00BFFFFFFFFFFFFFFFFF50
00BFFFFFFFFFFFFFFFFC00
00BFFFFFFFFFFFFFFFE200
00BFFFFFFFFFFFFFFC2000
00BFFFFFFFFFFFEA500000
ENDCHAR
STARTCHAR scircumflex
ENCODING 349
SWIDTH 523 0
DWIDTH 19 0
BBX 18 27 1 0
BITMAP
00000004C200000000
0000005FFD20000000
000005FFFFE3000000
00006FFFFFFE400000
0002FFFF9FFFE10000
00007FE405FF500000
000008300048000000
000000000000000000
00028BCCCCCCCCCB00
008FFFFFFFFFFFFD00
08FFFFFFFFFFFFFD00
2FFFFFFFFFFFFFFD00
8FFFFFFFFFFFFFFD00
BFFFF4000000000000
BFFFF1000000000000
AFFFFC999998620000
5FFFFFFFFFFFFFA100
0CFFFFFFFFFFFFFC10
02DFFFFFFFFFFFFF70
0018EFFFFFFFFFFFD0
000002333334DFFFF1
000000000000CFFFF1
9CCCCCCCCCCDFFFFE0
CFFFFFFFFFFFFFFF80
CFFFFFFFFFFFFFFD10
CFFFFFFFFFFFFFD300
CFFFFFFFFFFFC71000
ENDCHAR
STARTCHAR Scedilla
ENCODING 350
SWIDTH 610 0
DWIDTH 22 0
BBX 21 35 0 -9
BITMAP
0000000233333333333300
000029EFFFFFFFFFFFFF00
0005EFFFFFFFFFFFFFFF00
005FFFFFFFFFFFFFFFFF00
01EFFFFFFFFFFFFFFFFF00
08FFFFFFDDDDDDDDDDDC00
0DFFFFB100000000000000
1FFFFF2000000000000000
2FFFFE0000000000000000
0FFFFF3000000000000000
0CFFFFD522222200000000
06FFFFFFFFFFFFFC710000
00DFFFFFFFFFFFFFFD3000
002EFFFFFFFFFFFFFFE300
0002CFFFFFFFFFFFFFFD00
000005ADEEEEEEFFFFFF60
000000000000003DFFFFB0
0000000000000004FFFFE0
0000000000000001FFFFF0
0000000000000005FFFFE0
000111111111115EFFFFB0
00BFFFFFFFFFFFFFFFFF50
00BFFFFFFFFFFFFFFFFC00
00BFFFFFFFFFFFFFFFE200
00BFFFFFFFFFFFFFFC2000
00BFFFFFFFFFFFEA500000
0000000000CF5000000000
0000000002FF8100000000
0000000008FFFE20000000
00000000045EFF80000000
00000000B41DFFB0000000
00000005FFFFFF90000000
00000009FFFFFE20000000
000000007DFFB300000000
0000000000100000000000
ENDCHAR
STARTCHAR scedilla
ENCODING 351
SWIDTH 523 0
DWIDTH 19 0
BBX 18 28 1 -9
BITMAP
00028BCCCCCCCCCB00
008FFFFFFFFFFFFD00
08FFFFFFFFFFFFFD00
2FFFFFFFFFFFFFFD00
8FFFFFFFFFFFFFFD00
BFFFF4000000000000
BFFFF1000000000000
AFFFFC999998620000
5FFFFFFFFFFFFFA100
0CFFFFFFFFFFFFFC10
02DFFFFFFFFFFFFF70
0018EFFFFFFFFFFFD0
000002333334DFFFF1
000000000000CFFFF1
9CCCCCCCCCCDFFFFE0
CFFFFFFFFFFFFFFF80
CFFFFFFFFFFFFFFD10
CFFFFFFFFFFFFFD300
CFFFFFFFFFFFC71000
00000005FC00000000
0000000BFC40000000
0000001FFFF7000000
00000024AFFF000000
000007716FFF200000
00000DFFFFFF100000
00002FFFFFF8000000
000003BFFE70000000
000000001000000000
ENDCHAR
STARTCHAR Scaron
ENCODING 352
SWIDTH 610 0
DWIDTH 22 0
BBX 21 34 0 0
BITMAP
0000000020000100000000
00000009E3005E50000000
0000006FFE46FFF4000000
0000006FFFFFFFF5000000
00000005FFFFFE40000000
000000004EFFE400000000
0000000003EE3000000000
0000000000230000000000
0000000233333333333300
000029EFFFFFFFFFFFFF00
0005EFFFFFFFFFFFFFFF00
005FFFFFFFFFFFFFFFFF00
01EFFFFFFFFFFFFFFFFF00
08FFFFFFDDDDDDDDDDDC00
0DFFFFB100000000000000
1FFFFF2000000000000000
2FFFFE0000000000000000
0FFFFF3000000000000000
0CFFFFD522222200000000
06FFFFFFFFFFFFFC710000
00DFFFFFFFFFFFFFFD3000
002EFFFFFFFFFFFFFFE300
0002CFFFFFFFFFFFFFFD00
000005ADEEEEEEFFFFFF60
000000000000003DFFFFB0
0000000000000004FFFFE0
0000000000000001FFFFF0
0000000000000005FFFFE0
000111111111115EFFFFB0
00BFFFFFFFFFFFFFFFFF50
00BFFFFFFFFFFFFFFFFC00
00BFFFFFFFFFFFFFFFE200
00BFFFFFFFFFFFFFFC2000
00BFFFFFFFFFFFEA500000
ENDCHAR
STARTCHAR scaron
ENCODING 353
SWIDTH 523 0
DWIDTH 19 0
BBX 18 28 1 0
BITMAP
000001200001000000
00000AD2006E400000
00007FFE37FFE30000
00007FFFFFFFE40000
000006FFFFFE300000
0000005FFFE3000000
00000004EE30000000
000000003200000000
000000000000000000
00028BCCCCCCCCCB00
008FFFFFFFFFFFFD00
08FFFFFFFFFFFFFD00
2FFFFFFFFFFFFFFD00
8FFFFFFFFFFFFFFD00
BFFFF4000000000000
BFFFF1000000000000
AFFFFC999998620000
5FFFFFFFFFFFFFA100
0CFFFFFFFFFFFFFC10
02DFFFFFFFFFFFFF70
0018EFFFFFFFFFFFD0
000002333334DFFFF1
000000000000CFFFF1
9CCCCCCCCCCDFFFFE0
CFFFFFFFFFFFFFFF80
CFFFFFFFFFFFFFFD10
CFFFFFFFFFFFFFD300
CFFFFFFFFFFFC71000
ENDCHAR
STARTCHAR Tcommaaccent
ENCODING 354
SWIDTH 578 0
DWIDTH 21 0
BBX 21 36 0 -10
BITMAP
2333333333333333333310
AFFFFFFFFFFFFFFFFFFF70
AFFFFFFFFFFFFFFFFFFF70
AFFFFFFFFFFFFFFFFFFF70
AFFFFFFFFFFFFFFFFFFF70
9DDDDDDDFFFFFDDDDDDD60
00000002FFFFE000000000
00000002FFFFE000000000
00000002FFFFE000000000
00000002FFFFE000000000
00000002FFFFE000000000
00000002FFFFE000000000
00000002FFFFE000000000
00000002FFFFE000000000
00000002FFFFE000000000
00000002FFFFE000000000
00000002FFFFE000000000
00000002FFFFE000000000
00000002FFFFE000000000
00000002FFFFE000000000
00000002FFFFE000000000
00000002FFFFE000000000
00000002FFFFE000000000
00000002FFFFE000000000
00000002FFFFE000000000
00000002FFFFE000000000
0000000000000000000000
0000000001310000000000
000000005EFD2000000000
00000000DFFFA000000000
00000000EFFFC000000000
000000008FFFA000000000
0000000005FF6000000000
0000000007FE1000000000
0000000006E50000000000
0000000000100000000000
ENDCHAR
STARTCHAR tcommaaccent
ENCODING 355
SWIDTH 437 0
DWIDTH 16 0
BBX 15 37 0 -10
BITMAP
0015555300000000
002FFFF900000000
002FFFF900000000
002FFFF900000000
002FFFF900000000
002FFFF900000000
002FFFF900000000
002FFFF900000000
6CCFFFFECCCCCCB0
7FFFFFFFFFFFFFE0
7FFFFFFFFFFFFFE0
7FFFFFFFFFFFFFE0
7FFFFFFFFFFFFFD0
002FFFF900000000
002FFFF900000000
002FFFF900000000
002FFFF900000000
002FFFF900000000
002FFFFA00000000
001FFFFB00000000
000EFFFF40000000
0009FFFFE4000000
0002FFFFFFDCCCB0
00008FFFFFFFFFE0
00000AFFFFFFFFE0
0000007EFFFFFFE0
000000028CEFFFE0
0000000000000000
0000000320000000
000000BFF8000000
000006FFFF200000
000007FFFF400000
000002EFFF200000
0000002CFD000000
0000001EF7000000
0000002CC1000000
0000000010000000
ENDCHAR
STARTCHAR Tcaron
ENCODING 356
SWIDTH 578 0
DWIDTH 21 0
BBX 21 34 0 0
BITMAP
0000000300001100000000
0000003F9001CB00000000
000001DFFA2CFFA0000000
000002DFFFFFFFB0000000
0000001CFFFFFA00000000
00000001BFFFA000000000
000000000AF90000000000
0000000000500000000000
2333333333333333333310
AFFFFFFFFFFFFFFFFFFF70
AFFFFFFFFFFFFFFFFFFF70
AFFFFFFFFFFFFFFFFFFF70
AFFFFFFFFFFFFFFFFFFF70
9DDDDDDDFFFFFDDDDDDD60
00000002FFFFE000000000
00000002FFFFE000000000
00000002FFFFE000000000
00000002FFFFE000000000
00000002FFFFE000000000
00000002FFFFE000000000
00000002FFFFE000000000
00000002FFFFE000000000
00000002FFFFE000000000
00000002FFFFE000000000
00000002FFFFE000000000
00000002FFFFE000000000
00000002FFFFE000000000
00000002FFFFE000000000
00000002FFFFE000000000
00000002FFFFE000000000
00000002FFFFE000000000
00000002FFFFE000000000
00000002FFFFE000000000
00000002FFFFE000000000
ENDCHAR
STARTCHAR tcaron
ENCODING 357
SWIDTH 570 0
DWIDTH 21 0
BBX 21 27 0 0
BITMAP
0015555300000000000000
002FFFF900000000023000
002FFFF9000000007FFB00
002FFFF900000001FFFF60
002FFFF900000003FFFF80
002FFFF900000000CFFF60
002FFFF90000000019FF20
002FFFF9000000000AFB00
6CCFFFFECCCCCCB00AE200
7FFFFFFFFFFFFFE0001000
7FFFFFFFFFFFFFE0000000
7FFFFFFFFFFFFFE0000000
7FFFFFFFFFFFFFD0000000
002FFFF900000000000000
002FFFF900000000000000
002FFFF900000000000000
002FFFF900000000000000
002FFFF900000000000000
002FFFFA00000000000000
001FFFFB00000000000000
000EFFFF40000000000000
0009FFFFE4000000000000
0002FFFFFFDCCCB0000000
00008FFFFFFFFFE0000000
00000AFFFFFFFFE0000000
0000007EFFFFFFE0000000
000000028CEFFFE0000000
ENDCHAR
STARTCHAR Tbar
ENCODING 358
SWIDTH 578 0
DWIDTH 21 0
BBX 21 26 0 0
BITMAP
2333333333333333333310
AFFFFFFFFFFFFFFFFFFF70
AFFFFFFFFFFFFFFFFFFF70
AFFFFFFFFFFFFFFFFFFF70
AFFFFFFFFFFFFFFFFFFF70
9DDDDDDDFFFFFDDDDDDD60
00000002FFFFE000000000
00000002FFFFE000000000
00000002FFFFE000000000
00000002FFFFE000000000
00000002FFFFE000000000
00000002FFFFE000000000
00000113FFFFE111000000
00000FFFFFFFFFFC000000
00000FFFFFFFFFFC000000
00000FFFFFFFFFFC000000
00000FFFFFFFFFFC000000
00000AABFFFFFAA8000000
00000002FFFFE000000000
00000002FFFFE000000000
00000002FFFFE000000000
00000002FFFFE000000000
00000002FFFFE000000000
00000002FFFFE000000000
00000002FFFFE000000000
00000002FFFFE000000000
ENDCHAR
STARTCHAR tbar
ENCODING 359
SWIDTH 437 0
DWIDTH 16 0
BBX 15 27 0 0
BITMAP
0015555300000000
002FFFF900000000
002FFFF900000000
002FFFF900000000
002FFFF900000000
002FFFF900000000
002FFFF900000000
002FFFF900000000
6CCFFFFECCCCCCB0
7FFFFFFFFFFFFFE0
7FFFFFFFFFFFFFE0
7FFFFFFFFFFFFFE0
7FFFFFFFFFFFFFD0
002FFFF900000000
003FFFFA00000000
7FFFFFFFFFF60000
7FFFFFFFFFF60000
7FFFFFFFFFF60000
7FFFFFFFFFF60000
367FFFFE66620000
000EFFFF30000000
0009FFFFE4000000
0003FFFFFFECCCB0
00008FFFFFFFFFE0
00000AFFFFFFFFE0
0000007FFFFFFFE0
000000028CEFFFE0
ENDCHAR
STARTCHAR Utilde
ENCODING 360
SWIDTH 673 0
DWIDTH 24 0
BBX 21 33 2 0
BITMAP
0000018BB60059B9000000
00001EFFFFA08FFC000000
00007FFFFFFBDFFD000000
0000AFFFEFFFFFFB000000
00009FFE06FFFFF5000000
00005FFE104DFE60000000
0000033200001000000000
3333300000000003333310
EFFFF1000000000CFFFF30
EFFFF1000000000CFFFF30
EFFFF1000000000CFFFF30
EFFFF1000000000CFFFF30
EFFFF1000000000CFFFF30
EFFFF1000000000CFFFF30
EFFFF1000000000CFFFF30
EFFFF1000000000CFFFF30
EFFFF1000000000CFFFF30
EFFFF1000000000CFFFF30
EFFFF1000000000CFFFF30
EFFFF1000000000CFFFF30
EFFFF1000000000CFFFF30
EFFFF1000000000CFFFF30
EFFFF1000000000CFFFF30
DFFFF2000000000DFFFF20
CFFFF5000000002FFFFF10
9FFFFC000000008FFFFD00
4FFFFF90000006FFFFF800
0CFFFFFC5214AFFFFFE200
04FFFFFFFFFFFFFFFF8000
007FFFFFFFFFFFFFFB0000
0007FFFFFFFFFFFFA10000
00004CFFFFFFFFE6000000
00000059DEEDA610000000
ENDCHAR
STARTCHAR utilde
ENCODING 361
SWIDTH 562 0
DWIDTH 20 0
BBX 18 27 1 -1
BITMAP
000018BB60059B9000
0001EFFFFA08FFC000
0007FFFFFFBDFFD000
000AFFFEFFFFFFB000
0009FFE06FFFFF5000
0005FFE104DFE60000
000033200001000000
5CCCC40000005CCCC5
6FFFF50000006FFFF6
6FFFF50000006FFFF6
6FFFF50000006FFFF6
6FFFF50000006FFFF6
6FFFF50000006FFFF6
6FFFF50000006FFFF6
6FFFF50000006FFFF6
6FFFF50000006FFFF6
6FFFF50000006FFFF6
6FFFF50000006FFFF6
5FFFF70000008FFFF6
3FFFFC000001DFFFF6
0EFFFF70001AFFFFF6
09FFFFFC88DFFFFFF6
02FFFFFFFFFFFFFFF6
005FFFFFFFFFFFEFF6
0005FFFFFFFFFB1CF6
000029EFFFFC5002E6
000000035420000000
ENDCHAR
STARTCHAR Umacron
ENCODING 362
SWIDTH 673 0
DWIDTH 24 0
BBX 21 30 2 0
BITMAP
000005FFFFFFFF80000000
000005FFFFFFFF80000000
000005FFFFFFFF80000000
000004BBBBBBBB60000000
3333300000000003333310
EFFFF1000000000CFFFF30
EFFFF1000000000CFFFF30
EFFFF1000000000CFFFF30
EFFFF1000000000CFFFF30
EFFFF1000000000CFFFF30
EFFFF1000000000CFFFF30
EFFFF1000000000CFFFF30
EFFFF1000000000CFFFF30
EFFFF1000000000CFFFF30
EFFFF1000000000CFFFF30
EFFFF1000000000CFFFF30
EFFFF1000000000CFFFF30
EFFFF1000000000CFFFF30
EFFFF1000000000CFFFF30
EFFFF1000000000CFFFF30
DFFFF2000000000DFFFF20
CFFFF5000000002FFFFF10
9FFFFC000000008FFFFD00
4FFFFF90000006FFFFF800
0CFFFFFC5214AFFFFFE200
04FFFFFFFFFFFFFFFF8000
007FFFFFFFFFFFFFFB0000
0007FFFFFFFFFFFFA10000
00004CFFFFFFFFE6000000
00000059DEEDA610000000
ENDCHAR
STARTCHAR umacron
ENCODING 363
SWIDTH 562 0
DWIDTH 20 0
BBX 18 25 1 -1
BITMAP
00005FFFFFFFF80000
00005FFFFFFFF80000
00005FFFFFFFF80000
00004BBBBBBBB60000
000000000000000000
5CCCC40000005CCCC5
6FFFF50000006FFFF6
6FFFF50000006FFFF6
6FFFF50000006FFFF6
6FFFF50000006FFFF6
6FFFF50000006FFFF6
6FFFF50000006FFFF6
6FFFF50000006FFFF6
6FFFF50000006FFFF6
6FFFF50000006FFFF6
6FFFF50000006FFFF6
5FFFF70000008FFFF6
3FFFFC000001DFFFF6
0EFFFF70001AFFFFF6
09FFFFFC88DFFFFFF6
02FFFFFFFFFFFFFFF6
005FFFFFFFFFFFEFF6
0005FFFFFFFFFB1CF6
000029EFFFFC5002E6
000000035420000000
ENDCHAR
STARTCHAR Ubreve
ENCODING 364
SWIDTH 673 0
DWIDTH 24 0
BBX 21 32 2 0
BITMAP
0000003663066600000000
000000BFF70EFF10000000
000000AFFD8FFF20000000
0000005FFFFFFD00000000
00000009FFFFE400000000
0000000037971000000000
3333300000000003333310
EFFFF1000000000CFFFF30
EFFFF1000000000CFFFF30
EFFFF1000000000CFFFF30
EFFFF1000000000CFFFF30
EFFFF1000000000CFFFF30
EFFFF1000000000CFFFF30
EFFFF1000000000CFFFF30
EFFFF1000000000CFFFF30
EFFFF1000000000CFFFF30
EFFFF1000000000CFFFF30
EFFFF1000000000CFFFF30
EFFFF1000000000CFFFF30
EFFFF1000000000CFFFF30
EFFFF1000000000CFFFF30
EFFFF1000000000CFFFF30
DFFFF2000000000DFFFF20
CFFFF5000000002FFFFF10
9FFFFC000000008FFFFD00
4FFFFF90000006FFFFF800
0CFFFFFC5214AFFFFFE200
04FFFFFFFFFFFFFFFF8000
007FFFFFFFFFFFFFFB0000
0007FFFFFFFFFFFFA10000
00004CFFFFFFFFE6000000
00000059DEEDA610000000
ENDCHAR
STARTCHAR ubreve
ENCODING 365
SWIDTH 562 0
DWIDTH 20 0
BBX 18 27 1 -1
BITMAP
000005662166400000
00000EFF42FFD00000
00000DFFBAFFE00000
000008FFFFFFB00000
000000BFFFFD200000
000000058961000000
000000000000000000
5CCCC40000005CCCC5
6FFFF50000006FFFF6
6FFFF50000006FFFF6
6FFFF50000006FFFF6
6FFFF50000006FFFF6
6FFFF50000006FFFF6
6FFFF50000006FFFF6
6FFFF50000006FFFF6
6FFFF50000006FFFF6
6FFFF50000006FFFF6
6FFFF50000006FFFF6
5FFFF70000008FFFF6
3FFFFC000001DFFFF6
0EFFFF70001AFFFFF6
09FFFFFC88DFFFFFF6
02FFFFFFFFFFFFFFF6
005FFFFFFFFFFFEFF6
0005FFFFFFFFFB1CF6
000029EFFFFC5002E6
000000035420000000
ENDCHAR
STARTCHAR Uring
ENCODING 366
SWIDTH 673 0
DWIDTH 24 0
BBX 21 34 2 0
BITMAP
0000000016620000000000
00000003EFFF6000000000
0000001DFFEFF300000000
0000004FF31DF800000000
0000004FF21DF800000000
0000001EFEEFF300000000
00000004EFFF7000000000
0000000016730000000000
3333300000000003333310
EFFFF1000000000CFFFF30
EFFFF1000000000CFFFF30
EFFFF1000000000CFFFF30
EFFFF1000000000CFFFF30
EFFFF1000000000CFFFF30
EFFFF1000000000CFFFF30
EFFFF1000000000CFFFF30
EFFFF1000000000CFFFF30
EFFFF1000000000CFFFF30
EFFFF1000000000CFFFF30
EFFFF1000000000CFFFF30
EFFFF1000000000CFFFF30
EFFFF1000000000CFFFF30
EFFFF1000000000CFFFF30
EFFFF1000000000CFFFF30
DFFFF2000000000DFFFF20
CFFFF5000000002FFFFF10
9FFFFC000000008FFFFD00
4FFFFF90000006FFFFF800
0CFFFFFC5214AFFFFFE200
04FFFFFFFFFFFFFFFF8000
007FFFFFFFFFFFFFFB0000
0007FFFFFFFFFFFFA10000
00004CFFFFFFFFE6000000
00000059DEEDA610000000
ENDCHAR
STARTCHAR uring
ENCODING 367
SWIDTH 562 0
DWIDTH 20 0
BBX 18 28 1 -1
BITMAP
000000016620000000
0000004EFFF6000000
000001EFEEFF200000
000005FF21EF700000
000005FF21DF800000
000001EFEEFF300000
0000004EFFF7000000
000000016720000000
5CCCC40000005CCCC5
6FFFF50000006FFFF6
6FFFF50000006FFFF6
6FFFF50000006FFFF6
6FFFF50000006FFFF6
6FFFF50000006FFFF6
6FFFF50000006FFFF6
6FFFF50000006FFFF6
6FFFF50000006FFFF6
6FFFF50000006FFFF6
6FFFF50000006FFFF6
5FFFF70000008FFFF6
3FFFFC000001DFFFF6
0EFFFF70001AFFFFF6
09FFFFFC88DFFFFFF6
02FFFFFFFFFFFFFFF6
005FFFFFFFFFFFEFF6
0005FFFFFFFFFB1CF6
000029EFFFFC5002E6
000000035420000000
ENDCHAR
STARTCHAR Uhungarumlaut
ENCODING 368
SWIDTH 673 0
DWIDTH 24 0
BBX 21 35 2 0
BITMAP
000000002B100000000000
00000000CFD2002D300000
00000009FFFE31DFE40000
0000005FFFFF6AFFFF5000
000002EFFFE56FFFFF5000
00000CFFFE33FFFFE30000
000004EFD20BFFFD200000
0000004B1002DFB1000000
0000000000001800000000
3333300000000003333310
EFFFF1000000000CFFFF30
EFFFF1000000000CFFFF30
EFFFF1000000000CFFFF30
EFFFF1000000000CFFFF30
EFFFF1000000000CFFFF30
EFFFF1000000000CFFFF30
EFFFF1000000000CFFFF30
EFFFF1000000000CFFFF30
EFFFF1000000000CFFFF30
EFFFF1000000000CFFFF30
EFFFF1000000000CFFFF30
EFFFF1000000000CFFFF30
EFFFF1000000000CFFFF30
EFFFF1000000000CFFFF30
EFFFF1000000000CFFFF30
DFFFF2000000000DFFFF20
CFFFF5000000002FFFFF10
9FFFFC000000008FFFFD00
4FFFFF90000006FFFFF800
0CFFFFFC5214AFFFFFE200
04FFFFFFFFFFFFFFFF8000
007FFFFFFFFFFFFFFB0000
0007FFFFFFFFFFFFA10000
00004CFFFFFFFFE6000000
00000059DEEDA610000000
ENDCHAR
STARTCHAR uhungarumlaut
ENCODING 369
SWIDTH 562 0
DWIDTH 20 0
BBX 18 29 1 -1
BITMAP
00000002B100000000
0000000CFD2003D300
0000009FFFD31DFE40
000005FFFFF6AFFFE4
00002EFFFE47FFFFE5
0000CFFFE33FFFFE30
00004FFC20BFFFD200
000004B1002DFB1000
000000000001800000
5CCCC40000005CCCC5
6FFFF50000006FFFF6
6FFFF50000006FFFF6
6FFFF50000006FFFF6
6FFFF50000006FFFF6
6FFFF50000006FFFF6
6FFFF50000006FFFF6
6FFFF50000006FFFF6
6FFFF50000006FFFF6
6FFFF50000006FFFF6
6FFFF50000006FFFF6
5FFFF70000008FFFF6
3FFFFC000001DFFFF6
0EFFFF70001AFFFFF6
09FFFFFC88DFFFFFF6
02FFFFFFFFFFFFFFF6
005FFFFFFFFFFFEFF6
0005FFFFFFFFFB1CF6
000029EFFFFC5002E6
000000035420000000
ENDCHAR
STARTCHAR Uogonek
ENCODING 370
SWIDTH 673 0
DWIDTH 24 0
BBX 21 33 2 -7
BITMAP
3333300000000003333310
EFFFF1000000000CFFFF30
EFFFF1000000000CFFFF30
EFFFF1000000000CFFFF30
EFFFF1000000000CFFFF30
EFFFF1000000000CFFFF30
EFFFF1000000000CFFFF30
EFFFF1000000000CFFFF30
EFFFF1000000000CFFFF30
EFFFF1000000000CFFFF30
EFFFF1000000000CFFFF30
EFFFF1000000000CFFFF30
EFFFF1000000000CFFFF30
EFFFF1000000000CFFFF30
EFFFF1000000000CFFFF30
EFFFF1000000000CFFFF30
DFFFF2000000000DFFFF30
CFFFF5000000002FFFFF10
9FFFFC000000008FFFFD00
4FFFFF90000006FFFFF800
0CFFFFFC5214AFFFFFF200
04FFFFFFFFFFFFFFFF8000
007FFFFFFFFFFFFFFB0000
0008FFFFFFFFFFFFA00000
00004DFFFFFFFFE7000000
00000059FFFEB610000000
00000008FF600000000000
0000005FFC000000000000
000000BFF9170000000000
000000CFFFFFA000000000
0000008FFFFFF800000000
0000000AFFFF8000000000
0000000036510000000000
ENDCHAR
STARTCHAR uogonek
ENCODING 371
SWIDTH 562 0
DWIDTH 20 0
BBX 21 26 1 -7
BITMAP
5CCCC40000005CCCC50000
6FFFF50000006FFFF60000
6FFFF50000006FFFF60000
6FFFF50000006FFFF60000
6FFFF50000006FFFF60000
6FFFF50000006FFFF60000
6FFFF50000006FFFF60000
6FFFF50000006FFFF60000
6FFFF50000006FFFF60000
6FFFF50000006FFFF60000
6FFFF50000006FFFF60000
5FFFF70000008FFFF60000
3FFFFC000001DFFFF60000
0EFFFF70001AFFFFF60000
09FFFFFC88DFFFFFF60000
02FFFFFFFFFFFFFFF60000
005FFFFFFFFFFFEFF60000
0005FFFFFFFFFB1CF60000
000029EFFFFC501BF60000
00000003542001CFE20000
0000000000000AFF600000
0000000000002FFF354000
0000000000003FFFFFF500
0000000000000DFFFFFF20
00000000000003DFFFD400
0000000000000004640000
ENDCHAR
STARTCHAR Wcircumflex
ENCODING 372
SWIDTH 819 0
DWIDTH 30 0
BBX 26 34 2 -1
BITMAP
000000000001C5000000000000
00000000002DFF600000000000
0000000002DFFFF70000000000
000000003EFFFFFF8000000000
00000000CFFFAEFFF500000000
000000003EF802DFA000000000
000000000470001A1000000000
33333100002333310000233331
DFFFF30000CFFFF40000AFFFF5
DFFFF30000CFFFF40000AFFFF5
DFFFF30000CFFFF40000AFFFF5
DFFFF30000CFFFF40000AFFFF5
DFFFF30000CFFFF40000AFFFF5
DFFFF30000CFFFF40000AFFFF5
DFFFF30000CFFFF40000AFFFF5
DFFFF30000CFFFF40000AFFFF5
DFFFF30000CFFFF40000AFFFF5
DFFFF30000CFFFF40000AFFFF5
DFFFF30000CFFFF40000AFFFF5
DFFFF30000CFFFF40000AFFFF5
DFFFF30000CFFFF40000AFFFF5
DFFFF30000CFFFF40000AFFFF5
DFFFF30000CFFFF40000AFFFF5
DFFFF30000CFFFF40000AFFFF5
DFFFF30000CFFFF40000AFFFF5
DFFFF30000CFFFF40000AFFFF5
CFFFF50000EFFFF60000CFFFF4
9FFFFD1008FFFFFD2006FFFFF2
5FFFFFEBDFFFFFFFEBCFFFFFC0
0CFFFFFFFFFFFFFFFFFFFFFF50
03EFFFFFFFFFFFFFFFFFFFFA00
004EFFFFFFFFADFFFFFFFFA100
00029EFFFFC5019EFFFFC50000
00000145420000003542000000
ENDCHAR
STARTCHAR wcircumflex
ENCODING 373
SWIDTH 756 0
DWIDTH 27 0
BBX 25 28 1 -1
BITMAP
000000000002C4000000000000
00000000003DFE400000000000
0000000003EFFFF50000000000
000000004EFFFFFF7000000000
00000000EFFF9EFFF300000000
000000004FF603EF9000000000
000000000560002A0000000000
00000000000000000000000000
4CCCC500009CCCC00002CCCC70
5FFFF70000CFFFF00003FFFF90
5FFFF70000CFFFF00003FFFF90
5FFFF70000CFFFF00003FFFF90
5FFFF70000CFFFF00003FFFF90
5FFFF70000CFFFF00003FFFF90
5FFFF70000CFFFF00003FFFF90
5FFFF70000CFFFF00003FFFF90
5FFFF70000CFFFF00003FFFF90
5FFFF70000CFFFF00003FFFF90
5FFFF70000CFFFF00003FFFF90
5FFFF70000CFFFF00003FFFF90
5FFFF80000CFFFF10004FFFF80
3FFFFD1003FFFFF7000AFFFF70
0EFFFFD89EFFFFFFA7BFFFFF30
08FFFFFFFFFFFFFFFFFFFFFB00
01CFFFFFFFFFFFFFFFFFFFE300
002CFFFFFFFFBFFFFFFFFE4000
00018EFFFFC503BFFFFF920000
00000035520000014541000000
ENDCHAR
STARTCHAR Ycircumflex
ENCODING 374
SWIDTH 620 0
DWIDTH 22 0
BBX 21 33 1 0
BITMAP
0000000008A00000000000
000000008FFB1000000000
00000009FFFFC100000000
000000AFFFFFFC20000000
000006FFFDAFFFB0000000
000000BFC109FE20000000
0000001910008400000000
3333300000000002333310
EFFFF2000000000CFFFF40
EFFFF2000000000CFFFF40
EFFFF2000000000CFFFF40
EFFFF2000000000CFFFF40
EFFFF2000000000CFFFF40
EFFFF2000000000CFFFF40
EFFFF2000000000CFFFF40
EFFFF2000000000CFFFF30
DFFFF4000000000EFFFF20
AFFFF9000000004FFFFE00
6FFFFF40000001DFFFFB00
1EFFFFE600003DFFFFF500
07FFFFFFEAACFFFFFFC000
00CFFFFFFFFFFFFFFE2000
001DFFFFFFFFFFFFE40000
0001AFFFFFFFFFFD300000
000004BFFFFFFC60000000
00000005FFFFA000000000
00000005FFFFA000000000
00000005FFFFA000000000
00000005FFFFA000000000
00000005FFFFA000000000
00000005FFFFA000000000
00000005FFFFA000000000
00000005FFFFA000000000
ENDCHAR
STARTCHAR ycircumflex
ENCODING 375
SWIDTH 562 0
DWIDTH 20 0
BBX 18 35 1 -8
BITMAP
000000008A00000000
00000008FFB1000000
0000009FFFFC100000
00000AFFFFFFC20000
00006FFFDAFFFB0000
00000BFC109FE20000
000001910008400000
000000000000000000
5CCCC40000005CCCC5
6FFFF50000006FFFF7
6FFFF50000006FFFF7
6FFFF50000006FFFF7
6FFFF50000006FFFF7
6FFFF50000006FFFF7
6FFFF50000006FFFF7
6FFFF50000006FFFF7
6FFFF50000006FFFF7
6FFFF50000006FFFF7
6FFFF50000006FFFF7
5FFFF70000008FFFF7
3FFFFB000001DFFFF7
0EFFFF70001AFFFFF7
09FFFFFB88DFFFFFF7
02FFFFFFFFFFFFFFF7
005FFFFFFFFFFFFFF6
0005FFFFFFFFFFFFF5
000029EFFFFAEFFFF3
000000035517FFFFE0
00000000007FFFFF80
000006A9AEFFFFFE10
00000AFFFFFFFFF500
00000AFFFFFFFF7000
00000AFFFFFFD50000
00000AFFFFC7100000
000002332100000000
ENDCHAR
STARTCHAR Ydieresis
ENCODING 376
SWIDTH 620 0
DWIDTH 22 0
BBX 21 32 1 0
BITMAP
0000016610003620000000
00000CFFC005FFE2000000
00003FFFF30BFFF7000000
00001FFFF109FFF6000000
000005DD5001BE90000000
0000000000000000000000
3333300000000002333310
EFFFF2000000000CFFFF40
EFFFF2000000000CFFFF40
EFFFF2000000000CFFFF40
EFFFF2000000000CFFFF40
EFFFF2000000000CFFFF40
EFFFF2000000000CFFFF40
EFFFF2000000000CFFFF40
EFFFF2000000000CFFFF30
DFFFF4000000000EFFFF20
AFFFF9000000004FFFFE00
6FFFFF40000001DFFFFB00
1EFFFFE600003DFFFFF500
07FFFFFFEAACFFFFFFC000
00CFFFFFFFFFFFFFFE2000
001DFFFFFFFFFFFFE40000
0001AFFFFFFFFFFD300000
000004BFFFFFFC60000000
00000005FFFFA000000000
00000005FFFFA000000000
00000005FFFFA000000000
00000005FFFFA000000000
00000005FFFFA000000000
00000005FFFFA000000000
00000005FFFFA000000000
00000005FFFFA000000000
ENDCHAR
STARTCHAR Zacute
ENCODING 377
SWIDTH 586 0
DWIDTH 21 0
BBX 21 34 0 0
BITMAP
00000000000006C0000000
0000000000007FF9000000
000000000008FFFF600000
00000000009FFFFFD00000
0000000009FFFFF8100000
0000000005FFFC30000000
00000000008E6000000000
0000000000010000000000
0333333333333333333310
3FFFFFFFFFFFFFFFFFFE10
3FFFFFFFFFFFFFFFFFF700
3FFFFFFFFFFFFFFFFFD000
3FFFFFFFFFFFFFFFFF6000
2DDDDDDDDDDEFFFFFC0000
00000000000CFFFFF50000
00000000005FFFFFC00000
0000000000CFFFFF400000
0000000006FFFFFB000000
000000000DFFFFF3000000
000000007FFFFFA0000000
00000001EFFFFF20000000
00000008FFFFF900000000
0000001EFFFFE100000000
0000009FFFFF8000000000
000002FFFFFE1000000000
00000AFFFFF70000000000
00003FFFFFD00000000000
0000BFFFFF600000000000
0004FFFFFD111111111100
000CFFFFFFFFFFFFFFFF50
005FFFFFFFFFFFFFFFFF50
00CFFFFFFFFFFFFFFFFF50
06FFFFFFFFFFFFFFFFFF50
0DFFFFFFFFFFFFFFFFFF50
ENDCHAR
STARTCHAR zacute
ENCODING 378
SWIDTH 481 0
DWIDTH 17 0
BBX 17 28 0 0
BITMAP
000000000005D10000
00000000006FFB0000
0000000007FFFF8000
000000008FFFFFE100
00000008FFFFF91000
00000003FFFD400000
000000006F70000000
000000000200000000
000000000000000000
2CCCCCCCCCCCCCCC40
3FFFFFFFFFFFFFFC00
3FFFFFFFFFFFFFF300
3FFFFFFFFFFFFFA000
3FFFFFFFFFFFFF2000
000000008FFFF80000
00000002FFFFE10000
0000000AFFFF600000
0000004FFFFC000000
000000CFFFF4000000
000006FFFFA0000000
00001DFFFF20000000
00008FFFF800000000
0002EFFFE100000000
0009FFFFECCCCCCC60
003FFFFFFFFFFFFF80
00BFFFFFFFFFFFFF80
05FFFFFFFFFFFFFF80
0DFFFFFFFFFFFFFF80
ENDCHAR
STARTCHAR Zdotaccent
ENCODING 379
SWIDTH 586 0
DWIDTH 21 0
BBX 21 31 0 0
BITMAP
0000000007C81000000000
000000006FFF8000000000
00000000AFFFB000000000
000000005FFF7000000000
0000000006A70000000000
0333333333333333333310
3FFFFFFFFFFFFFFFFFFE10
3FFFFFFFFFFFFFFFFFF700
3FFFFFFFFFFFFFFFFFD000
3FFFFFFFFFFFFFFFFF6000
2DDDDDDDDDDEFFFFFC0000
00000000000CFFFFF50000
00000000005FFFFFC00000
0000000000CFFFFF400000
0000000006FFFFFB000000
000000000DFFFFF3000000
000000007FFFFFA0000000
00000001EFFFFF20000000
00000008FFFFF900000000
0000001EFFFFE100000000
0000009FFFFF8000000000
000002FFFFFE1000000000
00000AFFFFF70000000000
00003FFFFFD00000000000
0000BFFFFF600000000000
0004FFFFFD111111111100
000CFFFFFFFFFFFFFFFF50
005FFFFFFFFFFFFFFFFF50
00CFFFFFFFFFFFFFFFFF50
06FFFFFFFFFFFFFFFFFF50
0DFFFFFFFFFFFFFFFFFF50
ENDCHAR
ENDFONT
